<svg width="68" height="68" viewBox="0 0 68 68" fill="none" xmlns="http://www.w3.org/2000/svg">
<path d="M20.0322 41.4586C18.412 45.2708 16.0498 47.0084 13.1376 49.3381C10.3709 51.5515 7.9598 50.173 4.9298 49.9948C2.90314 49.8756 0.930262 56.6847 2.66809 57.1812C4.07419 57.5829 6.09175 57.2177 7.55631 57.2177C10.2821 57.2177 8.26331 57.4591 7.0456 58.6768C5.31369 60.4088 6.3466 65.0972 9.19788 65.0972C11.1306 65.0972 16.7491 63.9601 16.7491 61.8141C16.7491 58.9676 14.3406 56.124 17.0774 53.9345C19.2762 52.1755 20.6366 48.0249 23.972 48.0249" stroke="black" stroke-width="3" stroke-linecap="round"/>
<path d="M6.89966 32.2659C12.7539 31.1236 17.4687 25.043 23.3153 25.043C29.0061 25.043 34.6969 25.043 40.3876 25.043C43.0659 25.043 45.0018 25.7306 47.2457 27.0128C48.1465 27.5276 49.226 31.987 50.0911 33.0684C50.928 34.1145 51.2801 37.7806 51.5868 39.1604C52.0712 41.3404 53.3983 43.983 53.5202 46.055C53.6671 48.5524 53.5202 51.104 53.5202 53.6062C53.5202 56.3795 51.3515 56.0635 49.7263 57.3636C46.3139 60.0936 42.953 61.5494 39.0744 63.2733C35.5857 64.8238 28.7405 65.5612 25.7959 62.6166C24.4023 61.223 23.4202 59.5974 21.6738 58.2391C20.8551 57.6024 19.6275 56.8962 18.7189 56.4151C17.1243 55.5709 17.6693 54.6584 16.7491 53.2779" stroke="black" stroke-width="3" stroke-linecap="round"/>
<path d="M6.24303 32.9225C6.24303 35.6906 5.10843 42.831 6.89966 45.0701C8.76738 47.4047 12.61 46.313 14.1226 49.3382" stroke="black" stroke-width="3" stroke-linecap="round"/>
<path d="M38.4178 23.0731C42.437 22.1688 42.4201 19.4772 45.3124 17.1635C46.0959 16.5367 46.9838 15.6488 47.6106 14.8653C48.0561 14.3083 50.0801 13.2237 49.5804 13.2237" stroke="black" stroke-width="3" stroke-linecap="round"/>
<path d="M44.3274 25.0429C48.6931 21.8679 50.6846 15.4878 56.4385 13.8438C57.9071 13.4242 55.2267 14.6024 57.1681 15.1571C58.7447 15.6075 60.389 14.9525 61.728 14.2086C63.0463 13.4762 64.5662 13.2673 65.6313 12.2022C66.4452 11.3883 66.3007 8.29369 65.0111 8.00712C63.5229 7.67641 62.2975 6.65739 60.7431 6.65739C58.0421 6.65739 59.1244 5.86703 60.5972 4.54159C64.1057 1.38389 60.6689 2.061 57.4599 2.061C54.9765 2.061 52.9704 3.59392 51.6962 6.00076C51.1296 7.07107 50.4321 8.54755 49.7263 9.42981C49.1407 10.1619 50.8937 11.6132 50.8937 12.567" stroke="black" stroke-width="3" stroke-linecap="round"/>
<path d="M34.3226 64.4922C34.3226 63.5057 34.3226 62.5192 34.3226 61.5327C34.3226 60.8595 34.4826 60.2728 34.4826 59.6131C34.4826 58.9496 34.5247 58.2156 34.5626 57.5334C34.5847 57.1349 34.6426 56.7192 34.6426 56.2981C34.6426 56.0206 34.7085 55.4654 34.8203 55.2139C34.9592 54.9014 34.9215 54.5038 35.0825 54.214C35.2484 53.9155 35.5666 54.0141 35.9223 54.0141C36.7305 54.0141 37.5742 54.174 38.4019 54.174C38.9485 54.174 39.495 54.174 40.0416 54.174C40.1632 54.174 40.396 54.2239 40.5171 54.2585C40.5526 54.2686 40.8194 53.82 40.8815 53.6764C41.0311 53.3298 41.3175 53.0151 41.4236 52.6543C41.4796 52.4638 41.5593 52.224 41.7213 52.0944C41.9458 51.9148 42.1612 51.7662 42.1612 51.4545" stroke="black" stroke-width="3" stroke-linecap="round"/>
<path d="M42.0813 51.3745C42.0813 50.9056 41.8847 49.6808 42.1213 49.2549C42.3761 48.7962 42.1879 48.1911 42.4412 47.7351C42.5888 47.4696 43.2026 47.7169 43.441 47.7574C44.1532 47.8783 44.8793 47.9478 45.5962 48.0195C46.2368 48.0836 46.8962 48.2424 47.4848 48.4106C48.6684 48.7488 49.7737 49.1089 51.0219 49.3926C51.6422 49.5336 52.2319 49.9047 52.7994 50.1569C53.0133 50.252 54.3308 50.7113 54.3991 50.5746" stroke="black" stroke-width="3" stroke-linecap="round"/>
<path d="M52.9593 54.5739C52.9593 55.2592 52.9902 55.7405 52.3194 56.0759C51.842 56.3146 51.2776 56.5311 50.8974 56.9113C50.6733 57.1354 49.95 57.6944 50.4797 57.1335C50.8175 56.7759 51.1312 56.402 51.4796 56.0537C51.8905 55.6427 52.451 55.1698 52.9593 54.8939C53.1031 54.8158 53.5934 54.6412 53.6792 54.5339C53.7464 54.4499 53.911 54.5526 53.9191 54.414C53.9268 54.2838 53.9268 54.1442 53.9191 54.014C53.9119 53.8919 53.5143 53.7955 53.4214 53.7119C53.09 53.4136 52.7365 53.2663 52.3194 53.2142C52.1091 53.1879 52.0726 52.9742 51.7995 52.9742C51.3279 52.9742 52.052 53.0542 52.1994 53.0542C52.5433 53.0542 52.8039 53.3566 53.1193 53.3742C53.3298 53.3858 53.6557 53.4089 53.8791 53.4586C54.0912 53.5057 54.4458 53.466 54.639 53.5519C54.9567 53.6931 55.0151 53.5532 55.2389 53.3742C55.8612 52.8763 56.4598 52.3177 57.0208 51.7567C57.2568 51.5206 57.2249 50.8476 57.0208 50.5924C56.865 50.3977 56.6386 50.4762 56.6386 50.2147C56.6386 50.0235 56.4787 49.4724 56.4787 49.6637C56.4787 49.8772 56.3987 50.2991 56.3987 50.2991C56.3987 50.2991 56.5382 50.1631 56.5542 50.2192C56.5871 50.3342 56.5586 50.4951 56.5586 50.6146C56.5586 50.8679 56.5586 51.1212 56.5586 51.3745C56.5586 51.6423 56.6131 52.1852 56.3187 51.6944" stroke="white" stroke-width="3" stroke-linecap="round"/>
<path d="M56.3987 55.3738C54.9251 56.7272 52.8717 57.5309 51.1463 58.511C50.2617 59.0135 49.3266 59.4234 48.4002 59.8352C48.2841 59.8868 48.3202 59.6626 48.3202 59.6086C48.3202 59.3352 48.4699 59.1031 48.6579 58.9109C49.0547 58.5051 49.6056 58.0917 50.1598 57.9333C51.0776 57.6711 49.9402 58.6836 49.6488 58.8132C49.2437 58.9932 49.762 57.538 49.6799 57.5334C49.279 57.5111 48.8602 57.7851 48.4979 57.9333C48.1177 58.0889 47.8827 58.1547 48.018 57.6134C48.0937 57.3106 48.3476 56.8176 48.6401 56.6713C48.7605 56.6111 49.04 56.514 49.04 56.698C49.04 57.1287 48.8644 57.4604 48.6357 57.8178C48.1338 58.602 47.3538 59.3172 46.6582 59.933C46.3658 60.1919 46.0151 60.6448 45.6806 60.8306C45.2845 61.0507 45.4407 59.8244 45.4407 59.6086C45.4407 58.8101 45.6834 58.0166 46.0406 57.3023C46.2711 56.8413 46.1606 57.487 46.1606 57.7023C46.1606 58.6123 45.6528 59.5535 45.2007 60.3285C44.9606 60.7401 44.7468 61.4316 44.3831 61.7549C44.3219 61.8092 44.3963 60.8965 44.4009 60.8128C44.4248 60.3705 44.6678 60.2288 44.3875 60.7017C44.0171 61.3268 43.4743 61.8194 42.9656 62.3281C42.9263 62.3674 42.6436 62.6598 42.579 62.5369C42.392 62.1817 42.5568 61.342 42.5612 60.955C42.5634 60.7576 42.801 60.1712 42.8012 60.1729C42.8223 60.511 42.8174 60.9331 42.6412 61.2305C42.5864 61.323 42.4812 61.8496 42.4812 61.5149C42.4812 61.112 42.5874 59.9188 42.4768 60.3062C42.1563 61.4279 41.5664 62.3373 40.8815 63.2746C40.6557 63.5836 40.7255 62.8564 40.7215 62.7502C40.7057 62.324 40.4907 63.1795 40.4771 63.2879C40.4656 63.38 40.3216 63.9232 40.3216 63.6034C40.3216 63.128 40.3216 62.6525 40.3216 62.177C40.3216 61.8818 40.1924 62.6738 40.1616 62.8125C40.084 63.1617 39.937 63.4124 39.9217 62.8924C39.8925 61.8993 39.5201 63.454 39.3618 63.6123C39.1278 63.8462 39.0503 63.7655 39.0418 63.4523C39.0299 63.0098 38.8818 62.5896 38.8818 62.1415C38.8818 61.6745 39.1377 63.4266 38.6819 63.5279C38.4386 63.5819 38.3468 62.9801 38.3264 62.8169C38.288 62.5097 38.3304 63.2294 38.3219 63.3724C38.3005 63.7378 38.1115 62.8711 38.0998 62.8036C38.0759 62.6655 38.002 61.7771 38.002 62.257C38.002 62.9986 37.9127 63.552 37.5843 64.1722C37.4052 64.5105 37.6311 64.9496 37.4599 65.292C37.3211 65.5695 37.6021 64.6824 37.6021 64.3722C37.6021 63.9338 37.6175 63.7315 37.3799 63.4346C37.3041 63.3399 37.3621 63.0126 37.3621 62.8924C37.3621 62.7638 37.2021 62.4128 37.2021 62.5414C37.2021 62.9641 37.2014 63.211 37.4021 63.5723C37.5905 63.9114 37.5947 64.2356 37.7443 64.5721C37.8861 64.8913 37.842 65.2906 37.842 65.6519C37.842 66.1118 37.5548 65.9956 37.2021 66.1719" stroke="white" stroke-width="3" stroke-linecap="round"/>
</svg>
