<svg width="68" height="67" viewBox="0 0 68 67" fill="none" xmlns="http://www.w3.org/2000/svg">
<path d="M20.0322 41.4586C18.412 45.2708 16.0498 47.0084 13.1376 49.3381C10.3709 51.5515 7.9598 50.173 4.9298 49.9948C2.90314 49.8756 0.930262 56.6847 2.66809 57.1812C4.07419 57.5829 6.09175 57.2177 7.55631 57.2177C10.2821 57.2177 8.26331 57.4591 7.0456 58.6768C5.31369 60.4088 6.3466 65.0972 9.19788 65.0972C11.1306 65.0972 16.7491 63.9601 16.7491 61.8141C16.7491 58.9676 14.3406 56.124 17.0774 53.9345C19.2762 52.1755 20.6366 48.0249 23.972 48.0249" stroke="black" stroke-width="3" stroke-linecap="round"/>
<path d="M6.89966 32.2659C12.7539 31.1236 17.4687 25.043 23.3153 25.043C29.0061 25.043 34.6969 25.043 40.3876 25.043C43.0659 25.043 45.0018 25.7306 47.2457 27.0128C48.1465 27.5276 49.226 31.987 50.0911 33.0684C50.928 34.1145 51.2801 37.7806 51.5868 39.1604C52.0712 41.3404 53.3983 43.983 53.5202 46.055C53.6671 48.5524 53.5202 51.104 53.5202 53.6062C53.5202 56.3795 51.3515 56.0635 49.7263 57.3636C46.3139 60.0936 42.953 61.5494 39.0744 63.2733C35.5857 64.8238 28.7405 65.5612 25.7959 62.6166C24.4023 61.223 23.4202 59.5974 21.6738 58.2391C20.8551 57.6024 19.6275 56.8962 18.7189 56.4151C17.1243 55.5709 17.6693 54.6584 16.7491 53.2779" stroke="black" stroke-width="3" stroke-linecap="round"/>
<path d="M6.24303 32.9225C6.24303 35.6906 5.10843 42.831 6.89966 45.0701C8.76738 47.4047 12.61 46.313 14.1226 49.3382" stroke="black" stroke-width="3" stroke-linecap="round"/>
<path d="M38.4178 23.073C42.437 22.1687 42.4201 19.4772 45.3124 17.1634C46.0959 16.5366 46.9838 15.6487 47.6106 14.8652C48.0561 14.3082 50.0801 13.2236 49.5804 13.2236" stroke="black" stroke-width="3" stroke-linecap="round"/>
<path d="M44.3274 25.0429C48.6931 21.8679 50.6846 15.4878 56.4385 13.8438C57.9071 13.4242 55.2267 14.6024 57.1681 15.1571C58.7447 15.6075 60.389 14.9525 61.728 14.2086C63.0463 13.4762 64.5662 13.2673 65.6313 12.2022C66.4452 11.3883 66.3007 8.29369 65.0111 8.00712C63.5229 7.67641 62.2975 6.65739 60.7431 6.65739C58.0421 6.65739 59.1244 5.86703 60.5972 4.54159C64.1057 1.38389 60.6689 2.061 57.4599 2.061C54.9765 2.061 52.9704 3.59392 51.6962 6.00076C51.1296 7.07107 50.4321 8.54755 49.7263 9.42981C49.1407 10.1619 50.8937 11.6132 50.8937 12.567" stroke="black" stroke-width="3" stroke-linecap="round"/>
</svg>
