<svg width="68" height="71" viewBox="0 0 68 71" fill="none" xmlns="http://www.w3.org/2000/svg">
<path d="M20.0322 41.4586C18.412 45.2708 16.0498 47.0084 13.1376 49.3381C10.3709 51.5515 7.9598 50.173 4.9298 49.9948C2.90314 49.8756 0.930262 56.6847 2.66809 57.1812C4.07419 57.5829 6.09175 57.2177 7.55631 57.2177C10.2821 57.2177 8.26331 57.4591 7.0456 58.6768C5.31369 60.4088 6.3466 65.0972 9.19788 65.0972C11.1306 65.0972 16.7491 63.9601 16.7491 61.8141C16.7491 58.9676 14.3406 56.124 17.0774 53.9345C19.2762 52.1755 20.6366 48.0249 23.972 48.0249" stroke="black" stroke-width="3" stroke-linecap="round"/>
<path d="M6.89966 32.2659C12.7539 31.1236 17.4687 25.043 23.3153 25.043C29.0061 25.043 34.6969 25.043 40.3876 25.043C43.0659 25.043 45.0018 25.7306 47.2457 27.0128C48.1465 27.5276 49.226 31.987 50.0911 33.0684C50.928 34.1145 51.2801 37.7806 51.5868 39.1604C52.0712 41.3404 53.3983 43.983 53.5202 46.055C53.6671 48.5524 53.5202 51.104 53.5202 53.6062C53.5202 56.3795 51.3515 56.0635 49.7263 57.3636C46.3139 60.0936 42.953 61.5494 39.0744 63.2733C35.5857 64.8238 28.7405 65.5612 25.7959 62.6166C24.4023 61.223 23.4202 59.5974 21.6738 58.2391C20.8551 57.6024 19.6275 56.8962 18.7189 56.4151C17.1243 55.5709 17.6693 54.6584 16.7491 53.2779" stroke="black" stroke-width="3" stroke-linecap="round"/>
<path d="M6.24303 32.9225C6.24303 35.6906 5.10843 42.831 6.89966 45.0701C8.76738 47.4047 12.61 46.313 14.1226 49.3382" stroke="black" stroke-width="3" stroke-linecap="round"/>
<path d="M38.4178 23.0731C42.437 22.1688 42.4201 19.4772 45.3124 17.1635C46.0959 16.5367 46.9838 15.6488 47.6106 14.8653C48.0561 14.3083 50.0801 13.2237 49.5804 13.2237" stroke="black" stroke-width="3" stroke-linecap="round"/>
<path d="M44.3274 25.0429C48.6931 21.8679 50.6846 15.4878 56.4385 13.8438C57.9071 13.4242 55.2267 14.6024 57.1681 15.1571C58.7447 15.6075 60.389 14.9525 61.728 14.2086C63.0463 13.4762 64.5662 13.2673 65.6313 12.2022C66.4452 11.3883 66.3007 8.29369 65.0111 8.00712C63.5229 7.67641 62.2975 6.65739 60.7431 6.65739C58.0421 6.65739 59.1244 5.86703 60.5972 4.54159C64.1057 1.38389 60.6689 2.061 57.4599 2.061C54.9765 2.061 52.9704 3.59392 51.6962 6.00076C51.1296 7.07107 50.4321 8.54755 49.7263 9.42981C49.1407 10.1619 50.8937 11.6132 50.8937 12.567" stroke="black" stroke-width="3" stroke-linecap="round"/>
<path d="M34.3226 64.4922C34.3226 63.5057 34.3226 62.5192 34.3226 61.5327C34.3226 60.8595 34.4826 60.2728 34.4826 59.6131C34.4826 58.9496 34.5247 58.2156 34.5626 57.5334C34.5847 57.1349 34.6426 56.7192 34.6426 56.2981C34.6426 56.0206 34.7085 55.4654 34.8203 55.2139C34.9592 54.9014 34.9215 54.5038 35.0825 54.214C35.2484 53.9155 35.5666 54.0141 35.9223 54.0141C36.7305 54.0141 37.5742 54.174 38.4019 54.174C38.9485 54.174 39.495 54.174 40.0416 54.174C40.1632 54.174 40.396 54.2239 40.5171 54.2585C40.5526 54.2686 40.8194 53.82 40.8815 53.6764C41.0311 53.3298 41.3175 53.0151 41.4236 52.6543C41.4796 52.4638 41.5593 52.224 41.7213 52.0944C41.9458 51.9148 42.1612 51.7662 42.1612 51.4545" stroke="black" stroke-width="3" stroke-linecap="round"/>
<path d="M42.0813 51.3745C42.0813 50.9056 41.8847 49.6808 42.1213 49.2549C42.3761 48.7962 42.1879 48.1911 42.4412 47.7351C42.5888 47.4696 43.2026 47.7169 43.441 47.7574C44.1532 47.8783 44.8793 47.9478 45.5962 48.0195C46.2368 48.0836 46.8962 48.2424 47.4848 48.4106C48.6684 48.7488 49.7737 49.1089 51.0219 49.3926C51.6422 49.5336 52.2319 49.9047 52.7994 50.1569C53.0133 50.252 54.3308 50.7113 54.3991 50.5746" stroke="black" stroke-width="3" stroke-linecap="round"/>
<path d="M52.9593 54.5739C52.9593 55.2592 52.9902 55.7405 52.3194 56.0759C51.842 56.3146 51.2776 56.5311 50.8974 56.9113C50.6733 57.1354 49.95 57.6944 50.4797 57.1335C50.8175 56.7759 51.1312 56.402 51.4796 56.0537C51.8905 55.6427 52.451 55.1698 52.9593 54.8939C53.1031 54.8158 53.5934 54.6412 53.6792 54.5339C53.7464 54.4499 53.911 54.5526 53.9191 54.414C53.9268 54.2838 53.9268 54.1442 53.9191 54.014C53.9119 53.8919 53.5143 53.7955 53.4214 53.7119C53.09 53.4136 52.7365 53.2663 52.3194 53.2142C52.1091 53.1879 52.0726 52.9742 51.7995 52.9742C51.3279 52.9742 52.052 53.0542 52.1994 53.0542C52.5433 53.0542 52.8039 53.3566 53.1193 53.3742C53.3298 53.3858 53.6557 53.4089 53.8791 53.4586C54.0912 53.5057 54.4458 53.466 54.639 53.5519C54.9567 53.6931 55.0151 53.5532 55.2389 53.3742C55.8612 52.8763 56.4598 52.3177 57.0208 51.7567C57.2568 51.5206 57.2249 50.8476 57.0208 50.5924C56.865 50.3977 56.6386 50.4762 56.6386 50.2147C56.6386 50.0235 56.4787 49.4724 56.4787 49.6637C56.4787 49.8772 56.3987 50.2991 56.3987 50.2991C56.3987 50.2991 56.5382 50.1631 56.5542 50.2192C56.5871 50.3342 56.5586 50.4951 56.5586 50.6146C56.5586 50.8679 56.5586 51.1212 56.5586 51.3745C56.5586 51.6423 56.6131 52.1852 56.3187 51.6944" stroke="white" stroke-width="3" stroke-linecap="round"/>
<path d="M56.3987 55.3738C54.9251 56.7272 52.8717 57.5309 51.1463 58.511C50.2617 59.0135 49.3266 59.4234 48.4002 59.8352C48.2841 59.8868 48.3202 59.6626 48.3202 59.6086C48.3202 59.3352 48.4699 59.1031 48.6579 58.9109C49.0547 58.5051 49.6056 58.0917 50.1598 57.9333C51.0776 57.6711 49.9402 58.6836 49.6488 58.8132C49.2437 58.9932 49.762 57.538 49.6799 57.5334C49.279 57.5111 48.8602 57.7851 48.4979 57.9333C48.1177 58.0889 47.8827 58.1547 48.018 57.6134C48.0937 57.3106 48.3476 56.8176 48.6401 56.6713C48.7605 56.6111 49.04 56.514 49.04 56.698C49.04 57.1287 48.8644 57.4604 48.6357 57.8178C48.1338 58.602 47.3538 59.3172 46.6582 59.933C46.3658 60.1919 46.0151 60.6448 45.6806 60.8306C45.2845 61.0507 45.4407 59.8244 45.4407 59.6086C45.4407 58.8101 45.6834 58.0166 46.0406 57.3023C46.2711 56.8413 46.1606 57.487 46.1606 57.7023C46.1606 58.6123 45.6528 59.5535 45.2007 60.3285C44.9606 60.7401 44.7468 61.4316 44.3831 61.7549C44.3219 61.8092 44.3963 60.8965 44.4009 60.8128C44.4248 60.3705 44.6678 60.2288 44.3875 60.7017C44.0171 61.3268 43.4743 61.8194 42.9656 62.3281C42.9263 62.3674 42.6436 62.6598 42.579 62.5369C42.392 62.1817 42.5568 61.342 42.5612 60.955C42.5634 60.7576 42.801 60.1712 42.8012 60.1729C42.8223 60.511 42.8174 60.9331 42.6412 61.2305C42.5864 61.323 42.4812 61.8496 42.4812 61.5149C42.4812 61.112 42.5874 59.9188 42.4768 60.3062C42.1563 61.4279 41.5664 62.3373 40.8815 63.2746C40.6557 63.5836 40.7255 62.8564 40.7215 62.7502C40.7057 62.324 40.4907 63.1795 40.4771 63.2879C40.4656 63.38 40.3216 63.9232 40.3216 63.6034C40.3216 63.128 40.3216 62.6525 40.3216 62.177C40.3216 61.8818 40.1924 62.6738 40.1616 62.8125C40.084 63.1617 39.937 63.4124 39.9217 62.8924C39.8925 61.8993 39.5201 63.454 39.3618 63.6123C39.1278 63.8462 39.0503 63.7655 39.0418 63.4523C39.0299 63.0098 38.8818 62.5896 38.8818 62.1415C38.8818 61.6745 39.1377 63.4266 38.6819 63.5279C38.4386 63.5819 38.3468 62.9801 38.3264 62.8169C38.288 62.5097 38.3304 63.2294 38.3219 63.3724C38.3005 63.7378 38.1115 62.8711 38.0998 62.8036C38.0759 62.6655 38.002 61.7771 38.002 62.257C38.002 62.9986 37.9127 63.552 37.5843 64.1722C37.4052 64.5105 37.6311 64.9496 37.4599 65.292C37.3211 65.5695 37.6021 64.6824 37.6021 64.3722C37.6021 63.9338 37.6175 63.7315 37.3799 63.4346C37.3041 63.3399 37.3621 63.0126 37.3621 62.8924C37.3621 62.7638 37.2021 62.4128 37.2021 62.5414C37.2021 62.9641 37.2014 63.211 37.4021 63.5723C37.5905 63.9114 37.5947 64.2356 37.7443 64.5721C37.8861 64.8913 37.842 65.2906 37.842 65.6519C37.842 66.1118 37.5548 65.9956 37.2021 66.1719" stroke="white" stroke-width="3" stroke-linecap="round"/>
<path d="M8.15076 33.0347C10.6375 33.3638 12.8604 34.7654 15.3102 35.2553C15.8146 35.3562 16.3147 35.5565 16.8026 35.7011C17.2937 35.8466 17.7802 35.9686 18.2671 36.1309C18.5273 36.2176 18.8243 36.5321 18.8243 36.1508C18.8243 35.5896 18.8243 35.0285 18.8243 34.4674C18.8243 33.9164 18.7963 33.3638 18.88 32.8198C18.911 32.6183 18.8306 31.6994 19.1665 32.1194C19.6323 32.7016 20.3842 33.046 21.1165 33.3172C22.7525 33.9231 24.5008 34.2956 26.1906 34.7181C26.3594 34.7603 27.8121 35.2615 27.9059 35.1678C27.9782 35.0955 28.0032 34.7107 28.0292 34.6067C28.147 34.1357 28.2563 33.6546 28.3516 33.1779C28.68 31.5362 28.9247 29.9452 28.9247 28.275C28.9247 27.6005 28.853 26.8625 28.853 26.2294" stroke="black" stroke-width="3" stroke-linecap="round"/>
<path d="M11.3743 30.0976C12.7002 29.2397 14.1133 28.4646 15.4933 27.6979C15.876 27.4853 16.268 27.2858 16.6912 27.1447C17.1294 26.9987 17.5858 26.7653 18.0204 26.5876C18.3718 26.4438 18.7148 26.3272 19.071 26.2254C19.1861 26.1925 19.3314 26.0632 19.4531 26.0145C19.8189 25.8682 20.1961 25.8347 20.5793 25.7638C21.0085 25.6843 21.4681 25.728 21.9046 25.728C22.4192 25.728 21.627 25.6563 21.4748 25.6563C20.3411 25.6563 19.2122 25.8712 18.0761 25.8712C17.6622 25.8712 17.2483 25.8712 16.8344 25.8712C16.6988 25.8712 16.3222 25.94 16.2136 25.8314C15.9728 25.5906 16.4565 25.5174 16.6036 25.6563C17.1683 26.1897 17.6916 27.1672 17.4593 27.9805C17.4344 28.0674 16.8912 28.2341 16.7827 28.3426C16.2916 28.8337 15.909 29.4416 15.3699 29.8827C14.8618 30.2984 14.4318 30.6707 13.7741 30.6707C13.3211 30.6707 12.9066 30.7424 12.4488 30.7424C11.6055 30.7424 10.8778 30.1693 10.0849 30.1693C9.22261 30.1693 8.40404 30.1207 7.57772 30.1693C7.41399 30.1789 7.16447 30.2574 7.00464 30.3285C6.81818 30.4113 6.57482 30.3995 6.39177 30.4518C6.29546 30.4794 6.17306 30.45 6.0734 30.4558C5.98671 30.4609 5.91693 30.5742 5.82268 30.5951C5.66033 30.6312 5.50411 30.7405 5.35706 30.814" stroke="white" stroke-width="3" stroke-linecap="round"/>
<path d="M18.2512 24.0804C19.14 24.0804 20.0288 24.0804 20.9176 24.0804C21.806 24.0804 22.734 24.2751 23.6238 24.148C23.7381 24.1317 23.9953 24.0989 24.0695 24.0247C24.1594 23.9348 24.1969 23.8423 24.1969 24.0087C24.1969 24.2963 24.0536 24.5423 24.0536 24.8325C24.0536 25.131 24.0536 25.4295 24.0536 25.728C24.0536 25.8915 23.9984 26.5197 24.1809 26.0861C24.3952 25.5772 24.4182 25.0422 24.6983 24.542C25.0465 23.9203 25.1424 23.1954 25.4704 22.5761C25.6081 22.3159 25.6295 23.1628 25.6295 23.2566C25.6295 23.5431 25.6295 23.8297 25.6295 24.1162C25.6295 24.6426 25.7002 25.2195 25.3032 25.6165C25.1097 25.81 24.7799 25.6725 24.5391 25.7439C24.1337 25.864 23.6889 25.8712 23.2656 25.8712" stroke="white" stroke-width="3" stroke-linecap="round"/>
<path d="M25.5579 26.516C25.7966 26.516 26.0354 26.516 26.2742 26.516C26.5294 26.516 26.1809 26.5426 26.1309 26.4801C26.0472 26.3755 25.9694 25.7569 26.0951 25.6564C26.2441 25.5371 26.3963 25.0588 26.4175 24.8684C26.4364 24.6977 26.5607 24.5857 26.5607 24.4028C26.5607 24.2475 26.5607 24.0923 26.5607 23.9371" stroke="white" stroke-width="3" stroke-linecap="round"/>
<path d="M27.7069 23.5789C27.9825 23.5252 28.2189 23.4378 28.463 23.368C28.524 23.3506 28.6457 23.3963 28.6938 23.3481C28.757 23.285 28.583 23.3222 28.5506 23.3481C28.4842 23.4012 28.126 23.4102 28.0292 23.4317C27.8854 23.4636 27.7886 23.5789 27.6353 23.5789" stroke="white" stroke-width="3" stroke-linecap="round"/>
<path d="M3.13635 32.4616C3.50557 32.3895 3.91166 32.4237 4.12331 32.1591C4.19319 32.0718 4.20804 31.9458 4.2825 31.8527C4.3781 31.7332 4.55532 31.6273 4.67649 31.5303C4.77973 31.4477 4.89293 31.3259 4.99884 31.2597C5.10227 31.1951 5.27944 31.1617 5.35701 31.0647C5.50976 30.8738 5.95939 30.8986 6.07335 30.6707" stroke="white" stroke-width="3" stroke-linecap="round"/>
<path d="M11.3743 30.8856C11.5986 30.8124 11.9299 30.7642 12.0907 30.5633C12.1329 30.5105 12.3862 30.5274 12.3056 30.5274" stroke="white" stroke-width="3" stroke-linecap="round"/>
<path d="M10.0849 30.6707C10.5139 30.5033 10.982 30.4312 11.3743 30.2569C11.5529 30.1775 11.3062 30.1693 11.1594 30.1693C10.9408 30.1693 10.7585 30.0977 10.5505 30.0977C10.1322 30.0977 8.80951 30.2978 8.58057 29.9544" stroke="white" stroke-width="3" stroke-linecap="round"/>
<path d="M12.8107 31.3497C12.5305 31.343 12.2612 31.1864 12.0019 31.0938C11.8647 31.0448 11.7254 30.976 11.5939 30.9103C11.536 30.8813 11.4848 30.8318 11.4201 30.8282C11.2595 30.8193 11.1102 30.7109 10.9469 30.6979C10.807 30.6867 10.6555 30.5968 10.5184 30.5663C10.3798 30.5355 10.2676 30.4371 10.1273 30.4371C9.96259 30.4371 9.80184 30.3593 9.63845 30.3502C9.4709 30.3409 9.30926 30.3285 9.13871 30.3285C9.06867 30.3285 8.93001 30.391 8.87315 30.4323C8.83199 30.4622 8.70232 30.4589 8.64984 30.4589C8.4905 30.4589 8.33117 30.4589 8.17183 30.4589C8.09426 30.4589 8.02351 30.524 7.95456 30.524C7.9124 30.524 7.78782 30.5662 7.75297 30.5941C7.6476 30.6783 7.38491 30.6327 7.25323 30.6327C7.16508 30.6327 7.07569 30.628 6.98767 30.6327C6.94218 30.6351 6.77705 30.6515 6.74867 30.687C6.71142 30.7336 6.57731 30.7196 6.52173 30.7196C6.36964 30.7196 6.21755 30.7196 6.06545 30.7196C5.95681 30.7196 5.63764 30.667 5.55847 30.7461C5.51386 30.7908 5.4871 30.8464 5.44018 30.8886C5.42489 30.9023 5.34242 30.9369 5.41241 30.9369C5.43084 30.9369 5.51191 30.9445 5.48846 30.932C5.22755 30.7939 5.06727 30.611 4.76058 30.611C4.51938 30.611 4.4713 30.8944 4.33689 31.0672C4.28022 31.1401 4.21692 31.2895 4.13048 31.328C4.11948 31.3329 4.05842 31.3875 4.07616 31.4052C4.09977 31.4288 4.12585 31.3605 4.15221 31.34C4.21338 31.2925 4.277 31.2373 4.34655 31.1976C4.38776 31.174 4.48483 31.1105 4.51072 31.0781C4.52801 31.0565 4.56833 31.0651 4.5928 31.0407C4.61243 31.021 4.63024 30.9977 4.65195 30.9803C4.72301 30.9235 4.78357 30.8429 4.85353 30.7799C4.88437 30.7522 4.91791 30.7314 4.95372 30.7099C4.98444 30.6915 4.89637 30.7544 4.86319 30.7679C4.7351 30.8201 4.65133 30.9529 4.53244 31.0189C4.44877 31.0654 4.23406 31.237 4.20532 31.3376C4.16759 31.4697 4.02541 31.5762 3.98804 31.707C3.9773 31.7446 3.87581 31.8489 3.84802 31.8712C3.79957 31.9099 3.7776 31.9621 3.73335 32.0064C3.56531 32.1744 3.4026 32.4437 3.4026 32.6859C3.4026 32.7119 3.42734 32.9168 3.44485 32.838C3.46585 32.7435 3.43233 32.6418 3.50641 32.5592C3.56082 32.4985 3.57062 32.6065 3.56556 32.6328C3.53427 32.7955 3.45108 32.9643 3.37001 33.1084C3.32421 33.1899 3.27077 33.3098 3.21188 33.3752C3.15914 33.4338 3.14626 33.518 3.11531 33.5876C3.0845 33.657 2.9858 33.7967 3.07669 33.6577C3.13441 33.5694 3.17312 33.4731 3.22757 33.3812C3.29032 33.2753 3.36498 33.173 3.42433 33.0662C3.48282 32.9609 3.57823 32.7835 3.6742 32.7089C3.70139 32.6877 3.61709 32.8278 3.59815 32.861C3.54905 32.9469 3.50518 33.0336 3.45692 33.1205C3.42079 33.1855 3.3741 33.2651 3.35794 33.3378C3.34996 33.3737 3.27224 33.5279 3.27224 33.4356" stroke="white" stroke-width="3" stroke-linecap="round"/>
<path d="M29.4952 22.5354C29.64 22.5637 29.7906 22.5415 29.9306 22.5815C29.958 22.5893 29.9755 22.6332 30.0003 22.6474C30.0408 22.6705 30.0386 22.6182 30.0774 22.5976C30.1309 22.5693 30.3258 22.4907 30.1782 22.4907C30.1036 22.4907 29.9835 22.5264 29.9207 22.5578" stroke="white" stroke-width="3" stroke-linecap="round"/>
<path d="M30.9283 22.4682C31.0804 22.3494 31.2272 22.252 31.4159 22.1821C31.4301 22.1769 31.6161 22.0925 31.5328 22.0876C31.4695 22.0839 31.4048 22.0876 31.3413 22.0876C31.2221 22.0876 31.0628 22.1483 30.9507 22.1884C30.7748 22.2512 30.5507 22.3205 30.3635 22.3339C30.1351 22.3502 29.8947 22.4363 29.6794 22.508C29.5138 22.5632 29.3225 22.5966 29.1706 22.681C29.0416 22.7526 28.8716 22.785 28.734 22.8539C28.6355 22.9031 28.4543 23.0092 28.3981 23.1076C28.3267 23.2325 28.1694 23.2691 28.0846 23.3751C28.0506 23.4177 27.9434 23.4764 27.8943 23.4982C27.8278 23.5278 27.7512 23.6244 27.6816 23.6326C27.5758 23.645 27.3954 23.7569 27.3121 23.8217C27.2254 23.8891 27.1143 23.9187 27.0372 23.9958C26.9524 24.0806 26.8719 24.1647 26.8133 24.2819C26.7498 24.4088 26.6612 24.5289 26.6068 24.6514C26.488 24.9186 26.3605 25.1632 26.3605 25.4575C26.3605 25.5128 26.3157 25.5761 26.3157 25.6366C26.3157 25.6532 26.2933 25.7797 26.2933 25.7261C26.2933 25.6548 26.3651 25.5076 26.4103 25.4512C26.4746 25.3708 26.5614 25.2727 26.6118 25.1776C26.6652 25.0767 26.7596 24.9657 26.7847 24.8529C26.8312 24.6437 27.019 24.4667 27.1168 24.2819C27.2134 24.0996 27.3746 23.9072 27.5199 23.7619C27.7174 23.5644 27.846 23.3069 28.0734 23.13C28.2028 23.0294 28.3388 22.9106 28.4653 22.8041C28.5441 22.7377 28.54 22.8437 28.515 22.8937C28.492 22.9398 28.4489 23.0187 28.4093 23.0504C28.1601 23.2498 27.9133 23.478 27.6866 23.7047C27.6153 23.776 27.547 23.8388 27.4689 23.9013C27.2949 24.0405 27.3923 23.8126 27.3457 23.7893" stroke="white" stroke-width="3" stroke-linecap="round"/>
<path d="M17.1065 37.5163C16.3173 38.1552 15.5784 38.8283 14.8615 39.5452C14.6088 39.798 14.3414 39.9497 14.2972 40.3256C14.2683 40.5718 13.9951 40.8199 13.9731 41.106C13.944 41.4838 13.7358 41.8524 13.6549 42.2165C13.6367 42.2983 14.8967 43.1269 15.1076 43.291C15.2973 43.4385 15.5268 43.6174 15.7499 43.6812C15.8353 43.7056 16.3147 44.1557 15.918 43.8913" stroke="black" stroke-width="3" stroke-linecap="round"/>
<path d="M22.401 50.2663C23.0921 50.6709 23.8281 51.0138 24.562 51.3228C24.9027 51.4662 25.3732 51.3292 25.6965 51.5089C26.0244 51.691 26.8932 51.7684 27.2633 51.779C28.0121 51.8004 28.7422 51.8564 29.4723 51.9891C29.8781 52.0629 30.3608 51.9951 30.7749 51.9951C31.3522 51.9951 31.9097 52.1895 32.4737 52.2112C32.9283 52.2287 33.1864 52.4294 33.5783 52.5414C33.9339 52.643 34.2425 53.0315 33.7463 52.5354" stroke="black" stroke-width="3" stroke-linecap="round"/>
<path d="M22.7252 58.8023C22.7252 61.6106 22.8332 57.0873 22.8332 60.9393C22.8332 61.2347 22.8641 61.5807 23.2114 61.2334C23.6673 60.7775 23.5378 62.205 23.5656 62.476C23.6408 63.2121 23.7189 63.9976 24.0218 64.6791C24.1919 65.0618 24.6555 64.2406 24.7241 64.1568C24.906 63.9345 25.0089 63.7411 24.9942 63.4485C24.9529 62.622 24.8862 61.8016 24.8862 60.9633C24.8862 60.5671 24.8862 59.3786 24.8862 59.7748C24.8862 59.9079 24.9942 60.5454 24.9942 60.1529C24.9942 59.6302 25.1362 60.647 25.2583 60.9033C26.1264 62.7246 26.7761 64.645 27.5754 66.4979C27.7663 66.9404 27.9939 67.3663 28.1757 67.8125C28.2016 67.876 28.523 68.3667 28.4278 68.0706C28.2202 67.4245 27.8027 66.8243 27.5394 66.1978C27.1771 65.3357 26.9102 64.4246 26.723 63.5085C26.6826 63.3106 26.218 61.7781 26.573 62.2119C26.9575 62.6818 27.316 63.1668 27.8035 63.5325C28.1268 63.775 28.4073 63.9686 28.83 63.8747C29.0729 63.8207 28.9474 63.3404 29.2082 63.3404C29.4461 63.3404 29.6869 63.5539 29.8805 63.6646C30.5239 64.0322 31.1484 64.4323 31.7954 64.7931C32.5671 65.2235 33.4206 65.737 34.2626 66.0177C34.8591 66.2165 33.4307 65.9934 33.2541 65.9276C32.2917 65.5695 31.4778 65.1313 30.6249 64.583C30.3249 64.3902 30.9468 64.6032 31.0451 64.661C31.5449 64.955 29.8013 65.3161 29.7004 65.3394C29.4866 65.3887 27.8681 65.9004 28.5839 65.5014C29.1644 65.1779 29.8008 64.9675 30.3848 64.643C30.7413 64.445 31.0609 64.2286 31.4773 64.2048C31.5759 64.1992 31.8522 64.0968 31.7534 64.0968C31.478 64.0968 31.1405 64.2811 30.883 64.3669C30.606 64.4593 30.3454 64.5683 30.0786 64.6851C29.9489 64.7418 29.5883 64.753 29.6884 64.8531C29.7861 64.9508 30.4066 64.7652 30.5048 64.7451C31.3528 64.5716 32.1434 64.2217 32.978 64.0007C33.8743 63.7635 35.0143 63.2324 35.9494 63.2324C36.8065 63.2324 32.5969 63.4725 33.3802 63.1243C34.0223 62.8389 34.8441 62.7901 35.5352 62.6681C36.5382 62.4911 35.5842 62.328 35.103 62.2119C34.8515 62.1512 33.8738 62.0691 33.8544 61.7197C33.8329 61.3321 34.2371 61.2346 34.5567 61.1854C35.1515 61.0939 34.9305 61.1794 34.4187 61.1794C34.1529 61.1794 32.8819 61.3574 32.8819 60.9633C32.8819 60.6217 35.166 60.391 33.9864 60.1229C33.8818 60.0991 32.7249 59.9612 32.7919 59.7267C32.8504 59.522 34.6601 59.6667 34.9349 59.6667C35.3091 59.6667 36.4316 59.6667 36.0574 59.6667C35.5149 59.6667 34.8083 59.3301 34.3106 59.1264C33.1951 58.6701 34.8673 58.6436 34.7668 58.5862C34.5008 58.4342 34.2209 58.3825 34.7428 58.3701C35.0686 58.3623 35.7626 58.374 36.0574 58.256C36.4277 58.1079 35.2849 58.0524 34.9109 57.9139C34.5627 57.7849 34.554 57.5684 34.3406 57.3976C34.2007 57.2857 33.4342 56.6348 33.4342 56.4792C33.4342 56.456 34.5571 56.6413 34.7188 56.6413C34.9628 56.6413 35.1654 56.7493 35.4211 56.7493C35.7005 56.7493 35.7985 56.9654 35.4751 56.9654C35.0209 56.9654 34.6422 56.8592 34.3466 56.4792C33.935 55.95 32.7158 55.964 32.1256 55.6688" stroke="white" stroke-width="3" stroke-linecap="round"/>
<path d="M37.9603 64.7451C37.9603 65.9297 37.9603 67.1142 37.9603 68.2988C37.9603 68.782 37.7613 69.1407 37.5221 68.5029C37.086 67.3399 36.8407 63.6131 36.7718 64.8532C36.7505 65.2365 36.6637 65.593 36.6637 65.9817C36.6637 66.4379 36.4981 65.6783 36.4476 65.5015C36.2058 64.655 34.2068 65.0652 33.7463 65.5015C33.5954 65.6445 33.3612 65.9356 33.1461 65.7596C32.7288 65.4182 32.5161 64.7868 32.2096 64.3489C31.6847 63.5991 31.1232 62.8848 30.4448 62.266C29.1892 61.1205 27.558 60.394 25.8826 60.1229C25.6211 60.0806 24.5004 59.7763 24.2619 60.0149C24.1302 60.1466 24.2379 60.7594 24.2379 60.5732C24.2379 60.1398 24.1895 59.7277 24.1238 59.3006C23.9896 58.428 23.3645 59.6864 23.2714 59.1745C23.1877 58.714 23.0736 58.1599 23.0493 57.7218C23.0228 57.2448 22.4025 56.9621 22.1849 57.4517C22.0161 57.8315 21.8005 58.3119 21.7527 58.6943C21.7105 59.0317 21.3521 58.5588 21.3265 58.4181C21.2777 58.1496 21.3205 57.8337 21.3205 57.5597C21.3205 57.1522 21.3747 56.6355 21.0804 56.3412C20.9284 56.1892 20.8122 55.9924 20.6242 55.885C20.5028 55.8156 20.2132 55.7164 20.1319 55.6148C19.9084 55.3354 19.1595 57.2305 19.1595 57.5057" stroke="white" stroke-width="3" stroke-linecap="round"/>
<path d="M10.0833 47.457C10.413 47.2072 11.0382 46.9167 10.3534 46.9167C9.85209 46.9167 10.2188 46.6516 10.4674 46.5386C10.8724 46.3545 11.5069 46.2316 11.8361 45.9683C11.8979 45.9188 12.4028 45.6521 11.9741 45.8903C11.6217 46.086 10.8632 46.0234 10.4614 46.0583C9.54523 46.138 8.3591 46.3595 7.43602 46.1544C6.90194 46.0357 7.29421 44.8824 7.14188 44.5396C7.01024 44.2434 7.05784 44.0213 7.05784 44.4856C7.05784 44.7542 7.16459 45.1322 7.33397 45.35C7.56077 45.6416 7.25103 45.2094 7.1899 45.1279C6.84383 44.6665 6.52255 44.213 6.30148 43.6752C5.86276 42.6081 5.41844 41.404 5.32903 40.2416C5.29323 39.7763 5.13676 40.794 5.30501 40.6258C5.58262 40.3482 5.73759 39.7103 5.92931 39.3652C6.12941 39.005 6.33334 38.6412 6.51758 38.2727C6.54677 38.2143 6.72168 37.7122 6.72168 38.0446C6.72168 39.1648 5.9464 40.4268 5.46709 41.3941C4.8319 42.6761 4.13827 43.9658 3.60622 45.296C3.50917 45.5386 3.34562 46.3747 3.06596 46.5146C2.97109 46.562 3.05856 46.3025 3.05996 46.1964C3.06522 45.7966 3.09621 45.416 3.21603 45.0319C3.46531 44.2327 3.73868 43.3669 4.18849 42.6547C4.40626 42.3099 4.64103 41.3687 5.11292 41.6463C5.32628 41.7718 5.65318 42.1827 5.65318 42.4326C5.65318 42.7839 5.38341 43.0419 5.60516 42.7568C5.98289 42.2711 6.19343 42.5505 6.19343 43.0269C6.19343 43.5294 5.86928 44.005 5.86928 44.4856C5.86928 44.7214 5.93059 45.0303 5.78524 45.2119C5.70461 45.3127 5.76123 45.42 5.76123 45.1639C5.76123 44.4462 5.72673 43.7185 5.78524 43.0029C5.9833 40.5804 7.00806 38.2851 7.43602 35.9076C7.47071 35.7148 8.04764 33.7126 7.26794 34.3949C6.79173 34.8115 6.31315 35.4493 6.00134 36.0036C5.98994 36.0239 5.97733 35.4313 5.97733 35.2833C5.97733 34.8796 6.00854 34.4989 6.10939 34.1067C6.11848 34.0714 6.22325 33.6888 6.27747 33.7586C6.4291 33.9535 5.83407 35.0035 5.76123 35.1632C5.16868 36.4623 4.35329 37.6713 3.84033 39.005C3.29224 40.4301 5.11292 33.0782 5.11292 34.605C5.11292 34.7996 4.97378 35.7962 5.35304 35.5714C5.8098 35.3007 6.08652 34.9005 6.43354 34.5149C6.67123 34.2508 6.89975 33.9113 7.11787 33.6205C7.50054 33.1103 8.01507 31.9525 8.62457 31.6816C9.04425 31.4951 8.54242 32.9738 8.45649 33.1403C8.12441 33.7837 7.08354 35.682 7.34597 35.0071C7.81159 33.8098 8.62896 32.8727 9.30289 31.8136C9.65207 31.2649 9.75911 31.321 9.75911 31.9217C9.75911 32.3994 9.83754 32.7006 9.92118 33.1523C10.0932 34.081 9.97521 35.1068 9.97521 36.0516C9.97521 36.3421 9.97264 35.9143 9.97521 35.8475C9.99203 35.4101 10.2251 35.1797 10.4074 34.8151C10.6171 34.3957 10.7316 34.2765 10.7316 34.8151C10.7316 34.959 10.6235 35.5372 10.6235 35.1392C10.6235 34.8165 10.6781 34.457 10.8156 34.1668C11.0127 33.7507 11.596 31.8987 11.596 33.2483C11.596 33.7807 11.5221 34.2979 11.4039 34.8151C11.2546 35.4684 11.478 34.9137 11.7881 34.707C12.3193 34.3529 13.5736 34.1332 13.763 33.4704C13.8613 33.1264 14.0446 33.2235 13.9671 33.5725C13.8846 33.9435 13.4515 34.2196 13.2708 34.5449C12.9987 35.0346 12.6051 35.5257 12.5684 36.1117C12.5666 36.1408 12.6892 35.799 12.8386 35.6795C13.1704 35.414 13.549 35.2049 13.871 34.9231C14.176 34.6563 15.5928 33.6008 14.8615 34.5149C14.6092 34.8303 14.4899 35.259 14.0811 35.4634" stroke="white" stroke-width="3" stroke-linecap="round"/>
<path d="M8.46246 47.5651C8.76591 47.6835 8.95146 47.8068 9.21882 47.6731" stroke="white" stroke-width="3" stroke-linecap="round"/>
<path d="M16.6962 34.0648C16.5181 34.0995 16.3548 34.146 16.2119 34.2572C16.1446 34.3095 16.0834 34.3615 16.0211 34.417C15.9157 34.5107 16.0012 34.4195 16.0374 34.3729C16.0744 34.3254 16.1811 34.2702 16.2412 34.2702C16.3085 34.2702 16.345 34.2149 16.4027 34.2115C16.5024 34.2056 16.7158 34.2193 16.7907 34.1593C16.8582 34.1054 16.8445 34.2687 16.8136 34.2996C16.7898 34.3233 16.7114 34.4063 16.6799 34.4153C16.5797 34.444 16.4388 34.5749 16.388 34.6665C16.2779 34.8647 16.0264 35.066 15.964 35.2845C15.8917 35.5375 15.6796 35.7143 15.5449 35.9432C15.4846 36.0458 15.3635 36.1269 15.2873 36.2221C15.2614 36.2544 14.9712 36.4714 15.0688 36.4993C15.1629 36.5262 15.3048 36.42 15.3167 36.3248C15.3225 36.2783 15.5142 36.1609 15.558 36.1259C15.761 35.9635 15.8489 35.7886 15.9624 35.5617" stroke="white" stroke-linecap="round"/>
<path d="M19.5015 38.556C19.2844 38.398 19.2278 38.3427 19.2278 38.0769C19.2278 37.9534 19.2053 37.7971 19.2836 37.6992C19.4376 37.5067 19.4943 37.2076 19.6485 37.0149C19.7277 36.9159 19.7912 36.8012 19.8868 36.7056C19.9906 36.6019 20.1647 36.4892 20.2417 36.366C20.3069 36.2616 20.4419 36.1779 20.5053 36.0669C20.5521 35.985 20.5735 35.7183 20.6193 35.6816C20.6814 35.6319 20.6468 35.3503 20.6421 35.271C20.6307 35.0765 20.5573 35.3969 20.5484 35.4282C20.4803 35.6662 20.2756 35.8678 20.0718 36.0263C19.9951 36.0861 19.8938 36.2065 19.831 36.2849C19.6994 36.4494 19.7797 36.2759 19.8437 36.1607C19.8879 36.0812 19.9929 35.9024 20.0034 35.8185C20.0118 35.7513 20.0903 35.5241 20.1403 35.4991" stroke="white" stroke-linecap="round"/>
<path d="M10.3766 48.1371C10.5512 48.1371 10.6673 48.1827 10.8329 48.1827C10.9303 48.1827 11.0441 48.0703 11.1269 48.094C11.2777 48.1371 11.0239 48.2945 11.0053 48.3094C10.8796 48.41 10.848 48.1861 10.9039 48.1143C11.1228 47.8327 11.6131 47.8005 11.8366 47.5212C11.8884 47.4565 12.2095 47.2806 12.2929 47.2702C12.4471 47.2509 12.6126 47.013 12.7491 46.9407C13.0685 46.7716 13.3053 46.5131 13.616 46.3577" stroke="white" stroke-linecap="round"/>
<path d="M18.0872 57.8551C18.0366 57.5895 17.9246 57.3863 17.9934 57.1454C18.0301 57.0168 17.957 57.5677 17.8236 57.4343C17.7387 57.3495 18.1526 56.5618 18.2469 56.4864C18.5172 56.2701 18.5493 55.7608 18.84 55.5282C19.0789 55.3371 19.24 54.9168 19.4103 54.6614" stroke="white" stroke-linecap="round"/>
<path d="M19.1366 54.7982C19.0136 54.925 18.9097 55.0486 18.8197 55.1835C18.7529 55.2838 18.8875 54.9504 18.9439 54.8439C19.1288 54.4947 19.0803 55.0881 18.9997 55.2291C18.8826 55.4341 18.6831 55.6144 18.5663 55.8248C18.5063 55.9328 18.2446 56.3495 18.1785 56.3495" stroke="white" stroke-linecap="round"/>
<path d="M33.0064 55.1176C33.1903 55.1176 33.5035 55.1669 33.3055 54.9123C33.2618 54.8562 33.2301 54.7781 33.2345 54.707C33.2375 54.66 33.3162 54.7575 33.3486 54.7755C33.4593 54.837 33.5629 54.8054 33.668 54.8895C33.7602 54.9633 33.7795 55.0916 33.853 55.1861C33.9198 55.272 34.0878 55.4197 34.1014 55.5283C34.1145 55.633 34.2979 55.6428 34.3751 55.6753C34.6391 55.7864 34.9599 55.775 35.1964 55.8933" stroke="white" stroke-linecap="round"/>
<path d="M44.1844 50.7377C44.1844 51.1972 43.7738 51.5289 43.7738 51.9923C43.7738 52.4607 43.6682 52.8396 43.4646 53.247C43.3808 53.4144 43.3259 53.5779 43.2288 53.7235C43.1834 53.7917 43.3054 53.576 43.3201 53.4954C43.3522 53.3187 43.4607 53.1616 43.4975 52.9961C43.5718 52.6616 43.865 52.3032 43.865 51.9695" stroke="white" stroke-linecap="round"/>
<path d="M44.0475 50.7377C44.0475 51.2796 43.8846 51.7105 43.7712 52.2205C43.6931 52.5719 43.6617 52.94 43.5811 53.2926C43.5423 53.4627 43.5326 54.2508 43.3632 54.2508" stroke="white" stroke-linecap="round"/>
<path d="M40.3063 48.4108C40.3063 48.8367 40.3063 49.2625 40.3063 49.6883C40.3063 50.0559 40.3283 50.4486 40.1796 50.7833C40.0591 51.0544 39.8601 51.255 39.7233 51.5133C39.6067 51.7336 39.3283 52.0608 39.0745 52.0608" stroke="white" stroke-linecap="round"/>
<path d="M44.4259 27.3417C44.2398 27.7905 43.9223 28.6115 43.6217 28.9872C43.3872 29.2803 43.2955 30.0276 43.034 30.2368C42.7686 30.4491 42.5492 31.3591 42.533 31.6843C42.5024 32.2964 42.4373 33.4376 42.1432 33.967C41.9453 34.3232 41.8357 35.1018 41.7597 35.5197C41.6553 36.0937 41.199 36.5297 40.9493 37.0291C40.7352 37.4574 40.3117 37.8107 40.2008 38.3096C40.0712 38.8928 40.0047 39.7012 39.9719 40.2582C39.9432 40.7463 37.5597 40.8549 37.1758 40.9263C36.2164 41.1048 35.3211 41.2604 34.3488 41.2604C33.9127 41.2604 33.1796 41.0574 33.1796 41.5944C33.1796 43.9287 33.1796 46.2629 33.1796 48.5971C33.1796 48.7493 33.362 49.3782 33.1796 49.3889C32.8761 49.4068 32.7297 49.2333 32.4558 49.1724C31.4993 48.9599 30.468 49.0549 29.4803 49.0549C27.9297 49.0549 26.4805 49.2776 24.9397 49.2776" stroke="black" stroke-width="3" stroke-linecap="round"/>
<path d="M54.336 42.0398C54.4318 42.6384 54.4474 43.2179 54.4474 43.8214C54.4474 44.1731 54.4474 42.9127 54.4474 42.7327C54.4474 42.4329 54.5275 41.2725 54.4226 42.2254C54.2471 43.8212 53.6812 45.3825 53.1978 46.9021C52.541 48.9672 51.8012 50.9998 51.1069 53.0511C50.6725 54.3345 50.4024 55.7469 49.7954 56.9607C49.7171 57.1174 49.7707 56.682 49.7707 56.639C49.7707 55.5904 49.819 54.5672 50.0181 53.5336C50.3286 51.9221 50.7681 50.2578 51.4162 48.7456C51.8014 47.8467 51.775 48.6533 51.775 49.1662C51.775 49.8985 51.7479 50.6367 51.775 51.3685C51.798 51.9894 53.5839 50.0399 53.6927 49.8962C54.3855 48.981 54.9686 47.8656 55.7836 47.0506C56.2072 46.627 55.9228 48.6501 55.8702 48.8322C55.6767 49.502 55.4629 50.5025 54.9794 51.0344C54.6984 51.3435 54.7814 50.4271 54.7814 50.3168C54.7814 50.1492 54.6588 49.2085 54.8062 49.0796C54.875 49.0194 54.7865 50.1761 54.7814 50.2179C54.6001 51.7161 54.1159 53.0954 53.6308 54.5172C53.5464 54.7646 52.8253 57.27 52.505 57.27C52.3066 57.27 52.5814 55.1657 52.5854 55.1358C53.0195 51.9016 54.0534 48.772 54.9299 45.6401C56.1251 41.3697 57.328 37.0011 57.9487 32.5999C58.0487 31.891 58.6021 30.347 57.5528 31.542C56.1446 33.1458 54.9333 34.928 53.7917 36.726C53.4046 37.3356 52.9884 37.9145 52.6782 38.5694C52.5591 38.8207 52.4846 39.2022 52.2823 39.4046C52.1799 39.5069 52.342 38.6473 52.3503 38.6189C52.5614 37.8934 52.8898 37.1877 53.2782 36.5404C53.3728 36.3827 54.4068 34.6873 54.7134 34.9939C55.084 35.3645 54.8802 37.097 54.868 37.524C54.8159 39.3498 54.3707 41.0865 53.8473 42.8255C53.3511 44.4743 52.8319 46.2605 52.0596 47.8053C51.8392 48.246 51.8863 47.6105 51.8863 47.4527C51.8863 46.3596 52.0734 45.3383 52.3874 44.2916C52.637 43.4597 52.961 42.6532 53.2164 41.8233C53.3448 41.4059 53.3975 40.9364 53.6061 40.549C53.8756 40.0485 53.123 41.5892 53.0555 41.6996C52.5924 42.4574 52.1479 43.7605 51.3976 44.2606C51.202 44.3911 51.2584 41.3071 51.2801 40.9696C51.4093 38.9573 51.7725 36.9628 52.0224 34.9629C52.0255 34.9386 52.1513 34.2881 52.0843 34.2948C51.9096 34.3123 51.647 34.8925 51.577 35.0248C51.505 35.1612 50.8312 36.1732 50.7976 36.0641C50.6749 35.6652 50.7728 35.1104 50.7728 34.6908C50.7728 34.0946 50.6378 35.8857 50.4388 36.4476C50.1975 37.129 50.0391 37.8456 49.6841 38.4766C49.1069 39.5027 50.1333 36.1552 50.5378 35.0495C50.6504 34.7416 51.0604 33.1542 51.4409 33.1319C51.8529 33.1076 51.073 34.8057 51.0203 34.9135C50.7235 35.5209 50.5122 36.3648 50.08 36.893C50.0179 36.9689 50.3498 34.879 50.4388 34.5794C50.9049 33.0108 51.522 31.4666 51.9111 29.878C51.9427 29.7487 52.1646 29.33 52.0843 29.7048C52.0061 30.0695 51.7474 30.3596 51.577 30.6822C51.3954 31.0259 51.1549 31.505 50.8595 31.7709C50.6461 31.9629 50.5933 31.3466 50.5254 31.2637C50.1299 30.7803 49.6205 32.0572 49.381 32.2967C49.1068 32.5709 49.214 32.0348 49.214 31.8451C49.214 31.2905 49.214 30.7358 49.214 30.1811C49.214 29.888 49.3253 29.0157 49.3253 29.3088C49.3253 30.0012 49.0687 30.778 48.7686 31.3997C48.6784 31.5865 48.4345 32.5375 48.4345 32.1173C48.4345 31.535 48.547 30.9398 48.8242 30.4162C49.1257 29.8466 49.3253 29.2602 49.3253 28.6222C49.3253 27.8418 49.0492 26.9049 48.2613 26.6798C47.7001 26.5194 47.7703 26.7394 47.6489 27.286C47.5946 27.5302 47.3448 28.3 47.2097 28.2325" stroke="#FFFAFA" stroke-width="3" stroke-linecap="round"/>
<path d="M47.321 28.6779C47.321 30.5478 47.0851 32.7228 48.5211 34.1587C48.9591 34.5968 49.382 35.0694 49.8202 35.5197C50.5659 36.2861 51.8863 37.5289 51.8863 38.6993" stroke="#FFFAFA" stroke-width="3" stroke-linecap="round"/>
<path d="M50.4388 50.3911C50.4388 49.723 50.4388 49.0549 50.4388 48.3868C50.4388 47.6391 49.7339 48.6447 49.5232 48.8569C48.4279 49.9603 47.3401 51.0867 46.3188 52.2593C46.2758 52.3087 45.5849 53.0624 45.5641 53.0387C45.422 52.8763 46.0557 51.9324 46.1209 51.8139C46.5431 51.0463 46.8526 50.219 47.2962 49.4632C47.3215 49.4201 47.6553 48.8819 47.7416 48.9683C47.8902 49.1168 47.6243 49.5984 47.8901 49.0858C48.2856 48.3231 48.7112 47.588 49.2139 46.8897C49.4989 46.4939 50.2344 46.1195 49.6222 46.8464C48.591 48.071 47.1193 49.3653 45.7435 50.1746C45.2219 50.4814 44.3996 51.2695 43.764 51.2695C43.2321 51.2695 43.7995 50.2755 43.931 50.1189C44.2524 49.7363 44.7007 49.1912 45.1435 48.9497C45.4509 48.782 45.0323 48.9435 44.927 48.9435C44.3753 48.9435 45.0271 46.5521 45.1187 46.2959C45.3515 45.645 45.7094 45.0604 45.9786 44.4277C46.1676 43.9836 46.2859 43.505 46.5415 43.0915C46.9318 42.4601 46.7983 42.9254 46.4921 43.2894C45.7522 44.1689 45.0007 45.0397 44.2527 45.9123C44.1117 46.0768 43.4685 46.6718 43.5351 46.6052C43.804 46.3363 44.1568 46.0543 44.562 46.1845C45.8526 46.5993 46.9712 47.2733 48.3664 47.2733C48.574 47.2733 48.9912 47.2773 48.9912 47.5516C48.9912 48.0787 48.1577 48.2573 47.7726 48.3806C46.4834 48.7931 44.7934 49.2423 43.4237 49.1662C42.9359 49.1391 43.6635 48.2166 43.7331 48.1393C43.8879 47.9672 43.6968 48.105 43.6217 48.3002C43.5097 48.5914 43.2459 48.8309 43.0897 49.1044C42.9878 49.2827 42.9783 48.7335 42.9783 48.6651C42.9783 48.3269 42.945 48.5991 42.8175 48.3806C42.6488 48.0913 42.6279 47.522 42.5391 47.2114C42.5 47.0746 42.5329 46.6423 42.5329 46.7846C42.5329 46.9581 42.4236 47.2328 42.3597 47.397C42.0946 48.0788 41.7353 48.6695 41.4318 49.3271C41.1396 49.9603 40.9973 50.6555 40.7514 51.3066C40.4115 52.2061 40.4173 53.3343 40.4173 54.2883C40.4173 55.116 40.7281 52.6527 41.0297 51.8819C41.171 51.521 41.1611 51.1452 41.3019 50.7932C41.3908 50.5711 41.3081 51.2715 41.3081 51.5107C41.3081 51.8922 41.3081 52.2737 41.3081 52.6552C41.3081 52.8462 41.3947 52.283 41.4442 52.0984C41.6772 51.2292 41.8879 50.3526 42.137 49.4879C42.4504 48.4004 42.8907 47.3341 43.065 46.2093C43.1006 45.9791 43.3468 45.4572 43.0897 45.8505C42.7683 46.342 42.5329 46.4514 42.5329 47.0506C42.5329 48.7482 42.6991 50.4106 42.9783 52.0861C43.0149 52.3055 43.5245 55.8423 43.1392 55.9524C42.6916 56.0803 41.9552 55.7829 41.7102 55.4018C41.5749 55.1913 41.3754 53.9983 41.0854 54.2883C40.9059 54.4678 40.0833 55.595 40.0833 55.4637C40.0833 55.178 39.9986 54.7437 40.1946 54.511C40.4198 54.2435 40.4173 54.3467 40.4173 54.678C40.4173 54.7505 40.2462 55.0536 40.2008 54.8945C40.1235 54.6239 40.1946 54.2408 40.1946 53.9604C40.1946 53.4591 39.6758 53.3249 39.4152 53.781C39.3367 53.9183 39.1925 54.0133 39.1925 53.7872C39.1925 53.3968 38.9192 53.985 38.8584 54.0718C38.7198 54.2698 37.7635 56.1135 37.7449 55.6492C37.7298 55.2707 37.7659 54.8892 37.7449 54.511C37.7105 53.8925 37.0594 55.397 36.9655 55.5379C36.4943 56.2446 36.6314 55.6129 36.6314 55.0678C36.6314 54.678 36.6314 54.2883 36.6314 53.8986C36.6314 53.3594 36.8828 53.4802 36.4644 53.8986C36.1504 54.2126 35.8879 54.177 35.4622 54.177C34.8742 54.177 35.0319 53.7168 35.3014 53.3295C36.0795 52.211 37.0144 51.3386 38.1656 50.6138C38.9525 50.1183 39.7492 50.7186 39.7492 51.5602C39.7492 52.3693 37.9566 53.1952 37.3799 53.5522C36.7871 53.9192 36.0298 54.511 35.2952 54.511C34.8805 54.511 33.3559 54.3842 34.0951 53.645C34.3158 53.4242 34.4945 53.124 34.6519 52.8408C34.741 52.6803 34.9188 52.4996 35.0478 52.3706C35.2295 52.1889 35.186 52.5249 35.023 52.6181C34.8535 52.7149 34.7857 52.7294 34.5714 52.7294C34.3834 52.7294 34.382 52.9028 34.2312 52.9459C33.9691 53.0208 33.5405 53.2715 33.2909 53.2862C32.479 53.3339 31.6484 53.2862 30.835 53.2862C29.859 53.2862 28.8804 53.3975 27.8905 53.3975C27.377 53.3975 26.1949 53.3995 25.8057 53.0882C25.3277 52.7058 24.2981 53.3749 23.8262 52.7851C23.7226 52.6556 23.4746 52.7642 23.3313 52.7232C23.1783 52.6795 23.2002 52.4312 23.0962 52.4015C22.9088 52.348 22.5874 52.0334 22.49 51.8386" stroke="#FFFAFA" stroke-width="3" stroke-linecap="round"/>
<path d="M23.8262 52.3954C24.9694 52.1723 25.9988 52.6181 27.1667 52.6181C28.1986 52.6181 29.1838 52.7294 30.2288 52.7294C31.1274 52.7294 31.9937 52.1727 32.9012 52.1727C33.4143 52.1727 33.8385 52.1767 34.2931 51.9747C34.7641 51.7654 35.8309 52.0264 34.9611 51.5046" stroke="#FFFAFA" stroke-width="3" stroke-linecap="round"/>
<path d="M36.2974 49.2776C36.2801 49.2772 35.0802 49.1056 35.5736 49.5003C35.702 49.603 35.6293 50.013 35.6293 50.1684C35.6293 51.0753 35.313 50.7494 34.6024 51.1705C34.14 51.4445 33.7512 51.6333 33.2909 51.8634C32.809 52.1044 32.5017 52.5141 32.0661 52.8408" stroke="#FFFAFA" stroke-width="3" stroke-linecap="round"/>
<path d="M19.3722 30.2368C19.3064 30.3916 18.8937 31.0485 19.0444 30.5213C19.0715 30.4263 19.0849 30.6354 18.9268 30.7935C18.5199 31.2004 18.0241 31.4736 17.6154 31.8823C17.3255 32.1721 17.0798 32.4337 16.8978 32.7978C16.7129 33.1675 16.579 33.2644 16.7864 32.7978C17.4229 31.3658 19.2071 30.5708 20.7084 30.5708C21.0687 30.5708 21.3657 30.7529 21.7106 30.7935C22.2337 30.855 21.5592 31.0055 21.3765 31.0162C20.7891 31.0508 19.9998 31.5167 19.4836 31.8204C19.1806 31.9986 18.7632 32.2828 18.5062 32.4885C18.2906 32.661 17.867 32.5884 17.5906 32.7112C17.3206 32.8312 16.8838 32.9858 16.5885 33.0205C16.3387 33.0499 16.0652 33.3805 15.809 33.4659" stroke="#FFFAFA" stroke-width="3" stroke-linecap="round"/>
</svg>
