<svg width="422" height="73" viewBox="0 0 422 73" fill="none" xmlns="http://www.w3.org/2000/svg">
<path d="M7.66186 23.1765C9.86545 23.1765 16.4762 23.1765 14.2726 23.1765C11.2954 23.1765 8.39618 21.1421 5.47619 20.9072C4.71845 20.8463 4.71928 20.2285 5.08205 19.7726C5.43546 19.3285 7.14931 19.6105 7.66186 19.6105C8.55399 19.6105 12.8018 18.6133 12.1765 17.8276C11.4554 16.9213 12.0421 17.6219 12.8215 17.6655C14.2683 17.7463 13.0156 18.1521 12.1049 17.2692C11.5008 16.6836 6.63117 12.8028 8.46806 12.8028C10.4209 12.8028 11.7039 13.1338 13.0723 11.7582C13.2088 11.621 13.4608 12.1295 13.6277 12.3345C14.1553 12.9828 14.7316 13.4477 15.3296 14.0275C16.3558 15.0222 17.3031 16.0298 18.6261 16.6209C19.4875 17.0058 19.4498 12.0574 19.5756 11.362C19.82 10.0107 19.2846 11.3757 19.6652 11.7582C20.5214 12.619 22.85 11.0554 23.4632 10.6056C23.6229 10.4884 25.865 8.52953 26.0251 9.09277C26.3256 10.15 26.3093 11.1048 26.8313 12.1544C27.2048 12.9055 27.3058 13.6914 28.4616 13.4331C28.9595 13.3219 28.86 12.7436 29.2678 12.5507C29.5752 12.4052 30.0434 12.8028 30.3965 12.8028C31.8124 12.8028 32.9817 12.8679 34.1049 11.8303C34.4145 11.5443 37.1659 8.93836 37.5805 9.30889C38.0286 9.70925 37.3446 10.9574 37.7239 11.4341C38.3492 12.2198 38.9001 12.8028 39.9812 12.8028C42.1349 12.8028 43.4261 11.6454 44.8721 10.0653C45.0895 9.82772 47.3265 6.75366 47.3265 8.10223C47.3265 11.6455 49.673 8.84333 50.7125 6.98562C51.6806 5.25543 51.8412 6.17146 51.8412 7.61596C51.8412 10.3473 51.5588 13.2592 51.9128 15.9725C52.0943 17.3634 52.4087 18.6431 53.6148 17.1612C54.4325 16.1565 55.3545 15.0812 56.4992 14.4237C58.083 13.5139 59.2543 15.082 60.8705 14.6758C63.0028 14.1399 64.1957 11.785 65.636 10.2814C65.9684 9.93445 66.6751 8.16083 66.6751 9.56103C66.6751 11.2379 66.6624 13.099 68.1262 14.2436C68.9207 14.8648 69.1911 13.3804 69.2549 12.8028C69.4703 10.8543 70.9157 12.9109 71.5839 13.4512C74.0817 15.4709 77.0022 17.4461 79.2158 19.7726C79.4482 20.0168 81.6982 22.3317 81.8136 21.5196C82.0836 19.6195 81.8315 17.5139 81.8315 15.5943C81.8315 14.5788 81.2785 14.3695 81.9927 14.928C85.126 17.3778 86.3115 14.151 86.7403 10.8938C86.9017 9.6681 86.6746 8.00026 87.009 6.82353C87.0382 6.72085 88.6272 11.0259 88.9081 11.6142C89.6778 13.2261 90.3167 14.9495 90.9325 16.6209C91.5511 18.3 92.6171 15.994 93.0465 15.3962C94.9227 12.7847 95.6938 10.5991 98.6719 13.3791C99.3062 13.9712 100.775 14.8555 101.664 15.054C102.355 15.2084 102.536 13.8481 103.276 14.2616C106.003 15.7845 107.448 14.8024 107.648 11.6862C107.683 11.1282 107.952 9.21661 107.952 9.23685C107.952 10.348 108.19 11.7865 108.669 12.8028C109.421 14.4002 109.242 12.7562 109.242 11.8303C109.242 10.9658 109.242 8.37238 109.242 9.23685" stroke="black" stroke-linecap="round"/>
<path d="M108.919 13.7754C111.588 13.7754 112.877 13.8514 114.706 11.6682C115.63 10.565 116.247 9.22087 117.143 8.1203C117.479 7.70648 118.271 6.29465 118.271 7.61603C118.271 10.2076 118.1 13.2059 119.4 15.5584C120.443 17.4457 123.969 14.8018 125.043 14.2617C126.632 13.463 127.996 12.2653 129.558 11.4341C129.769 11.322 130.822 10.4419 130.848 10.8578C130.903 11.7493 130.707 12.7155 130.866 13.5953C131.428 16.7036 135.058 12.132 135.613 11.254C135.793 10.971 137.905 8.41368 137.924 8.46249C138.143 9.01265 137.91 9.94067 137.942 10.5336C137.992 11.4286 140.2 13.4754 140.2 11.6682C140.2 10.4551 146.981 14.4648 147.939 15.0001C149.124 15.6619 148.584 12.2147 148.584 11.2C148.584 10.7899 148.396 9.17047 148.727 9.63313C149.998 11.4069 152.29 12.7648 154.084 13.9375C154.692 14.335 156.228 15.0327 156.646 15.5584C157.033 16.0441 157.284 13.041 157.291 12.7308C157.316 11.5668 157.545 10.403 157.613 9.23691C157.676 8.16038 159.396 9.90855 159.566 10.0474C160.218 10.5796 165.031 14.5036 165.926 13.7034C166.905 12.8289 164.09 9.97394 166.07 11.182C168.001 12.3607 170.544 13.127 172.788 13.127C175.498 13.127 176.268 10.1144 177.858 8.51652C178.352 8.02005 178.543 9.37975 178.574 9.81323C178.652 10.8631 179.621 11.6212 179.846 12.6408C180.455 15.3942 180.169 18.5618 178.718 21.2135C178.195 22.1696 177.607 23.0638 177.607 21.5376C177.607 19.962 178.376 18.7327 179.219 17.4134C180.569 15.3034 182.72 13.9771 184.684 12.4967C185.654 11.7648 187.82 10.5133 188.965 11.4341C189.811 12.1146 190.184 11.1378 190.184 10.5156C190.184 9.62112 190.184 6.93765 190.184 7.83214C190.184 10.9511 190.447 14.2045 189.789 17.2693C189.441 18.8938 189.002 20.5266 188.571 22.132C188.442 22.6118 188.448 23.9127 188.088 24.2751C184.797 27.5834 192.926 16.1948 196.132 12.8029C197.24 11.6294 197.505 10.9508 197.941 9.41701C198.016 9.15436 198.896 9.52066 199.105 9.50706C201.366 9.36044 204.066 7.76405 206.164 6.96767C209.831 5.5756 213.252 3.68796 216.591 1.63675C222.796 -2.17527 206.479 12.1749 200.969 16.9451C199.239 18.4422 196.904 20.1332 200.682 17.8816C205.641 14.9261 210.701 11.4179 214.477 7.00369C215.544 5.7568 217.594 3.77694 217.594 1.94292C217.594 1.33402 217.594 4.4528 217.594 5.02261C217.594 5.979 215.712 11.182 217.272 11.182" stroke="black" stroke-linecap="round"/>
<path d="M217.272 11.5061C219.733 13.9803 222.499 16.2586 225.62 17.8275C226.582 18.311 227.591 19.2906 227.591 17.6654C227.591 17.0459 227.836 15.8225 228.075 15.1981C228.885 13.0812 228.904 10.4273 230.009 8.42639C230.469 7.59541 229.83 9.88541 229.848 10.2094C229.919 11.4847 232.499 12.6943 233.467 13.0549C237.812 14.6725 240.324 9.07942 242.908 6.48132C243.285 6.10235 243.302 5.57931 243.41 6.17516C243.548 6.93487 243.711 7.89404 244.037 8.58848C244.633 9.85737 245.591 11.7992 247.101 12.1364C249.13 12.5897 251.507 7.88699 252.744 6.64341C254.735 4.64233 255.507 10.2852 257.438 10.8397C257.811 10.9469 258.323 10.8577 258.71 10.8577C259.028 10.8577 259.194 9.70906 259.194 10.0293C259.194 11.0618 259.194 12.0944 259.194 13.127" stroke="black" stroke-linecap="round"/>
<path d="M258.549 13.127C259.85 13.6831 261.17 14.3213 262.168 15.3242C263 16.1612 263.472 13.7749 264.102 13.199C265.402 12.011 267.129 10.865 268.474 9.81316C268.636 9.68669 267.901 12.1169 267.901 12.4786C267.901 13.0548 267.539 16.0446 268.545 16.0446C269.252 16.0446 270.206 14.242 270.803 13.7753C272.276 12.6238 273.767 11.469 275.389 10.5336C276.139 10.1011 280.8 7.12804 280.8 8.58849C280.8 9.62624 280.157 10.785 280.495 11.9743C280.959 13.6085 287.275 13.7166 287.894 12.3165C288.471 11.0116 288.539 10.2439 288.539 8.75058C288.539 8.11665 288.217 5.05826 288.217 6.96761C288.217 9.73886 290.047 11.1554 291.764 13.199C292.364 13.9135 295.107 17.8022 295.884 16.0446C296.173 15.391 296.057 14.462 296.296 13.7393C296.908 11.8957 297.804 10.1346 298.536 8.33635C298.663 8.02403 299.503 5.61047 299.503 6.48134C299.503 7.19182 299.5 7.54707 299.826 8.12024C300.672 9.60944 301.874 11.2524 303.212 12.2985C304.148 13.0305 307.638 12.5926 308.353 11.6682C309.209 10.5629 308.6 9.33488 308.873 8.10223C308.991 7.56698 309.5 4.6083 309.5 6.15716C309.5 10.1905 316.066 12.9554 319.192 13.9374C321.544 14.6762 321.609 14.2644 322.865 12.6407C323.682 11.5847 324.151 10.398 324.728 9.23685C325.497 7.69107 324.979 9.98443 324.979 10.9298C324.979 11.9647 325.218 14.4212 326.914 13.7033C332.197 11.467 338.147 10.9237 343.038 7.61596C343.969 6.98612 345.161 5.99842 345.599 4.89647C345.795 4.40594 345.617 5.95302 345.617 6.48134C345.617 8.22268 344.972 9.923 344.972 11.6502C344.972 12.0478 344.483 13.1121 344.722 13.3791C345.115 13.8184 345.5 13.9735 345.635 14.5858C345.687 14.8207 346.262 15.9217 346.262 15.3242C346.262 14.1055 346.262 12.8868 346.262 11.6682C346.262 9.34491 346.262 7.02164 346.262 4.69836" stroke="black" stroke-linecap="round"/>
<path d="M346.585 15.0719C348.11 14.7509 352.712 13.6668 352.712 11.5059C352.712 10.8035 352.712 10.1011 352.712 9.39876C352.712 8.00144 353.116 9.5881 353.375 10.0651C354.22 11.6235 356.917 13.0234 358.445 13.7031C359.794 14.3036 361.591 15.8741 363.031 16.0444C364.119 16.1731 364.279 14.9849 365.109 13.7932C366.332 12.0375 367.666 11.0337 369.319 9.74094C370.605 8.73556 369.773 12.8751 369.803 13.451C369.897 15.2431 373.724 15.6484 374.837 14.8738C376.668 13.5998 378.319 11.9506 380.051 10.5334C380.078 10.5109 382.697 8.61001 382.308 9.56085C381.62 11.2391 379.938 12.6459 382.541 13.451C383.526 13.7559 387.187 13.7836 384.314 14.5856C383.321 14.8631 382.127 15.1414 381.09 15.0719C377.84 14.8541 387.393 13.4167 390.513 12.4784C393.305 11.639 396.681 11.4683 399.274 10.0651C400.393 9.45908 399.587 10.2655 398.987 10.5334C397.406 11.2397 396.133 12.1234 394.884 13.3789C394.404 13.8616 395.939 13.451 396.551 13.451C398.164 13.451 399.614 13.5887 401.101 14.2614C402.446 14.8697 403.97 14.8848 405.275 15.4681C407.065 16.2677 405.019 15.085 404.308 14.7477C403.183 14.2135 402.03 13.9078 400.922 13.2889C400.225 12.8997 400.399 12.1339 399.972 11.8481C399.307 11.4019 401.573 11.8301 402.373 11.8301C404.406 11.8301 405.97 12.1033 407.927 12.5505C408.692 12.7254 413.082 14.0542 411.259 15.4681C408.073 17.9388 404.227 19.6589 400.94 21.8616C399.877 22.5742 403.496 21.8796 404.774 21.8796C405.5 21.8796 407.822 21.464 408.429 21.9516C409.305 22.6564 407.882 22.7559 407.372 23.0322C406.145 23.6961 404.937 24.0592 403.842 24.9593C402.796 25.8195 403.532 26.5836 404.38 27.1385C405.902 28.1349 407.744 30.0484 408.823 31.5329C409.306 32.1982 409.702 32.8052 409.45 33.6941C409.275 34.3076 403.808 33.8741 403.036 33.8741C402.658 33.8741 399.961 33.6618 400.438 34.1983C402.079 36.042 403.733 37.8276 405.67 39.3852C407.5 40.857 409.018 41.4999 408.518 43.7616C408.216 45.1264 408.021 47.0353 406.547 47.1834C404.833 47.3558 403.215 47.4896 401.477 47.4896C400.282 47.4896 400.012 47.3936 401.334 47.8858C402.984 48.5001 407.059 51.0897 407.551 52.8205C408.166 54.9871 408.095 57.7534 406.959 59.8083C406.32 60.9659 406.424 60.5456 406.225 59.6463C406.091 59.0396 403.981 58.059 403.52 57.7192C403.101 57.4102 401.301 56.6009 401.334 56.6386C401.806 57.1728 401.927 57.9194 402.445 58.4396C403.595 59.5956 403.663 57.4364 403.663 56.4045C403.663 55.9039 402.701 55.3304 403.09 55.0177C403.803 54.4439 406.416 55.0338 407.21 55.1078C409.743 55.3435 412.21 55.9276 414.735 56.1704C416.212 56.3124 417.61 56.6055 419.07 56.8187C419.199 56.8375 421.094 56.8742 421.023 57.0528C420.828 57.5427 415.003 58.3581 414.376 58.5116C411.27 59.2733 407.537 60.7127 404.451 59.8264C403.75 59.6248 402.784 59.8083 402.051 59.8083C401.525 59.8083 401.559 59.8281 401.388 60.2586C401.346 60.3635 400.558 58.9572 400.438 58.7638C399.788 57.7106 399.432 56.5158 398.826 55.45C398.453 54.7937 396.568 59.1772 396.407 59.4662C395.643 60.8414 395.024 62.9105 394.06 64.0947C393.413 64.8902 393.655 63.4929 393.415 62.798C392.804 61.0229 391.448 60.1325 389.635 60.1325C388.476 60.1325 388.325 60.227 387.539 61.1051C386.289 62.5011 385.311 63.619 383.741 64.671C380.549 66.81 378.725 62.9427 376.736 60.943C375.704 59.9057 375.978 61.0277 375.285 61.1051C373.893 61.2605 372.519 61.6298 371.111 61.7714C370.185 61.8644 368.873 61.787 368.836 62.798C368.792 63.9765 367.823 66.175 367.223 67.1924C366.923 67.7016 366.457 68.6611 366.094 67.7147C365.164 65.2833 364.671 62.643 363.694 60.1865C363.285 59.1597 361.389 52.9106 360.129 55.594C358.681 58.6761 357.055 61.5518 355.238 64.4369C353.937 66.5014 352.619 68.5538 351.314 70.6143C350.905 71.2615 350.297 71.3958 349.827 71.947C349.243 72.6321 344.305 66.4611 343.682 65.5715C343.208 64.8942 342.364 64.0462 341.586 63.6985C341.359 63.5969 340.241 62.2007 340.153 62.5999C339.923 63.6416 339.813 64.8912 339.813 65.9677C339.813 67.312 338.965 63.2202 338.845 62.798C338.394 61.2111 337.872 59.4737 337.072 58.0254C336.421 56.8477 336.188 59.1928 336.015 59.7363C335.41 61.6258 335.09 62.7259 332.897 62.7259C331.474 62.7259 330.631 62.361 329.816 61.1771C329.578 60.8319 327.953 58.884 327.559 59.3041C327.019 59.8783 327.083 61.3481 326.914 62.0776C326.526 63.7514 326.262 65.4505 325.785 67.1023C325.554 67.9018 324.662 72.1517 324.011 69.3716C323.483 67.1128 322.792 64.9253 322.076 62.7259C321.75 61.721 321.507 60.3522 320.715 59.5562C318.579 57.4089 318.076 61.5072 317.418 62.5458C317.069 63.0977 316.751 63.8872 316.2 64.2748C315.829 64.536 313.931 61.9821 313.62 61.6814C312.878 60.9616 312.004 60.1325 310.951 60.1325C309.967 60.1325 310.847 61.3183 310.306 61.7534C308.846 62.9279 307.044 61.1051 305.487 61.1051C304.184 61.1051 305.19 61.8775 304.34 62.3297C303.642 62.7014 302.682 61.9823 302.083 61.6814C300.961 61.1175 300.095 60.7809 298.858 60.7809C297.399 60.7809 296.33 63.4641 295.813 64.653C295.668 64.9861 295.159 66.9961 294.738 65.8957C294.025 64.0327 293.401 62.24 292.48 60.4567C292.16 59.837 291.046 57.259 290.008 57.5571C289.511 57.7 289.829 60.569 289.829 61.1051C289.829 63.7303 288.115 60.4116 286.926 59.8804C285.208 59.1126 285.408 62.4018 283.863 62.4018C281.318 62.4018 278.502 61.2064 275.962 60.7809" stroke="black" stroke-linecap="round"/>
<path d="M274.672 60.7811C274.228 60.4529 268.812 56.1949 268.563 57.0711C268.082 58.7654 268.545 61.315 268.545 63.0504C268.545 63.7086 268.233 64.0229 267.578 64.0229C266.295 64.0229 266.032 62.6886 265.464 61.7537C263.948 59.2603 261.439 58.1877 258.71 58.1877C257.97 58.1877 257.068 60.2055 256.596 60.7991C255.215 62.5349 254.171 64.5261 252.816 66.2921C250.898 68.7908 251.238 67.2512 250.003 65.3196C249.637 64.7471 246.617 61.6967 246.617 63.6987C246.617 64.8217 245.759 62.5534 245.47 62.0778C244.693 60.7985 243.392 59.9611 242.174 59.1602C240.057 57.7689 241.888 61.5233 240.938 61.7356C238.277 62.3301 235.245 60.1465 233.145 58.8361C232.805 58.624 231.171 57.4269 231.138 58.2597C231.107 59.0431 231.138 59.8348 231.138 60.619C231.138 61.1232 231.566 62.5077 230.493 61.4295C229.795 60.7275 229.701 59.4778 229.024 58.674C223.961 52.6582 226.868 65.6067 224.366 64.275C223.819 63.984 223.419 62.8462 223.076 62.33C222.175 60.9713 220.842 59.6274 219.529 58.674C218.526 57.9461 217.945 57.1372 216.627 57.2152C215.958 57.2547 216.314 60.0433 216.286 60.493C216.155 62.5988 215.562 64.9375 214.871 66.9225C214.807 67.1059 214.65 69.6719 213.796 68.8135C213.47 68.4857 213.196 67.056 213.008 66.5443C212.383 64.8495 211.812 63.1246 211.145 61.4475C210.584 60.0391 209.521 58.2664 208.26 57.3953C207.72 57.022 206.427 56.3929 206.307 57.5394C205.972 60.7441 205.42 64.8593 203.728 67.6609C202.226 70.1479 201.7 67.263 200.664 65.6438C199.876 64.4113 197.985 62.303 196.311 62.402C195.428 62.4542 196.413 65.829 195.809 66.4362C195.167 67.0821 194.032 64.1548 193.802 63.7708C192.851 62.1773 192.143 61.442 190.506 60.619C188.087 59.4034 186.959 60.3459 186.959 62.7982C186.959 64.7044 186.139 67.7181 183.895 68.2192C183.147 68.3864 182.343 66.9295 181.943 66.4542C180.651 64.9202 179.374 63.8289 177.679 62.7982C177.25 62.5379 175.35 61.2078 175.35 62.2399C175.35 62.6536 175.583 63.99 175.027 64.0229C174.034 64.0817 173.94 63.4884 173.092 63.0504C171.032 61.9854 168.8 61.7537 166.499 61.7537C164.324 61.7537 162.106 62.1005 160.516 63.6987C160.214 64.0019 159.809 65.5921 159.692 65.6258C158.678 65.917 156.202 60.9712 155.105 60.2768C152.958 58.9179 152.776 60.7414 152.776 62.402" stroke="black" stroke-linecap="round"/>
<path d="M150.519 60.781C148.816 60.1871 147.627 59.3627 146.255 58.2597C145.986 58.0431 146.004 60.396 146.004 60.601C146.004 63.3702 145.954 66.3036 143.998 68.4893C142.514 70.1461 141.734 65.4545 141.167 64.5991C140.679 63.8631 137.208 59.6648 136.33 61.4294" stroke="black" stroke-linecap="round"/>
<path d="M148.262 60.4568C149.644 61.2507 151.838 62.4019 153.421 62.4019" stroke="black" stroke-linecap="round"/>
<path d="M136.653 62.0777C135.419 61.8358 132.251 61.1831 131.35 60.2767C129.623 58.5408 129.881 60.7142 129.881 62.2398C129.881 63.4575 130.348 65.9064 129.486 66.8683C128.668 67.7819 128.63 65.7463 128.573 65.1394C128.384 63.1437 127.266 60.6471 126.011 59.0881C125.377 58.3012 120.851 54.1222 120.851 57.3771C120.851 58.1876 120.851 58.998 120.851 59.8085C120.851 61.8253 118.968 63.5505 117.788 64.9953C116.695 66.3324 115.106 68.2115 113.291 68.5432C111.685 68.8367 111.556 64.8143 111.32 63.8067C111.275 63.615 110.384 60.0873 109.887 60.9611C109.427 61.7701 109.839 62.5923 109.493 63.3744C108.996 64.497 107.793 67.5186 106.483 67.8949C105.502 68.1767 105.222 62.5672 103.581 62.0957C101.551 61.5126 99.6809 63.3849 99.5677 65.3195C99.5481 65.6553 98.9522 62.3224 98.7436 61.5734C98.1475 59.4333 97.4161 58.1876 95.1247 58.1876C91.813 58.1876 91.1156 61.5405 89.5888 63.8427C88.9208 64.8501 89.1326 61.3129 88.281 60.4568C86.8795 59.0479 83.8587 59.7516 82.6377 60.9791C80.7393 62.8875 78.8907 66.0678 76.4927 67.3366C75.6217 67.7974 76.0269 64.152 76.0269 63.3924C76.0269 57.6802 68.4954 66.1466 67.5171 67.8949C66.64 69.4624 66.9976 65.9939 66.9976 65.3375C66.9976 63.1764 66.0672 62.3561 63.7728 63.4465C61.8007 64.3836 60.21 65.8169 58.4699 67.0664C57.5142 67.7526 59.7598 64.9512 59.7598 63.7706C59.7598 63.0717 57.6129 65.5514 57.3949 65.9678C56.2882 68.0817 57.3614 63.5076 57.4666 62.8882C57.5586 62.3464 58.5359 57.215 57.6457 57.215C56.5956 57.215 55.9233 59.4664 55.693 60.2767C55.4703 61.0601 54.1592 60.7452 53.5969 60.799C51.9314 60.9585 50.2678 61.9635 48.6881 62.4739C46.2243 63.27 44.9326 60.8828 42.7402 60.2047C41.5966 59.851 40.9119 60.3362 40.232 61.1052C39.8743 61.5097 39.9095 63.2248 39.9095 62.564C39.9095 61.6198 40.5047 60.7089 40.5545 59.8085C40.6727 57.6688 39.6542 60.6476 39.4258 61.2853C38.7553 63.1577 38.0785 65.0324 37.491 66.9224C37.2189 67.7976 37.0072 68.586 37.0072 67.1925C37.0072 65.8414 38.7095 61.7609 37.5805 60.853C36.6933 60.1395 36.2541 61.9584 36.0398 62.4019C35.4423 63.6386 34.7625 64.631 34.1049 65.7877C33.4741 66.8975 29.8855 66.292 28.802 66.292C27.2289 66.292 28.3832 61.2233 28.3004 59.8085C28.0782 56.0124 25.2764 66.8172 24.359 70.5063C24.0506 71.7464 23.8144 71.9197 23.302 70.9926C22.6464 69.8063 21.9228 68.6986 21.1342 67.5887C20.0852 66.1123 19.529 64.2223 18.7873 62.582C18.5713 62.1042 18.492 60.5114 18.9485 61.4294" stroke="black" stroke-linecap="round"/>
<path d="M19.5934 59.8086C17.9949 59.8086 15.9927 60.1542 15.1504 61.7536C14.9054 62.2188 14.5692 63.1735 13.9321 63.3565C12.5977 63.7398 9.33152 68.2185 8.14546 67.2646C7.5471 66.7834 7.30791 62.2504 7.85881 61.5735C9.25202 59.8617 10.6557 58.1805 12.1764 56.5668C12.5583 56.1615 12.5189 55.8835 13.1438 55.9184C13.8797 55.9595 13.5423 56.7507 13.968 56.8729C14.9241 57.1476 16.4928 56.891 14.2546 56.891C11.3212 56.891 8.62177 56.0682 5.9777 54.9459C4.32765 54.2455 2.9236 53.0451 1.37345 52.3525C0.0337639 51.7539 2.69471 51.4045 3.14707 51.3799C5.57629 51.2479 8.57001 50.3455 10.8865 49.597C12.1398 49.192 15.0047 49.041 15.9745 48.0661C16.3038 47.735 13.0291 47.0632 12.8393 47.0035C11.3119 46.5237 9.79866 45.9012 8.3067 45.4727C7.51093 45.2442 5.40441 44 5.40441 42.9513C5.40441 42.2426 9.41026 41.2243 9.937 41.0063C12.3198 40.0199 15.4091 38.0518 17.981 37.7645C19.4482 37.6006 15.6077 37.3558 15.222 37.2782C13.061 36.8437 10.8719 36.5284 8.70084 36.0716C7.92784 35.9089 5.15223 35.3578 4.75946 34.6668C3.95679 33.2547 5.63312 33.1111 6.69432 32.5777C8.29103 31.7751 10.2901 30.7118 12.0152 30.3264C12.9728 30.1125 13.4499 30.3216 14.2725 29.6601C14.6362 29.3676 16.3295 28.1224 14.7562 28.0392C12.284 27.9084 9.73803 27.849 7.33927 27.715C4.15339 27.5371 7.0761 25.6089 7.98422 24.7974C8.8457 24.0276 10.2877 24.0103 11.3702 23.8429C12.531 23.6634 13.936 23.1765 15.0787 23.1765" stroke="black" stroke-linecap="round"/>
</svg>
