<svg width="68" height="68" viewBox="0 0 68 68" fill="none" xmlns="http://www.w3.org/2000/svg">
<path d="M20.0322 41.4586C18.412 45.2708 16.0498 47.0084 13.1376 49.3381C10.3709 51.5515 7.9598 50.173 4.9298 49.9948C2.90314 49.8756 0.930262 56.6847 2.66809 57.1812C4.07419 57.5829 6.09175 57.2177 7.55631 57.2177C10.2821 57.2177 8.26331 57.4591 7.0456 58.6768C5.31369 60.4088 6.3466 65.0972 9.19788 65.0972C11.1306 65.0972 16.7491 63.9601 16.7491 61.8141C16.7491 58.9676 14.3406 56.124 17.0774 53.9345C19.2762 52.1755 20.6366 48.0249 23.972 48.0249" stroke="black" stroke-width="3" stroke-linecap="round"/>
<path d="M6.89966 32.2659C12.7539 31.1236 17.4687 25.043 23.3153 25.043C29.0061 25.043 34.6969 25.043 40.3876 25.043C43.0659 25.043 45.0018 25.7306 47.2457 27.0128C48.1465 27.5276 49.226 31.987 50.0911 33.0684C50.928 34.1145 51.2801 37.7806 51.5868 39.1604C52.0712 41.3404 53.3983 43.983 53.5202 46.055C53.6671 48.5524 53.5202 51.104 53.5202 53.6062C53.5202 56.3795 51.3515 56.0635 49.7263 57.3636C46.3139 60.0936 42.953 61.5494 39.0744 63.2733C35.5857 64.8238 28.7405 65.5612 25.7959 62.6166C24.4023 61.223 23.4202 59.5974 21.6738 58.2391C20.8551 57.6024 19.6275 56.8962 18.7189 56.4151C17.1243 55.5709 17.6693 54.6584 16.7491 53.2779" stroke="black" stroke-width="3" stroke-linecap="round"/>
<path d="M6.24303 32.9225C6.24303 35.6906 5.10843 42.831 6.89966 45.0701C8.76738 47.4047 12.61 46.313 14.1226 49.3382" stroke="black" stroke-width="3" stroke-linecap="round"/>
<path d="M38.4178 23.0731C42.437 22.1688 42.4201 19.4772 45.3124 17.1635C46.0959 16.5367 46.9838 15.6488 47.6106 14.8653C48.0561 14.3083 50.0801 13.2237 49.5804 13.2237" stroke="black" stroke-width="3" stroke-linecap="round"/>
<path d="M44.3274 25.0429C48.6931 21.8679 50.6846 15.4878 56.4385 13.8438C57.9071 13.4242 55.2267 14.6024 57.1681 15.1571C58.7447 15.6075 60.389 14.9525 61.728 14.2086C63.0463 13.4762 64.5662 13.2673 65.6313 12.2022C66.4452 11.3883 66.3007 8.29369 65.0111 8.00712C63.5229 7.67641 62.2975 6.65739 60.7431 6.65739C58.0421 6.65739 59.1244 5.86703 60.5972 4.54159C64.1057 1.38389 60.6689 2.061 57.4599 2.061C54.9765 2.061 52.9704 3.59392 51.6962 6.00076C51.1296 7.07107 50.4321 8.54755 49.7263 9.42981C49.1407 10.1619 50.8937 11.6132 50.8937 12.567" stroke="black" stroke-width="3" stroke-linecap="round"/>
<path d="M34.3226 64.4922C34.3226 63.5057 34.3226 62.5192 34.3226 61.5327C34.3226 60.8595 34.4826 60.2728 34.4826 59.6131C34.4826 58.9496 34.5247 58.2156 34.5626 57.5334C34.5847 57.1349 34.6426 56.7192 34.6426 56.2981C34.6426 56.0206 34.7085 55.4654 34.8203 55.2139C34.9592 54.9014 34.9215 54.5038 35.0825 54.214C35.2484 53.9155 35.5666 54.0141 35.9223 54.0141C36.7305 54.0141 37.5742 54.174 38.4019 54.174C38.9485 54.174 39.495 54.174 40.0416 54.174C40.1632 54.174 40.396 54.2239 40.5171 54.2585C40.5526 54.2686 40.8194 53.82 40.8815 53.6764C41.0311 53.3298 41.3175 53.0151 41.4236 52.6543C41.4796 52.4638 41.5593 52.224 41.7213 52.0944C41.9458 51.9148 42.1612 51.7662 42.1612 51.4545" stroke="black" stroke-width="3" stroke-linecap="round"/>
<path d="M42.0813 51.3745C42.0813 50.9056 41.8847 49.6808 42.1213 49.2549C42.3761 48.7962 42.1879 48.1911 42.4412 47.7351C42.5888 47.4696 43.2026 47.7169 43.441 47.7574C44.1532 47.8783 44.8793 47.9478 45.5962 48.0195C46.2368 48.0836 46.8962 48.2424 47.4848 48.4106C48.6684 48.7488 49.7737 49.1089 51.0219 49.3926C51.6422 49.5336 52.2319 49.9047 52.7994 50.1569C53.0133 50.252 54.3308 50.7113 54.3991 50.5746" stroke="black" stroke-width="3" stroke-linecap="round"/>
<path d="M52.9593 54.5739C52.9593 55.2592 52.9902 55.7405 52.3194 56.0759C51.842 56.3146 51.2776 56.5311 50.8974 56.9113C50.6733 57.1354 49.95 57.6944 50.4797 57.1335C50.8175 56.7759 51.1312 56.402 51.4796 56.0537C51.8905 55.6427 52.451 55.1698 52.9593 54.8939C53.1031 54.8158 53.5934 54.6412 53.6792 54.5339C53.7464 54.4499 53.911 54.5526 53.9191 54.414C53.9268 54.2838 53.9268 54.1442 53.9191 54.014C53.9119 53.8919 53.5143 53.7955 53.4214 53.7119C53.09 53.4136 52.7365 53.2663 52.3194 53.2142C52.1091 53.1879 52.0726 52.9742 51.7995 52.9742C51.3279 52.9742 52.052 53.0542 52.1994 53.0542C52.5433 53.0542 52.8039 53.3566 53.1193 53.3742C53.3298 53.3858 53.6557 53.4089 53.8791 53.4586C54.0912 53.5057 54.4458 53.466 54.639 53.5519C54.9567 53.6931 55.0151 53.5532 55.2389 53.3742C55.8612 52.8763 56.4598 52.3177 57.0208 51.7567C57.2568 51.5206 57.2249 50.8476 57.0208 50.5924C56.865 50.3977 56.6386 50.4762 56.6386 50.2147C56.6386 50.0235 56.4787 49.4724 56.4787 49.6637C56.4787 49.8772 56.3987 50.2991 56.3987 50.2991C56.3987 50.2991 56.5382 50.1631 56.5542 50.2192C56.5871 50.3342 56.5586 50.4951 56.5586 50.6146C56.5586 50.8679 56.5586 51.1212 56.5586 51.3745C56.5586 51.6423 56.6131 52.1852 56.3187 51.6944" stroke="white" stroke-width="3" stroke-linecap="round"/>
<path d="M56.3987 55.3738C54.9251 56.7272 52.8717 57.5309 51.1463 58.511C50.2617 59.0135 49.3266 59.4234 48.4002 59.8352C48.2841 59.8868 48.3202 59.6626 48.3202 59.6086C48.3202 59.3352 48.4699 59.1031 48.6579 58.9109C49.0547 58.5051 49.6056 58.0917 50.1598 57.9333C51.0776 57.6711 49.9402 58.6836 49.6488 58.8132C49.2437 58.9932 49.762 57.538 49.6799 57.5334C49.279 57.5111 48.8602 57.7851 48.4979 57.9333C48.1177 58.0889 47.8827 58.1547 48.018 57.6134C48.0937 57.3106 48.3476 56.8176 48.6401 56.6713C48.7605 56.6111 49.04 56.514 49.04 56.698C49.04 57.1287 48.8644 57.4604 48.6357 57.8178C48.1338 58.602 47.3538 59.3172 46.6582 59.933C46.3658 60.1919 46.0151 60.6448 45.6806 60.8306C45.2845 61.0507 45.4407 59.8244 45.4407 59.6086C45.4407 58.8101 45.6834 58.0166 46.0406 57.3023C46.2711 56.8413 46.1606 57.487 46.1606 57.7023C46.1606 58.6123 45.6528 59.5535 45.2007 60.3285C44.9606 60.7401 44.7468 61.4316 44.3831 61.7549C44.3219 61.8092 44.3963 60.8965 44.4009 60.8128C44.4248 60.3705 44.6678 60.2288 44.3875 60.7017C44.0171 61.3268 43.4743 61.8194 42.9656 62.3281C42.9263 62.3674 42.6436 62.6598 42.579 62.5369C42.392 62.1817 42.5568 61.342 42.5612 60.955C42.5634 60.7576 42.801 60.1712 42.8012 60.1729C42.8223 60.511 42.8174 60.9331 42.6412 61.2305C42.5864 61.323 42.4812 61.8496 42.4812 61.5149C42.4812 61.112 42.5874 59.9188 42.4768 60.3062C42.1563 61.4279 41.5664 62.3373 40.8815 63.2746C40.6557 63.5836 40.7255 62.8564 40.7215 62.7502C40.7057 62.324 40.4907 63.1795 40.4771 63.2879C40.4656 63.38 40.3216 63.9232 40.3216 63.6034C40.3216 63.128 40.3216 62.6525 40.3216 62.177C40.3216 61.8818 40.1924 62.6738 40.1616 62.8125C40.084 63.1617 39.937 63.4124 39.9217 62.8924C39.8925 61.8993 39.5201 63.454 39.3618 63.6123C39.1278 63.8462 39.0503 63.7655 39.0418 63.4523C39.0299 63.0098 38.8818 62.5896 38.8818 62.1415C38.8818 61.6745 39.1377 63.4266 38.6819 63.5279C38.4386 63.5819 38.3468 62.9801 38.3264 62.8169C38.288 62.5097 38.3304 63.2294 38.3219 63.3724C38.3005 63.7378 38.1115 62.8711 38.0998 62.8036C38.0759 62.6655 38.002 61.7771 38.002 62.257C38.002 62.9986 37.9127 63.552 37.5843 64.1722C37.4052 64.5105 37.6311 64.9496 37.4599 65.292C37.3211 65.5695 37.6021 64.6824 37.6021 64.3722C37.6021 63.9338 37.6175 63.7315 37.3799 63.4346C37.3041 63.3399 37.3621 63.0126 37.3621 62.8924C37.3621 62.7638 37.2021 62.4128 37.2021 62.5414C37.2021 62.9641 37.2014 63.211 37.4021 63.5723C37.5905 63.9114 37.5947 64.2356 37.7443 64.5721C37.8861 64.8913 37.842 65.2906 37.842 65.6519C37.842 66.1118 37.5548 65.9956 37.2021 66.1719" stroke="white" stroke-width="3" stroke-linecap="round"/>
<path d="M8.15076 33.0347C10.6375 33.3638 12.8604 34.7654 15.3102 35.2553C15.8146 35.3562 16.3147 35.5565 16.8026 35.7011C17.2937 35.8466 17.7802 35.9686 18.2671 36.1309C18.5273 36.2176 18.8243 36.5321 18.8243 36.1508C18.8243 35.5896 18.8243 35.0285 18.8243 34.4674C18.8243 33.9164 18.7963 33.3638 18.88 32.8198C18.911 32.6183 18.8306 31.6994 19.1665 32.1194C19.6323 32.7016 20.3842 33.046 21.1165 33.3172C22.7525 33.9231 24.5008 34.2956 26.1906 34.7181C26.3594 34.7603 27.8121 35.2615 27.9059 35.1678C27.9782 35.0955 28.0032 34.7107 28.0292 34.6067C28.147 34.1357 28.2563 33.6546 28.3516 33.1779C28.68 31.5362 28.9247 29.9452 28.9247 28.275C28.9247 27.6005 28.853 26.8625 28.853 26.2294" stroke="black" stroke-width="3" stroke-linecap="round"/>
<path d="M11.3743 30.0976C12.7002 29.2397 14.1133 28.4646 15.4933 27.6979C15.876 27.4853 16.268 27.2858 16.6912 27.1447C17.1294 26.9987 17.5858 26.7653 18.0204 26.5876C18.3718 26.4438 18.7148 26.3272 19.071 26.2254C19.1861 26.1925 19.3314 26.0632 19.4531 26.0145C19.8189 25.8682 20.1961 25.8347 20.5793 25.7638C21.0085 25.6843 21.4681 25.728 21.9046 25.728C22.4192 25.728 21.627 25.6563 21.4748 25.6563C20.3411 25.6563 19.2122 25.8712 18.0761 25.8712C17.6622 25.8712 17.2483 25.8712 16.8344 25.8712C16.6988 25.8712 16.3222 25.94 16.2136 25.8314C15.9728 25.5906 16.4565 25.5174 16.6036 25.6563C17.1683 26.1897 17.6916 27.1672 17.4593 27.9805C17.4344 28.0674 16.8912 28.2341 16.7827 28.3426C16.2916 28.8337 15.909 29.4416 15.3699 29.8827C14.8618 30.2984 14.4318 30.6707 13.7741 30.6707C13.3211 30.6707 12.9066 30.7424 12.4488 30.7424C11.6055 30.7424 10.8778 30.1693 10.0849 30.1693C9.22261 30.1693 8.40404 30.1207 7.57772 30.1693C7.41399 30.1789 7.16447 30.2574 7.00464 30.3285C6.81818 30.4113 6.57482 30.3995 6.39177 30.4518C6.29546 30.4794 6.17306 30.45 6.0734 30.4558C5.98671 30.4609 5.91693 30.5742 5.82268 30.5951C5.66033 30.6312 5.50411 30.7405 5.35706 30.814" stroke="white" stroke-width="3" stroke-linecap="round"/>
<path d="M18.2512 24.0804C19.14 24.0804 20.0288 24.0804 20.9176 24.0804C21.806 24.0804 22.734 24.2751 23.6238 24.148C23.7381 24.1317 23.9953 24.0989 24.0695 24.0247C24.1594 23.9348 24.1969 23.8423 24.1969 24.0087C24.1969 24.2963 24.0536 24.5423 24.0536 24.8325C24.0536 25.131 24.0536 25.4295 24.0536 25.728C24.0536 25.8915 23.9984 26.5197 24.1809 26.0861C24.3952 25.5772 24.4182 25.0422 24.6983 24.542C25.0465 23.9203 25.1424 23.1954 25.4704 22.5761C25.6081 22.3159 25.6295 23.1628 25.6295 23.2566C25.6295 23.5431 25.6295 23.8297 25.6295 24.1162C25.6295 24.6426 25.7002 25.2195 25.3032 25.6165C25.1097 25.81 24.7799 25.6725 24.5391 25.7439C24.1337 25.864 23.6889 25.8712 23.2656 25.8712" stroke="white" stroke-width="3" stroke-linecap="round"/>
<path d="M25.5579 26.516C25.7966 26.516 26.0354 26.516 26.2742 26.516C26.5294 26.516 26.1809 26.5426 26.1309 26.4801C26.0472 26.3755 25.9694 25.7569 26.0951 25.6564C26.2441 25.5371 26.3963 25.0588 26.4175 24.8684C26.4364 24.6977 26.5607 24.5857 26.5607 24.4028C26.5607 24.2475 26.5607 24.0923 26.5607 23.9371" stroke="white" stroke-width="3" stroke-linecap="round"/>
<path d="M27.7069 23.5789C27.9825 23.5252 28.2189 23.4378 28.463 23.368C28.524 23.3506 28.6457 23.3963 28.6938 23.3481C28.757 23.285 28.583 23.3222 28.5506 23.3481C28.4842 23.4012 28.126 23.4102 28.0292 23.4317C27.8854 23.4636 27.7886 23.5789 27.6353 23.5789" stroke="white" stroke-width="3" stroke-linecap="round"/>
<path d="M3.13635 32.4616C3.50557 32.3895 3.91166 32.4237 4.12331 32.1591C4.19319 32.0718 4.20804 31.9458 4.2825 31.8527C4.3781 31.7332 4.55532 31.6273 4.67649 31.5303C4.77973 31.4477 4.89293 31.3259 4.99884 31.2597C5.10227 31.1951 5.27944 31.1617 5.35701 31.0647C5.50976 30.8738 5.95939 30.8986 6.07335 30.6707" stroke="white" stroke-width="3" stroke-linecap="round"/>
<path d="M11.3743 30.8856C11.5986 30.8124 11.9299 30.7642 12.0907 30.5633C12.1329 30.5105 12.3862 30.5274 12.3056 30.5274" stroke="white" stroke-width="3" stroke-linecap="round"/>
<path d="M10.0849 30.6707C10.5139 30.5033 10.982 30.4312 11.3743 30.2569C11.5529 30.1775 11.3062 30.1693 11.1594 30.1693C10.9408 30.1693 10.7585 30.0977 10.5505 30.0977C10.1322 30.0977 8.80951 30.2978 8.58057 29.9544" stroke="white" stroke-width="3" stroke-linecap="round"/>
<path d="M12.8107 31.3497C12.5305 31.343 12.2612 31.1864 12.0019 31.0938C11.8647 31.0448 11.7254 30.976 11.5939 30.9103C11.536 30.8813 11.4848 30.8318 11.4201 30.8282C11.2595 30.8193 11.1102 30.7109 10.9469 30.6979C10.807 30.6867 10.6555 30.5968 10.5184 30.5663C10.3798 30.5355 10.2676 30.4371 10.1273 30.4371C9.96259 30.4371 9.80184 30.3593 9.63845 30.3502C9.4709 30.3409 9.30926 30.3285 9.13871 30.3285C9.06867 30.3285 8.93001 30.391 8.87315 30.4323C8.83199 30.4622 8.70232 30.4589 8.64984 30.4589C8.4905 30.4589 8.33117 30.4589 8.17183 30.4589C8.09426 30.4589 8.02351 30.524 7.95456 30.524C7.9124 30.524 7.78782 30.5662 7.75297 30.5941C7.6476 30.6783 7.38491 30.6327 7.25323 30.6327C7.16508 30.6327 7.07569 30.628 6.98767 30.6327C6.94218 30.6351 6.77705 30.6515 6.74867 30.687C6.71142 30.7336 6.57731 30.7196 6.52173 30.7196C6.36964 30.7196 6.21755 30.7196 6.06545 30.7196C5.95681 30.7196 5.63764 30.667 5.55847 30.7461C5.51386 30.7908 5.4871 30.8464 5.44018 30.8886C5.42489 30.9023 5.34242 30.9369 5.41241 30.9369C5.43084 30.9369 5.51191 30.9445 5.48846 30.932C5.22755 30.7939 5.06727 30.611 4.76058 30.611C4.51938 30.611 4.4713 30.8944 4.33689 31.0672C4.28022 31.1401 4.21692 31.2895 4.13048 31.328C4.11948 31.3329 4.05842 31.3875 4.07616 31.4052C4.09977 31.4288 4.12585 31.3605 4.15221 31.34C4.21338 31.2925 4.277 31.2373 4.34655 31.1976C4.38776 31.174 4.48483 31.1105 4.51072 31.0781C4.52801 31.0565 4.56833 31.0651 4.5928 31.0407C4.61243 31.021 4.63024 30.9977 4.65195 30.9803C4.72301 30.9235 4.78357 30.8429 4.85353 30.7799C4.88437 30.7522 4.91791 30.7314 4.95372 30.7099C4.98444 30.6915 4.89637 30.7544 4.86319 30.7679C4.7351 30.8201 4.65133 30.9529 4.53244 31.0189C4.44877 31.0654 4.23406 31.237 4.20532 31.3376C4.16759 31.4697 4.02541 31.5762 3.98804 31.707C3.9773 31.7446 3.87581 31.8489 3.84802 31.8712C3.79957 31.9099 3.7776 31.9621 3.73335 32.0064C3.56531 32.1744 3.4026 32.4437 3.4026 32.6859C3.4026 32.7119 3.42734 32.9168 3.44485 32.838C3.46585 32.7435 3.43233 32.6418 3.50641 32.5592C3.56082 32.4985 3.57062 32.6065 3.56556 32.6328C3.53427 32.7955 3.45108 32.9643 3.37001 33.1084C3.32421 33.1899 3.27077 33.3098 3.21188 33.3752C3.15914 33.4338 3.14626 33.518 3.11531 33.5876C3.0845 33.657 2.9858 33.7967 3.07669 33.6577C3.13441 33.5694 3.17312 33.4731 3.22757 33.3812C3.29032 33.2753 3.36498 33.173 3.42433 33.0662C3.48282 32.9609 3.57823 32.7835 3.6742 32.7089C3.70139 32.6877 3.61709 32.8278 3.59815 32.861C3.54905 32.9469 3.50518 33.0336 3.45692 33.1205C3.42079 33.1855 3.3741 33.2651 3.35794 33.3378C3.34996 33.3737 3.27224 33.5279 3.27224 33.4356" stroke="white" stroke-width="3" stroke-linecap="round"/>
<path d="M29.4952 22.5354C29.64 22.5637 29.7906 22.5415 29.9306 22.5815C29.958 22.5893 29.9755 22.6332 30.0003 22.6474C30.0408 22.6705 30.0386 22.6182 30.0774 22.5976C30.1309 22.5693 30.3258 22.4907 30.1782 22.4907C30.1036 22.4907 29.9835 22.5264 29.9207 22.5578" stroke="white" stroke-width="3" stroke-linecap="round"/>
<path d="M30.9283 22.4682C31.0804 22.3494 31.2272 22.252 31.4159 22.1821C31.4301 22.1769 31.6161 22.0925 31.5328 22.0876C31.4695 22.0839 31.4048 22.0876 31.3413 22.0876C31.2221 22.0876 31.0628 22.1483 30.9507 22.1884C30.7748 22.2512 30.5507 22.3205 30.3635 22.3339C30.1351 22.3502 29.8947 22.4363 29.6794 22.508C29.5138 22.5632 29.3225 22.5966 29.1706 22.681C29.0416 22.7526 28.8716 22.785 28.734 22.8539C28.6355 22.9031 28.4543 23.0092 28.3981 23.1076C28.3267 23.2325 28.1694 23.2691 28.0846 23.3751C28.0506 23.4177 27.9434 23.4764 27.8943 23.4982C27.8278 23.5278 27.7512 23.6244 27.6816 23.6326C27.5758 23.645 27.3954 23.7569 27.3121 23.8217C27.2254 23.8891 27.1143 23.9187 27.0372 23.9958C26.9524 24.0806 26.8719 24.1647 26.8133 24.2819C26.7498 24.4088 26.6612 24.5289 26.6068 24.6514C26.488 24.9186 26.3605 25.1632 26.3605 25.4575C26.3605 25.5128 26.3157 25.5761 26.3157 25.6366C26.3157 25.6532 26.2933 25.7797 26.2933 25.7261C26.2933 25.6548 26.3651 25.5076 26.4103 25.4512C26.4746 25.3708 26.5614 25.2727 26.6118 25.1776C26.6652 25.0767 26.7596 24.9657 26.7847 24.8529C26.8312 24.6437 27.019 24.4667 27.1168 24.2819C27.2134 24.0996 27.3746 23.9072 27.5199 23.7619C27.7174 23.5644 27.846 23.3069 28.0734 23.13C28.2028 23.0294 28.3388 22.9106 28.4653 22.8041C28.5441 22.7377 28.54 22.8437 28.515 22.8937C28.492 22.9398 28.4489 23.0187 28.4093 23.0504C28.1601 23.2498 27.9133 23.478 27.6866 23.7047C27.6153 23.776 27.547 23.8388 27.4689 23.9013C27.2949 24.0405 27.3923 23.8126 27.3457 23.7893" stroke="white" stroke-width="3" stroke-linecap="round"/>
</svg>
