<svg width="315" height="465" viewBox="0 0 315 465" fill="none" xmlns="http://www.w3.org/2000/svg">
<rect width="315" height="465" fill="white"/>
<path d="M140.691 158.462C140.691 159.115 140.691 159.768 140.691 160.421C140.691 160.68 140.538 160.999 140.538 161.266C140.538 161.379 140.546 162.198 140.581 162.183C140.968 162.017 141.662 162.149 142.078 162.149C142.222 162.149 143.073 162.174 143.073 162.132C143.073 161.638 142.996 161.18 142.996 160.69C142.996 159.945 142.919 159.167 142.919 158.462" stroke="black" stroke-linecap="round"/>
<path d="M145.761 158.386C145.761 159.117 145.838 159.866 145.838 160.575C145.838 160.722 146.073 161.649 145.949 161.684C145.588 161.787 145.047 161.688 144.668 161.688C144.246 161.688 143.851 161.842 143.457 161.842" stroke="black" stroke-linecap="round"/>
<path d="M138.771 153.086C138.246 153.611 136.826 155.286 137.158 154.622" stroke="black" stroke-width="0.5" stroke-linecap="round"/>
<path d="M139.693 153.547C139.693 153.808 139.728 155.18 139.463 155.313" stroke="black" stroke-width="0.5" stroke-linecap="round"/>
<path d="M141.152 154.161C141.228 154.339 141.288 154.536 141.46 154.622" stroke="black" stroke-width="0.5" stroke-linecap="round"/>
<path d="M142.919 153.086C143.076 153.454 143.289 153.617 143.474 153.931C143.574 154.101 144.15 154.584 144.071 154.545" stroke="black" stroke-width="0.5" stroke-linecap="round"/>
<path d="M145.3 153.316C145.732 153.501 146.157 153.795 146.529 154.084C146.603 154.142 146.964 154.391 146.913 154.391" stroke="black" stroke-width="0.5" stroke-linecap="round"/>
<path d="M146.913 153.009C147.587 153.667 148.244 154.339 148.91 155.006" stroke="black" stroke-width="0.5" stroke-linecap="round"/>
<path d="M141.536 153.162C141.536 153.802 141.75 154.101 142.266 154.502C142.596 154.759 143.445 155.685 143.149 155.39" stroke="black" stroke-width="0.5" stroke-linecap="round"/>
<path d="M143.947 152.959C143.947 153.29 143.904 153.57 144.065 153.861C144.223 154.146 144.428 154.391 144.574 154.683C144.645 154.824 145.28 156.058 145.28 155.389" stroke="black" stroke-width="0.5" stroke-linecap="round"/>
<path d="M139.324 153.43C138.97 154.01 138.36 154.439 138.148 155.075" stroke="black" stroke-width="0.5" stroke-linecap="round"/>
<path d="M137.6 153.508C137.203 153.734 136.824 153.952 136.429 154.174C136.178 154.315 135.963 154.531 135.719 154.666C135.467 154.806 135.252 155.034 135.014 155.154" stroke="black" stroke-width="0.5" stroke-linecap="round"/>
<path d="M133.479 132.806C132.459 134.152 131.338 135.443 131.178 137.202C131.095 138.114 131.165 139.062 131.165 139.979" stroke="black" stroke-width="0.5" stroke-linecap="round"/>
<path d="M136.255 134.888C136.638 136.195 137.107 137.212 137.759 138.372C138.021 138.837 138.338 139.44 138.338 139.979" stroke="black" stroke-width="0.5" stroke-linecap="round"/>
<path d="M142.734 133.963C143.502 135.283 144.444 136.637 144.817 138.128" stroke="black" stroke-width="0.5" stroke-linecap="round"/>
<path d="M149.676 134.426C150.411 135.896 151.374 137.127 152.105 138.591C152.303 138.985 152.915 140.22 152.915 140.21" stroke="black" stroke-width="0.5" stroke-linecap="round"/>
<path d="M155.692 133.731C156.627 133.754 158.063 133.889 158.931 134.323C159.454 134.584 159.851 135.117 160.32 135.351" stroke="black" stroke-width="0.5" stroke-linecap="round"/>
<path d="M148.982 130.955C147.963 131.726 147.852 131.819 147.413 132.806C147.165 133.364 147.485 134.12 147.31 134.708C147.096 135.431 147.102 138.026 146.436 138.359" stroke="black" stroke-width="0.5" stroke-linecap="round"/>
<path d="M151.295 132.112C151.977 133.701 153.292 134.529 154.175 135.917C154.478 136.393 155.693 138.012 155.46 137.896" stroke="black" stroke-width="0.5" stroke-linecap="round"/>
<path d="M139.726 131.417C139.726 132.849 139.726 134.28 139.726 135.711C139.726 136.641 139.444 138.051 139.957 138.822" stroke="black" stroke-width="0.5" stroke-linecap="round"/>
<path d="M153.378 130.492C154.661 130.492 157.38 129.998 158.468 130.723" stroke="black" stroke-width="0.5" stroke-linecap="round"/>
<path d="M137.875 131.417C135.92 132.228 134.912 134.206 133.993 136.045C133.705 136.62 133.247 137.363 133.247 138.012C133.247 138.316 133.018 139.521 132.784 139.053" stroke="black" stroke-width="0.5" stroke-linecap="round"/>
<path d="M144.817 131.649C143.836 132.997 143.843 134.328 143.081 135.698C142.654 136.467 142.549 138.683 141.809 139.053" stroke="black" stroke-width="0.5" stroke-linecap="round"/>
<path d="M130.239 134.426C128.158 134.476 128.026 134.69 127.925 136.508C127.884 137.257 127.438 140.107 126.768 140.442" stroke="black" stroke-width="0.5" stroke-linecap="round"/>
<path d="M146.17 232.138C138.841 236.607 133.931 244.838 130.987 252.786C129.194 257.629 125.951 263.08 125.673 268.348C125.485 271.917 124.99 275.536 124.99 279.279C124.99 281.101 124.777 289.102 124.307 288.161" stroke="black" stroke-width="3" stroke-linecap="round"/>
<path d="M145.486 232.821C153.509 238.276 161.568 244.043 168.032 251.268C170.151 253.635 172.638 258.339 172.815 261.516C173.154 267.619 174.533 273.63 174.181 279.963C174.107 281.291 171.505 288.475 170.765 288.844" stroke="black" stroke-width="3" stroke-linecap="round"/>
<path d="M144.12 232.821C144.12 227.047 142.649 222.059 140.173 217.107C137.349 211.459 136.605 203.535 136.605 197.294C136.605 193.241 135.779 188.051 137.44 184.313C138.482 181.968 139.32 179.412 140.173 176.95C140.555 175.844 142.893 172.016 142.754 172.016" stroke="black" stroke-width="3" stroke-linecap="round"/>
<path d="M142.07 172.016C146.537 176.622 146.489 182.822 147.574 188.792C148.246 192.489 148.901 196.365 149.738 200.027C150.546 203.565 150.458 207.346 151.483 210.807C152.627 214.666 151.717 220.666 150.914 224.281C150.407 226.565 146.759 235.956 144.803 230.088" stroke="black" stroke-width="3" stroke-linecap="round"/>
<path d="M134.555 189.096C127.156 194.477 120.155 199.467 113.376 205.493C110.49 208.058 107.888 209.641 106.392 213.008C105.543 214.917 104.741 223.421 102.444 221.89" stroke="black" stroke-width="3" stroke-linecap="round"/>
<path d="M147.536 189.096C159.077 189.096 177.166 185.425 183.443 197.978C185.165 201.422 185.342 204.325 185.113 208.226C185.015 209.891 184.804 216.424 183.063 216.424" stroke="black" stroke-width="3" stroke-linecap="round"/>
<path d="M141.387 172.699C134.618 171.248 129.927 167.498 125.521 162.602C122.353 159.082 122.257 152.318 122.257 147.762C122.257 140.597 126.088 133.374 132.505 129.808C134.489 128.706 138.328 128.29 140.552 128.29C144.389 128.29 148.034 126.924 151.977 126.924C154.437 126.924 156.838 126.453 158.809 127.986C160.918 129.627 162.999 132.485 164.275 134.781C167.074 139.819 166.334 146.356 163.25 151.367C160.468 155.887 158.397 160.471 154.71 164.159C152.802 166.067 150.92 167.956 148.599 169.283C147.616 169.844 147.432 171.262 146.17 171.332C144.813 171.408 143.43 171.332 142.07 171.332" stroke="black" stroke-width="3" stroke-linecap="round"/>
<path d="M132.505 147.42H137.288" stroke="black" stroke-width="3" stroke-linecap="round"/>
<path d="M152.319 146.054C153.441 146.87 155.867 147.684 156.418 148.786" stroke="black" stroke-width="3" stroke-linecap="round"/>
<path d="M135.922 156.985C140.697 156.985 146.158 157.674 150.269 155.619" stroke="black" stroke-width="3" stroke-linecap="round"/>
</svg>
