<svg width="264" height="47" viewBox="0 0 264 47" fill="none" xmlns="http://www.w3.org/2000/svg">
<path d="M4.73514 15.2301C6.10981 15.2301 10.2338 15.2301 8.85915 15.2301C7.00189 15.2301 5.19323 13.9676 3.37165 13.8219C2.89895 13.784 2.89946 13.4006 3.12577 13.1178C3.34624 12.8422 4.4154 13.0172 4.73514 13.0172C5.29168 13.0172 7.94162 12.3983 7.55154 11.9107C7.10165 11.3484 7.46767 11.7831 7.95388 11.8101C8.85645 11.8603 8.07498 12.1121 7.50684 11.5643C7.12997 11.2009 4.09216 8.79258 5.23807 8.79258C6.45631 8.79258 7.25672 8.99799 8.11035 8.14436C8.1955 8.05921 8.3527 8.37474 8.45681 8.502C8.78593 8.90426 9.14546 9.19279 9.51855 9.55256C10.1587 10.1698 10.7497 10.7951 11.575 11.1619C12.1124 11.4008 12.0888 8.33001 12.1673 7.89848C12.3198 7.0599 11.9858 7.90695 12.2232 8.14436C12.7573 8.6785 14.21 7.70823 14.5925 7.42908C14.6922 7.35638 16.0909 6.14076 16.1907 6.49028C16.3782 7.14633 16.368 7.73889 16.6937 8.39023C16.9267 8.85629 16.9896 9.34398 17.7107 9.18374C18.0213 9.11472 17.9592 8.75583 18.2136 8.63611C18.4054 8.54587 18.6975 8.79258 18.9177 8.79258C19.801 8.79258 20.5305 8.83298 21.2312 8.18906C21.4243 8.01162 23.1407 6.39446 23.3994 6.6244C23.6789 6.87285 23.2522 7.64742 23.4888 7.94319C23.8789 8.43081 24.2226 8.79258 24.897 8.79258C26.2405 8.79258 27.046 8.07432 27.9481 7.0938C28.0837 6.94637 29.4792 5.03873 29.4792 5.87559C29.4792 8.07438 30.943 6.33549 31.5915 5.18267C32.1954 4.10899 32.2956 4.67744 32.2956 5.57384C32.2956 7.26876 32.1195 9.07581 32.3403 10.7596C32.4535 11.6227 32.6496 12.4168 33.402 11.4972C33.9121 10.8737 34.4873 10.2065 35.2014 9.79843C36.1895 9.23383 36.9202 10.207 37.9284 9.9549C39.2586 9.62235 40.0028 8.16097 40.9013 7.22791C41.1086 7.0126 41.5495 5.91196 41.5495 6.78087C41.5495 7.82149 41.5416 8.97642 42.4547 9.68667C42.9504 10.0722 43.119 9.15104 43.1588 8.79258C43.2932 7.58339 44.1949 8.85965 44.6117 9.19492C46.17 10.4483 47.9918 11.674 49.3728 13.1178C49.5177 13.2693 50.9213 14.7058 50.9933 14.2018C51.1618 13.0227 51.0045 11.7161 51.0045 10.5249C51.0045 9.89468 50.6595 9.76481 51.1051 10.1114C53.0597 11.6316 53.7993 9.62919 54.0668 7.6079C54.1675 6.84731 54.0258 5.81232 54.2344 5.08209C54.2526 5.01837 55.2439 7.68989 55.4191 8.05495C55.8993 9.05529 56.2979 10.1247 56.682 11.1619C57.0679 12.2039 57.7329 10.7729 58.0008 10.4019C59.1712 8.78136 59.6523 7.42507 61.5101 9.15022C61.9058 9.51765 62.822 10.0664 63.3765 10.1896C63.8076 10.2854 63.9205 9.44126 64.3824 9.69785C66.0835 10.6429 66.9846 10.0334 67.1094 8.09965C67.1317 7.7534 67.2994 6.56714 67.2994 6.57969C67.2994 7.26921 67.4477 8.16192 67.7464 8.79258C68.216 9.78387 68.1041 8.76366 68.1041 8.18906C68.1041 7.65261 68.1041 6.04324 68.1041 6.57969" stroke="black" stroke-linecap="round"/>
<path d="M67.9029 9.39615C69.5677 9.39615 70.3719 9.4433 71.5128 8.08854C72.0893 7.4039 72.474 6.5698 73.0328 5.88683C73.2429 5.63003 73.7369 4.7539 73.7369 5.5739C73.7369 7.18213 73.6299 9.04274 74.441 10.5026C75.0916 11.6738 77.291 10.0331 77.9615 9.69791C78.9527 9.20227 79.8036 8.45903 80.7779 7.94325C80.9093 7.87364 81.5664 7.32749 81.5825 7.58561C81.6171 8.13886 81.4944 8.7384 81.5937 9.28439C81.9444 11.2133 84.2087 8.3763 84.5554 7.83148C84.6672 7.65583 85.985 6.06889 85.9971 6.09918C86.1337 6.44059 85.9879 7.01648 86.0083 7.38444C86.0392 7.93982 87.4165 9.20999 87.4165 8.08854C87.4165 7.33569 91.6467 9.82395 92.2446 10.1561C92.9839 10.5669 92.6469 8.42766 92.6469 7.79796C92.6469 7.54347 92.5296 6.53852 92.7364 6.82563C93.5289 7.92636 94.9585 8.76903 96.078 9.49673C96.4575 9.74341 97.4153 10.1764 97.6762 10.5026C97.9174 10.804 98.0745 8.94044 98.0786 8.74793C98.0939 8.02559 98.2372 7.30339 98.2797 6.57975C98.319 5.9117 99.3919 6.99655 99.4979 7.08268C99.9044 7.41294 102.907 9.84807 103.465 9.35144C104.076 8.80879 102.32 7.03712 103.555 7.78678C104.76 8.51826 106.346 8.99381 107.746 8.99381C109.436 8.99381 109.917 7.12431 110.909 6.13271C111.217 5.82462 111.336 6.66839 111.356 6.93739C111.404 7.58892 112.009 8.05937 112.149 8.69205C112.529 10.4007 112.35 12.3664 111.445 14.0119C111.119 14.6052 110.752 15.1601 110.752 14.2131C110.752 13.2353 111.232 12.4724 111.758 11.6537C112.6 10.3444 113.942 9.52129 115.167 8.60264C115.772 8.14848 117.124 7.37185 117.838 7.94325C118.366 8.36551 118.598 7.75937 118.598 7.37326C118.598 6.81818 118.598 5.15293 118.598 5.70801C118.598 7.64351 118.762 9.66245 118.352 11.5643C118.135 12.5724 117.861 13.5857 117.592 14.5819C117.512 14.8797 117.515 15.687 117.29 15.9119C115.237 17.9648 120.309 10.8976 122.309 8.79264C123 8.06444 123.165 7.64331 123.437 6.69151C123.484 6.52852 124.033 6.75584 124.164 6.7474C125.574 6.65641 127.258 5.66575 128.567 5.17155C130.855 4.30769 132.989 3.1363 135.072 1.86341C138.943 -0.502178 128.764 8.40295 125.326 11.3632C124.247 12.2922 122.79 13.3416 125.147 11.9443C128.241 10.1102 131.397 7.9332 133.753 5.19391C134.418 4.42014 135.698 3.19152 135.698 2.0534C135.698 1.67554 135.698 3.61093 135.698 3.96453C135.698 4.55803 134.523 7.78678 135.496 7.78678" stroke="black" stroke-linecap="round"/>
<path d="M135.496 7.98788C137.032 9.5233 138.757 10.9371 140.704 11.9107C141.305 12.2107 141.934 12.8187 141.934 11.8101C141.934 11.4257 142.087 10.6665 142.236 10.279C142.741 8.96532 142.753 7.31842 143.443 6.07675C143.729 5.56109 143.331 6.98216 143.342 7.1832C143.386 7.97463 144.995 8.72526 145.6 8.94903C148.31 9.95285 149.877 6.482 151.49 4.86973C151.725 4.63455 151.735 4.30997 151.802 4.67973C151.888 5.15118 151.99 5.7464 152.194 6.17734C152.565 6.96476 153.163 8.16979 154.105 8.37905C155.37 8.66031 156.854 5.74203 157.625 4.97031C158.867 3.72852 159.349 7.23025 160.553 7.57436C160.786 7.6409 161.105 7.58554 161.347 7.58554C161.546 7.58554 161.649 6.87273 161.649 7.07143C161.649 7.7122 161.649 8.35297 161.649 8.99374" stroke="black" stroke-linecap="round"/>
<path d="M161.246 8.99376C162.058 9.33889 162.882 9.73488 163.504 10.3573C164.023 10.8767 164.318 9.39585 164.711 9.03846C165.522 8.30123 166.599 7.59005 167.438 6.93734C167.539 6.85886 167.08 8.36692 167.08 8.59141C167.08 8.94895 166.855 10.8043 167.483 10.8043C167.923 10.8043 168.519 9.6857 168.891 9.3961C169.81 8.68149 170.74 7.96491 171.752 7.38439C172.22 7.11603 175.127 5.27106 175.127 6.17736C175.127 6.82135 174.726 7.5404 174.937 8.27848C175.227 9.29256 179.167 9.35967 179.553 8.49083C179.913 7.68102 179.955 7.20463 179.955 6.27795C179.955 5.88455 179.754 3.98664 179.754 5.1715C179.754 6.89123 180.896 7.77025 181.967 9.03846C182.341 9.48181 184.053 11.895 184.537 10.8043C184.718 10.3987 184.645 9.8222 184.795 9.37375C185.176 8.2297 185.735 7.1368 186.192 6.02089C186.271 5.82708 186.795 4.32932 186.795 4.86975C186.795 5.31064 186.793 5.53109 186.996 5.88678C187.524 6.81092 188.274 7.83048 189.109 8.47965C189.693 8.9339 191.87 8.66215 192.316 8.08849C192.85 7.40262 192.47 6.64054 192.64 5.8756C192.714 5.54345 193.031 3.70741 193.031 4.66858C193.031 7.17151 197.128 8.88727 199.078 9.49668C200.545 9.95514 200.585 9.69959 201.369 8.692C201.879 8.03666 202.171 7.30028 202.531 6.5797C203.011 5.62045 202.688 7.04362 202.688 7.63026C202.688 8.27247 202.837 9.79688 203.895 9.35139C207.191 7.96366 210.902 7.62647 213.953 5.57385C214.534 5.18299 215.278 4.57007 215.551 3.88624C215.673 3.58184 215.563 4.54189 215.563 4.86975C215.563 5.95035 215.16 7.0055 215.16 8.07731C215.16 8.32405 214.855 8.98451 215.004 9.15022C215.249 9.42282 215.489 9.51908 215.574 9.89903C215.606 10.0448 215.965 10.728 215.965 10.3573C215.965 9.601 215.965 8.84474 215.965 8.08849C215.965 6.64676 215.965 5.20503 215.965 3.76331" stroke="black" stroke-linecap="round"/>
<path d="M216.166 10.2007C217.118 10.0016 219.988 9.32879 219.988 7.98785C219.988 7.55198 219.988 7.11611 219.988 6.68024C219.988 5.81312 220.24 6.79774 220.402 7.09376C220.929 8.0608 222.612 8.92952 223.565 9.35135C224.407 9.72397 225.527 10.6986 226.426 10.8043C227.105 10.8841 227.205 10.1467 227.722 9.40723C228.485 8.31775 229.317 7.69483 230.349 6.89259C231.151 6.26869 230.632 8.8375 230.65 9.19488C230.709 10.307 233.097 10.5585 233.791 10.0778C234.933 9.28722 235.963 8.26382 237.043 7.38434C237.06 7.37037 238.694 6.19077 238.451 6.78083C238.023 7.82231 236.973 8.69527 238.597 9.19488C239.212 9.38408 241.495 9.40128 239.703 9.89898C239.083 10.0712 238.338 10.2439 237.691 10.2007C235.664 10.0656 241.624 9.17363 243.57 8.59137C245.311 8.07044 247.418 7.96453 249.035 7.09376C249.734 6.71767 249.23 7.21812 248.856 7.38434C247.87 7.82263 247.076 8.37103 246.297 9.15018C245.997 9.44972 246.955 9.19488 247.336 9.19488C248.343 9.19488 249.247 9.28032 250.175 9.69781C251.014 10.0753 251.965 10.0847 252.779 10.4466C253.896 10.9428 252.619 10.2089 252.176 9.99957C251.474 9.66805 250.755 9.47837 250.063 9.0943C249.629 8.85279 249.737 8.37754 249.471 8.2002C249.056 7.92329 250.469 8.18903 250.969 8.18903C252.237 8.18903 253.212 8.35857 254.433 8.63607C254.911 8.74462 257.649 9.56922 256.512 10.4466C254.525 11.9799 252.125 13.0473 250.075 14.4142C249.411 14.8564 251.669 14.4253 252.466 14.4253C252.92 14.4253 254.368 14.1674 254.746 14.47C255.293 14.9074 254.405 14.9691 254.087 15.1406C253.322 15.5526 252.568 15.7779 251.885 16.3365C251.233 16.8703 251.692 17.3445 252.22 17.6888C253.17 18.3071 254.319 19.4945 254.992 20.4158C255.294 20.8286 255.541 21.2053 255.383 21.7569C255.274 22.1376 251.864 21.8687 251.382 21.8687C251.146 21.8687 249.464 21.7369 249.762 22.0698C250.785 23.214 251.817 24.322 253.025 25.2886C254.167 26.2019 255.114 26.6009 254.802 28.0044C254.614 28.8514 254.492 30.0359 253.573 30.1279C252.503 30.2348 251.494 30.3179 250.41 30.3179C249.664 30.3179 249.496 30.2583 250.32 30.5637C251.35 30.9449 253.892 32.5519 254.199 33.626C254.583 34.9705 254.538 36.6872 253.83 37.9624C253.431 38.6807 253.496 38.4199 253.372 37.8618C253.288 37.4853 251.972 36.8768 251.684 36.6659C251.422 36.4742 250.3 35.9719 250.32 35.9954C250.615 36.3269 250.691 36.7901 251.013 37.113C251.731 37.8303 251.773 36.4904 251.773 35.8501C251.773 35.5394 251.173 35.1836 251.416 34.9895C251.861 34.6334 253.491 34.9995 253.986 35.0454C255.566 35.1917 257.105 35.5541 258.68 35.7048C259.602 35.7929 260.474 35.9748 261.385 36.1071C261.465 36.1188 262.647 36.1416 262.603 36.2524C262.481 36.5564 258.847 37.0624 258.457 37.1577C256.519 37.6304 254.19 38.5236 252.265 37.9735C251.827 37.8485 251.225 37.9624 250.767 37.9624C250.44 37.9624 250.461 37.9746 250.354 38.2418C250.328 38.3069 249.836 37.4342 249.762 37.3141C249.356 36.6606 249.134 35.9192 248.756 35.2577C248.523 34.8505 247.347 37.5707 247.247 37.75C246.77 38.6034 246.384 39.8874 245.783 40.6223C245.379 41.116 245.53 40.2489 245.381 39.8176C244.999 38.716 244.153 38.1635 243.022 38.1635C242.299 38.1635 242.205 38.2222 241.715 38.767C240.935 39.6334 240.325 40.3271 239.345 40.9799C237.354 42.3073 236.216 39.9074 234.976 38.6665C234.332 38.0228 234.502 38.719 234.07 38.767C233.202 38.8635 232.345 39.0927 231.466 39.1806C230.889 39.2383 230.07 39.1903 230.047 39.8176C230.02 40.5489 229.415 41.9132 229.041 42.5446C228.854 42.8606 228.563 43.456 228.337 42.8687C227.757 41.3599 227.449 39.7214 226.839 38.1971C226.584 37.5598 225.402 33.6819 224.615 35.3471C223.712 37.2597 222.698 39.0443 221.564 40.8346C220.753 42.1158 219.93 43.3895 219.117 44.6681C218.861 45.0697 218.482 45.1531 218.189 45.4951C217.825 45.9202 214.744 42.0908 214.356 41.5387C214.06 41.1184 213.533 40.5922 213.048 40.3764C212.906 40.3134 212.209 39.447 212.154 39.6947C212.01 40.3411 211.941 41.1166 211.941 41.7846C211.941 42.6188 211.413 40.0796 211.338 39.8176C211.057 38.8329 210.731 37.7547 210.231 36.8559C209.825 36.1251 209.681 37.5804 209.572 37.9177C209.195 39.0902 208.996 39.7729 207.627 39.7729C206.74 39.7729 206.214 39.5465 205.705 38.8118C205.557 38.5975 204.543 37.3887 204.297 37.6494C203.96 38.0058 204 38.9178 203.895 39.3706C203.653 40.4092 203.488 41.4636 203.191 42.4887C203.046 42.9848 202.49 45.6222 202.084 43.8969C201.754 42.4952 201.323 41.1377 200.877 39.7729C200.673 39.1493 200.522 38.2999 200.028 37.8059C198.695 36.4734 198.381 39.0166 197.971 39.6611C197.753 40.0036 197.555 40.4935 197.211 40.7341C196.98 40.8961 195.795 39.3113 195.602 39.1247C195.139 38.678 194.593 38.1635 193.937 38.1635C193.323 38.1635 193.872 38.8994 193.534 39.1694C192.623 39.8982 191.499 38.767 190.528 38.767C189.715 38.767 190.343 39.2464 189.813 39.527C189.377 39.7577 188.778 39.3114 188.404 39.1247C187.705 38.7748 187.164 38.5659 186.393 38.5659C185.482 38.5659 184.816 40.231 184.493 40.9688C184.402 41.1755 184.085 42.4228 183.822 41.7399C183.378 40.5838 182.989 39.4713 182.414 38.3647C182.214 37.9801 181.519 36.3803 180.872 36.5653C180.561 36.654 180.76 38.4344 180.76 38.767C180.76 40.3962 179.691 38.3367 178.949 38.0071C177.877 37.5306 178.002 39.5717 177.038 39.5717C175.451 39.5717 173.694 38.83 172.11 38.5659" stroke="black" stroke-linecap="round"/>
<path d="M171.305 38.566C171.028 38.3623 167.649 35.72 167.494 36.2637C167.193 37.3151 167.483 38.8973 167.483 39.9742C167.483 40.3827 167.288 40.5777 166.879 40.5777C166.078 40.5777 165.915 39.7497 165.56 39.1695C164.615 37.6222 163.049 36.9566 161.347 36.9566C160.885 36.9566 160.323 38.2088 160.028 38.5772C159.166 39.6543 158.515 40.89 157.67 41.9859C156.474 43.5365 156.686 42.5811 155.915 41.3824C155.687 41.0271 153.803 39.1341 153.803 40.3765C153.803 41.0734 153.268 39.6658 153.088 39.3707C152.603 38.5768 151.791 38.0571 151.031 37.5601C149.711 36.6967 150.853 39.0266 150.26 39.1583C148.6 39.5272 146.709 38.1722 145.398 37.359C145.186 37.2274 144.167 36.4845 144.147 37.0013C144.127 37.4874 144.147 37.9787 144.147 38.4654C144.147 38.7783 144.413 39.6374 143.744 38.9683C143.309 38.5327 143.25 37.7572 142.828 37.2584C139.669 33.5252 141.483 41.5606 139.922 40.7342C139.581 40.5536 139.331 39.8475 139.117 39.5271C138.555 38.684 137.724 37.85 136.905 37.2584C136.279 36.8067 135.917 36.3047 135.094 36.3531C134.677 36.3776 134.899 38.1081 134.882 38.3872C134.8 39.6939 134.43 41.1453 133.999 42.3771C133.959 42.4909 133.861 44.0833 133.328 43.5506C133.125 43.3471 132.954 42.4599 132.836 42.1424C132.447 41.0906 132.09 40.0203 131.674 38.9795C131.325 38.1055 130.661 37.0054 129.875 36.4649C129.538 36.2332 128.731 35.8428 128.657 36.5543C128.447 38.543 128.103 41.0967 127.047 42.8353C126.11 44.3786 125.782 42.5884 125.136 41.5836C124.644 40.8187 123.465 39.5104 122.42 39.5718C121.869 39.6042 122.484 41.6985 122.107 42.0753C121.707 42.4761 120.999 40.6596 120.856 40.4212C120.262 39.4324 119.821 38.9761 118.799 38.4654C117.29 37.711 116.586 38.2959 116.586 39.8177C116.586 41.0006 116.075 42.8708 114.675 43.1817C114.208 43.2855 113.707 42.3814 113.457 42.0865C112.651 41.1345 111.855 40.4573 110.797 39.8177C110.53 39.6562 109.344 38.8308 109.344 39.4713C109.344 39.7279 109.49 40.5573 109.143 40.5777C108.523 40.6142 108.464 40.246 107.936 39.9742C106.651 39.3133 105.258 39.1695 103.823 39.1695C102.466 39.1695 101.082 39.3847 100.09 40.3765C99.9021 40.5647 99.6493 41.5515 99.5762 41.5724C98.9437 41.7531 97.3994 38.6839 96.715 38.2531C95.3756 37.4097 95.2621 38.5413 95.2621 39.5718" stroke="black" stroke-linecap="round"/>
<path d="M93.854 38.5659C92.7916 38.1974 92.0496 37.6857 91.194 37.0013C91.0261 36.8669 91.0376 38.327 91.0376 38.4542C91.0376 40.1726 91.0065 41.993 89.7858 43.3493C88.8605 44.3775 88.3739 41.4661 88.02 40.9353C87.7155 40.4785 85.55 37.8732 85.0024 38.9683" stroke="black" stroke-linecap="round"/>
<path d="M92.4457 38.3647C93.3079 38.8574 94.6768 39.5718 95.6645 39.5718" stroke="black" stroke-linecap="round"/>
<path d="M85.2036 39.3706C84.4341 39.2205 82.4579 38.8154 81.8954 38.253C80.8182 37.1757 80.979 38.5244 80.979 39.4712C80.979 40.2268 81.2704 41.7465 80.7331 42.3435C80.2229 42.9104 80.199 41.6472 80.1631 41.2706C80.0452 40.0321 79.3482 38.4829 78.5649 37.5154C78.1696 37.027 75.3462 34.4337 75.3462 36.4536C75.3462 36.9565 75.3462 37.4595 75.3462 37.9624C75.3462 39.214 74.1716 40.2846 73.4351 41.1811C72.7535 42.0109 71.762 43.177 70.6299 43.3828C69.6282 43.565 69.5476 41.0688 69.4005 40.4435C69.3725 40.3246 68.8162 38.1355 68.5064 38.6777C68.2195 39.1797 68.4762 39.6899 68.2605 40.1753C67.9509 40.8719 67.2002 42.747 66.3829 42.9805C65.7708 43.1554 65.5965 39.6744 64.5724 39.3818C63.3059 39.0199 62.1395 40.1818 62.0689 41.3823C62.0566 41.5907 61.6849 39.5224 61.5548 39.0577C61.1829 37.7296 60.7267 36.9565 59.2972 36.9565C57.2313 36.9565 56.7962 39.0372 55.8438 40.4659C55.427 41.091 55.5592 38.896 55.0279 38.3647C54.1536 37.4905 52.2691 37.9271 51.5074 38.6889C50.3232 39.8731 49.1699 41.8467 47.674 42.634C47.1306 42.92 47.3834 40.6578 47.3834 40.1865C47.3834 36.6417 42.685 41.8956 42.0747 42.9805C41.5276 43.9532 41.7506 41.8008 41.7506 41.3935C41.7506 40.0524 41.1702 39.5434 39.7389 40.22C38.5087 40.8016 37.5163 41.691 36.4308 42.4664C35.8346 42.8922 37.2354 41.1538 37.2354 40.4212C37.2354 39.9875 35.8962 41.5263 35.7602 41.7847C35.0698 43.0965 35.7393 40.2579 35.8049 39.8735C35.8623 39.5374 36.4719 36.353 35.9166 36.353C35.2615 36.353 34.8421 37.7501 34.6984 38.253C34.5595 38.7391 33.7416 38.5437 33.3908 38.5771C32.3519 38.676 31.3141 39.2997 30.3286 39.6165C28.7916 40.1105 27.9858 38.6291 26.6181 38.2083C25.9047 37.9888 25.4776 38.2899 25.0534 38.7671C24.8302 39.0181 24.8522 40.0824 24.8522 39.6724C24.8522 39.0864 25.2235 38.5212 25.2546 37.9624C25.3283 36.6346 24.6929 38.4831 24.5505 38.8788C24.1322 40.0408 23.71 41.2041 23.3434 42.377C23.1737 42.9201 23.0417 43.4094 23.0417 42.5446C23.0417 41.7062 24.1036 39.174 23.3993 38.6106C22.8458 38.1678 22.5718 39.2966 22.4382 39.5718C22.0654 40.3392 21.6413 40.9551 21.2312 41.6729C20.8376 42.3616 18.5989 41.9858 17.923 41.9858C16.9417 41.9858 17.6617 38.8404 17.6101 37.9624C17.4715 35.6067 15.7236 42.3117 15.1513 44.6011C14.9589 45.3706 14.8116 45.4781 14.4919 44.9028C14.0829 44.1666 13.6315 43.4792 13.1396 42.7905C12.4852 41.8743 12.1382 40.7014 11.6755 39.6835C11.5407 39.387 11.4913 38.3986 11.7761 38.9683" stroke="black" stroke-linecap="round"/>
<path d="M12.1784 37.9624C11.1813 37.9624 9.93219 38.177 9.40674 39.1695C9.25392 39.4581 9.04419 40.0506 8.64676 40.1642C7.81432 40.402 5.77675 43.1813 5.03685 42.5894C4.66357 42.2908 4.51436 39.4778 4.85803 39.0577C5.72716 37.9954 6.60281 36.9521 7.55149 35.9507C7.78973 35.6993 7.76511 35.5267 8.155 35.5484C8.61405 35.5739 8.40359 36.0649 8.66911 36.1407C9.26559 36.3112 10.2442 36.1519 8.84793 36.1519C7.01797 36.1519 5.33399 35.6413 3.68453 34.9449C2.65518 34.5103 1.77929 33.7653 0.812255 33.3355C-0.0234841 32.9641 1.6365 32.7473 1.9187 32.732C3.43412 32.6501 5.3017 32.0901 6.74681 31.6256C7.52863 31.3743 9.31586 31.2806 9.92084 30.6756C10.1263 30.4701 8.08343 30.0532 7.96501 30.0162C7.01217 29.7184 6.06817 29.3321 5.13744 29.0662C4.64101 28.9244 3.32689 28.1523 3.32689 27.5015C3.32689 27.0617 5.82587 26.4298 6.15447 26.2945C7.64093 25.6824 9.56813 24.4611 11.1726 24.2828C12.0879 24.1811 9.69203 24.0292 9.45144 23.981C8.1033 23.7114 6.73766 23.5157 5.38331 23.2322C4.90109 23.1313 3.16958 22.7893 2.92455 22.3605C2.42382 21.4842 3.46957 21.3951 4.13158 21.0641C5.12766 20.566 6.37477 19.9062 7.4509 19.667C8.04829 19.5343 8.34593 19.6641 8.8591 19.2535C9.086 19.072 10.1423 18.2993 9.16086 18.2477C7.61861 18.1665 6.03035 18.1296 4.53392 18.0465C2.54647 17.9361 4.36975 16.7395 4.93626 16.236C5.47368 15.7583 6.37325 15.7475 7.04856 15.6436C7.77269 15.5322 8.6492 15.2301 9.36203 15.2301" stroke="black" stroke-linecap="round"/>
</svg>
