<svg width="236" height="37" viewBox="0 0 236 37" fill="none" xmlns="http://www.w3.org/2000/svg">
<path d="M0.622222 8.21214C0.622222 10.8684 0.622222 13.5247 0.622222 16.1811C0.622222 17.7501 0.43031 19.4666 0.726923 21.0089C0.861746 21.71 0.764507 23.4448 1.35513 23.9173C1.89517 24.3493 1.95858 25.0623 2.09967 25.6972C2.38831 26.9961 2.71624 30.9715 2.71624 29.641C2.71624 25.924 3.13505 22.2048 3.13505 18.4845C3.13505 15.6094 2.90038 12.4209 3.85632 9.68959C4.12682 8.91674 4.39146 7.46028 4.39146 9.14281C4.39146 10.9593 4.31637 12.7365 4.8219 14.5058C5.82137 18.004 6.61503 21.6364 7.8466 25.0574C7.98766 25.4492 8.08721 26.3002 8.41664 26.593C8.45126 26.6238 8.8267 24.2597 8.88197 23.9755C9.5783 20.3943 10.2547 17.0747 10.2547 13.4472C10.2547 13.1113 10.2547 9.94767 10.2547 11.3532C10.2547 13.1637 10.1702 14.9924 10.3013 16.7976C10.5253 19.885 10.7261 23.1326 11.3483 26.1742C11.5586 27.2024 11.6785 27.3203 12.1859 26.6861C12.5565 26.2227 12.694 25.5732 13.0002 25.0457C14.2345 22.9201 15.2877 20.844 16.118 18.5194C17.0066 16.0312 17.8731 13.5233 18.5145 10.9576C18.7323 10.0863 19.259 8.89675 19.259 8.00274C19.259 7.5318 18.884 8.1721 18.8518 8.31684C18.7278 8.87492 18.8402 9.58337 18.8402 10.1433C18.8402 14.3384 18.5419 18.6426 18.8867 22.8238C18.9009 22.9949 19.2928 27.0732 19.6313 26.8024C20.6753 25.9672 21.547 23.7626 22.1906 22.6144C23.1613 20.8828 24.0569 19.0927 24.878 17.2862C25.1241 16.7448 25.2802 15.9184 25.7039 15.4947C25.8164 15.3822 25.7505 15.9296 25.7505 16.0764C25.7505 16.8936 25.4749 17.7092 25.3782 18.5194C25.03 21.4355 25.5643 24.1357 26.3787 26.8955C26.4614 27.1757 27.5512 29.8175 27.6816 29.5712C28.2389 28.5185 28.0263 26.9416 28.1702 25.7903C28.3884 24.0447 28.6837 22.3205 28.845 20.5669C28.9467 19.4601 28.8915 18.3285 28.8915 17.2164C28.8915 15.9305 29.1009 14.6133 29.1009 13.3658C29.1009 12.8703 29.1873 14.3537 29.2638 14.8432C29.5835 16.8894 30.3572 18.7572 31.1019 20.6832C32.6097 24.5826 34.7995 27.7174 36.9419 31.2231C37.2036 31.6513 37.449 32.1845 37.477 31.3162C37.5376 29.437 37.6864 27.5826 37.6864 25.6972C37.6864 23.3834 37.8958 21.0795 37.8958 18.7869C37.8958 18.0125 37.6289 16.7336 38.0005 16.0647C38.2104 15.6869 38.0023 15.5085 38.1517 16.0066C38.5172 17.2248 38.8056 18.4112 39.2453 19.6129C39.9435 21.5213 40.6849 24.3797 42.1885 25.8834C42.7982 26.493 44.3597 21.2481 44.4687 20.7879C44.8298 19.2633 45.2249 17.7939 45.2249 16.2276C45.2249 14.5158 45.6891 12.0879 45.2132 10.4225C44.6517 8.45691 44.8061 14.4974 44.8061 16.5417C44.8061 19.0094 44.5738 21.6439 45.4343 24.0104C45.7206 24.7979 46.2347 25.524 46.4813 26.3254C47.155 28.5149 47.8958 26.1084 48.4706 25.0806C50.5114 21.432 52.6216 17.7972 55.0668 14.4011C55.2912 14.0894 56.6214 12.582 56.0673 12.0279C55.0865 11.0472 55.4856 14.3174 55.4856 14.6803C55.4856 17.5499 55.4856 20.4195 55.4856 23.2891C55.4856 23.9374 55.6317 25.1207 56.5326 25.1737C58.5744 25.2938 60.4638 21.6029 61.3023 20.1946C62.6747 17.8898 63.2028 15.2854 64.327 12.9121C64.6006 12.3345 64.4899 11.5918 64.4899 10.9344C64.4899 10.6225 64.5376 10.1184 64.4782 10.7715C64.3392 12.3013 63.9436 13.7897 63.8151 15.3318C63.6046 17.8578 63.6523 20.3832 63.6523 22.9168C63.6523 23.6355 64.2116 23.9944 64.2805 24.5455C64.3202 24.8633 64.8609 25.6144 65.0716 25.8485C65.2973 26.0993 65.2406 26.4301 65.6416 26.4301C66.5175 26.4301 67.3705 25.37 67.8403 24.7549C70.0428 21.8717 71.3666 18.7169 72.6566 15.3783C72.7753 15.0711 72.866 14.0834 72.866 14.4128C72.866 15.1845 72.866 15.9561 72.866 16.7278C72.866 19.9619 72.866 23.196 72.866 26.4301C72.866 27.1317 72.8377 27.5677 73.4942 27.8959" stroke="black" stroke-linecap="round"/>
<path d="M73.4942 27.8959C73.6919 28.8184 74.2263 30.3855 75.4835 30.3855C75.8913 30.3855 76.4069 27.2752 76.5305 26.7559C77.0978 24.3734 77.322 21.916 77.9382 19.5199C78.1441 18.7192 78.101 17.9404 78.101 17.1117C78.101 16.2742 78.966 15.9237 79.3575 15.2387C79.5216 14.9515 79.7471 14.956 79.7879 15.262C79.9406 16.407 80.2026 17.5453 80.4045 18.6822C81.2211 23.2814 83.0611 27.6677 84.7554 31.9909C85.068 32.7886 85.5141 33.5316 85.8955 34.2943C86.3829 35.2693 86.4636 32.6091 86.4655 32.5377C86.6532 25.3118 86.2594 18.3375 84.9183 11.2485C84.8869 11.0828 84.8016 9.49182 84.4878 9.49182C84.1552 9.49182 84.555 11.066 84.5925 11.1903C85.1788 13.1343 86.6203 14.9276 87.7452 16.5882C89.3904 19.0169 91.2076 21.362 93.0849 23.6148C93.684 24.3337 96.1496 27.7358 97.4707 27.4422C98.5265 27.2076 98.5541 23.0188 98.6225 22.3119C98.8986 19.4582 99.0413 16.6385 99.0413 13.7729C99.0413 12.6236 99.105 11.4542 99.0413 10.3062C99.0339 10.1736 98.8319 11.8793 98.8319 12.2373C98.8319 16.8882 98.3507 21.812 99.146 26.4069C99.1604 26.4905 100.071 30.0082 100.461 29.2687C101.742 26.8346 102.414 23.8257 103.183 21.1951C103.4 20.4501 103.951 16.5784 104.276 19.3454C104.731 23.2098 106.289 27.1448 108.232 30.4902C108.672 31.2479 108.974 31.9654 109.604 32.5959C110.337 33.3286 111.01 31.1331 111.187 30.688C112.178 28.1907 112.6 25.5077 113.269 22.9168C113.631 21.5137 113.876 19.9745 113.909 18.5194C113.922 17.9211 113.909 17.812 113.909 18.4728C113.909 19.5968 113.992 20.6259 114.223 21.7302C114.527 23.1854 115.053 25.8374 116.317 26.8489C116.579 27.0586 116.68 26.0027 116.736 25.7438C117.218 23.492 117.625 21.164 118.004 18.8917C118.182 17.8226 118.424 16.7872 118.818 15.7739C118.897 15.5722 118.984 14.8015 119.19 15.3783C120.057 17.8037 120.862 20.1483 122.076 22.4399C122.425 23.1005 122.782 23.8168 123.332 24.3361C123.98 24.9478 124.159 23.5647 124.286 23.1611C125.263 20.0519 125.635 16.9539 125.635 13.7031C125.635 12.4076 125.851 12.8544 126.38 13.9125C127.549 16.2504 128.76 18.564 130.079 20.8228C131.186 22.7174 132.148 24.6895 133.174 26.6279C133.482 27.2092 133.781 27.9949 134.43 28.2682C135.353 28.6567 136.573 27.4286 137.152 26.8489" stroke="black" stroke-linecap="round"/>
<path d="M135.687 27.2677C136.141 25.0471 136.524 23.1317 136.524 20.8693C136.524 19.7664 136.428 18.6182 136.629 17.5305C136.745 16.9012 136.906 15.8836 136.722 15.2387C136.706 15.1815 136.967 16.7174 137.199 17.2164C138.245 19.4704 139.095 21.8937 139.979 24.2198C140.691 26.0919 141.621 27.8794 142.388 29.734C142.439 29.8576 143.199 31.2629 143.225 30.5716C143.414 25.6714 144.574 20.8138 145.226 15.9717C145.41 14.6086 145.895 13.186 145.947 11.8185C145.983 10.9012 145.947 12.3844 145.947 12.6212C145.947 16.7282 146.119 20.7946 147.995 24.5455C148.308 25.1721 148.642 26.118 149.193 26.5465C150.116 27.2646 150.042 25.3535 150.135 24.7084C150.76 20.3995 151.782 16.1505 152.322 11.8301C152.599 9.62082 152.991 7.3959 153.474 5.22235C153.663 4.37061 153.486 6.96736 153.486 7.83987C153.486 10.8666 153.502 13.8514 153.8 16.8674C154.075 19.6468 154.785 22.5856 155.789 25.197C156.19 26.2399 156.649 27.7091 157.464 28.5242C158.429 29.4891 160.017 23.943 160.163 23.5101C161.483 19.6174 162.438 15.6136 163.328 11.6091C163.449 11.0613 163.648 9.2221 163.549 10.6552C163.353 13.4871 163.383 16.5479 163.653 19.3686C163.831 21.2219 163.946 23.583 164.584 25.3366C164.616 25.4228 164.764 26.132 164.84 26.1742C165.072 26.3029 165.45 23.9252 165.468 23.8242C166.061 20.5848 166.317 17.2944 166.457 14.0056C166.478 13.5036 166.376 9.69182 166.48 11.9348C166.679 16.211 167.309 20.3888 168.097 24.592C168.736 28.0002 169.44 31.3915 170.855 34.5735C170.935 34.754 171.692 36.7332 172.169 36.0859C173.009 34.9466 173.41 33.2725 173.798 31.9444C174.402 29.8749 174.938 27.7847 175.52 25.7089C176.037 23.8637 176.533 22.0087 177.044 20.1713C177.268 19.3645 177.148 20.5725 177.148 20.8228C177.148 21.6896 177.902 25.9247 178.288 23.0564C178.87 18.7321 178.823 14.286 178.823 9.93389C178.823 7.37507 179.139 4.48157 178.509 1.96498C177.56 -1.83227 178.195 9.78901 178.195 13.7031C178.195 14.9053 178.195 16.1074 178.195 17.3095C178.195 17.7629 178.207 15.5897 178.184 15.2271C178.075 13.5434 175.535 11.5809 174.007 13.0284C172.86 14.1153 173.292 16.7194 173.542 18.1238C173.682 18.9141 173.823 19.6855 173.996 20.4622C174.274 21.7133 173.222 19.6176 173.146 19.4384C171.918 16.5346 170.87 13.5087 170.029 10.469C169.894 9.98442 169.281 6.60793 168.667 6.36242C168.535 6.30954 168.518 7.48933 168.516 7.51414C168.363 9.39402 168.353 11.2587 168.353 13.1447C168.353 17.39 168.356 21.5098 169.819 25.546C171.276 29.5657 174.075 32.2563 178.451 32.2934C181.926 32.3228 185.195 32.158 188.014 29.8736C190.355 27.9765 192.311 25.7986 192.947 22.8005C193.3 21.1345 193.399 19.3105 191.388 19.3105C190.869 19.3105 190.685 19.3075 190.538 19.8223C190.372 20.4059 189.101 20.5785 188.654 20.6716C186.271 21.168 184.09 19.098 182.593 17.4956C181.079 15.876 180.032 13.7993 178.742 12.0046C177.184 9.83638 178.68 13.2395 178.986 14.0289C180.314 17.451 181.603 21.0176 183.71 24.0569C183.884 24.3083 184.976 25.9 185.443 25.325C186.023 24.6107 186.434 23.7405 186.874 22.9401C188.048 20.806 189.429 18.7936 190.597 16.658C191.791 14.4744 192.95 12.1571 193.784 9.80593C194.246 8.50414 194.388 8.25331 194.308 9.81756C194.162 12.66 194.11 15.484 194.11 18.3332C194.11 19.2901 194.592 16.4761 194.947 15.5878C195.074 15.2715 195.653 13.4279 196.204 13.7031C196.531 13.8667 196.724 14.4806 196.855 14.7734C197.476 16.1536 198.035 17.5819 198.507 19.0196C199.286 21.3899 199.798 23.8709 200.764 26.1742C201.392 27.6713 201.542 27.6329 201.765 25.9764C202.065 23.7451 202.171 21.3969 202.8 19.229C202.868 18.9949 203.324 17.6972 203.324 17.8446C203.324 19.0457 203.625 20.2875 203.742 21.4859C203.847 22.5622 203.901 23.8838 204.208 24.9178C204.529 26.0018 204.969 22.0891 204.999 21.8233C205.365 18.5917 205.758 15.3478 206.046 12.1094C206.069 11.8433 206.244 9.14785 206.418 10.1898C207.395 16.0493 208.573 21.9421 211.176 27.3492C212.339 29.7636 212.72 28.1667 213.061 26.3254C213.261 25.2426 213.356 24.1485 213.631 23.0797C213.76 22.5754 213.728 21.6887 213.957 22.6609C214.006 22.8711 214.083 24.0237 214.538 23.5683C215.283 22.8233 215.646 21.5746 216.004 20.625C216.681 18.8277 217.366 17.0356 218.075 15.2504C218.681 13.7238 219.744 11.7978 219.866 10.1433C219.904 9.64099 220.072 10.1947 220.076 10.3992C220.096 11.4963 220.007 12.5691 219.866 13.6566C219.558 16.0495 219.448 18.4701 219.448 20.881C219.448 22.0589 219.228 23.3891 220.076 24.3361C220.191 24.4646 220.538 25.1503 220.716 24.8247C221.524 23.3419 221.75 21.6183 222.053 19.9736C222.248 18.9184 222.111 17.8602 222.17 16.7976C222.216 15.9739 222.861 18.4054 222.914 18.6241C223.401 20.6132 224.104 22.5367 224.683 24.499C224.871 25.1364 225.37 26.7265 225.73 25.2901C226.399 22.6124 226.729 19.7977 227.091 17.0652C227.24 15.9356 227.716 12.5921 227.824 13.7264C228.337 19.1195 228.11 24.556 228.65 29.9551C228.733 30.7854 229.002 30.8814 229.499 30.1063C230.592 28.4018 231.059 26.1617 231.849 24.2896C232.659 22.3695 232.849 20.3567 233.373 18.3681C233.42 18.1874 233.477 17.1244 233.477 17.4724C233.477 19.5741 233.477 21.6759 233.477 23.7777C233.477 25.3443 233.477 26.911 233.477 28.4776C233.477 28.8426 233.268 29.6979 233.268 28.8499C233.268 25.6337 234.524 22.57 234.524 19.357C234.524 18.2945 234.524 17.2319 234.524 16.1694C234.524 14.9094 233.854 13.9613 233.268 12.9353C232.892 12.2768 231.235 12.6096 230.592 12.6096C230.27 12.6096 229.305 12.6096 229.627 12.6096C230.289 12.6096 231.041 12.2397 231.686 12.0861C232.625 11.8625 233.367 11.4754 233.687 10.5156" stroke="black" stroke-linecap="round"/>
</svg>
