<svg width="378" height="29" viewBox="0 0 378 29" fill="none" xmlns="http://www.w3.org/2000/svg">
<path d="M323.196 16.7293C323.196 15.5317 323.196 14.3342 323.196 13.1366C323.196 12.8933 322.855 12.3509 323.072 12.1341C323.316 11.89 324.905 12.0987 325.13 12.0987C328.337 12.0987 331.516 11.939 334.729 11.939C335.606 11.939 336.495 11.7793 337.328 11.7793C338.03 11.7793 338.682 10.9836 339.164 10.5019C340.415 9.25113 341.576 7.93065 342.828 6.67844C343.84 5.66599 344.685 4.20121 345.791 3.31631C346.109 3.0615 346.669 3.3518 347.148 3.28083C348.543 3.07421 350.014 2.88275 351.424 2.83727C352.534 2.80148 353.618 2.51792 354.733 2.51792C355.617 2.51792 356.641 2.44783 357.527 2.34937C358.366 2.25612 359.202 2.07015 360.047 2.03888C360.935 2.00599 360.577 1.84485 361.235 2.5534C362.057 3.43785 362.774 4.34558 363.666 5.15262C364.193 5.62977 364.784 6.10173 365.281 6.5986C365.736 7.05375 366.151 7.53973 366.593 7.98248C366.812 8.20086 366.92 8.73066 367.303 8.74539C368.667 8.79785 369.986 9.28931 371.348 9.46395C372.555 9.61865 373.924 9.61862 375.092 9.94299C375.662 10.1014 376.325 10.0741 376.848 10.3067C377.451 10.5744 377.487 10.0685 377.487 10.8212C377.487 12.6309 377.487 14.4406 377.487 16.2503" stroke="black" stroke-linecap="round"/>
<path d="M323.037 17.0488C324.58 17.0488 326.124 17.0488 327.667 17.0488C327.964 17.0488 329.821 17.2141 329.894 16.96C329.957 16.7393 329.743 16.2841 329.743 16.0108C329.743 15.4954 329.856 15.4785 330.222 15.1326C331.11 14.2945 332.53 13.4123 333.735 14.0503C334.993 14.7162 334.938 15.63 335.013 16.8891C335.035 17.2715 346.212 17.0488 347.184 17.0488C350.351 17.0488 353.602 16.8891 356.729 16.8891C357.53 16.8891 358.332 16.8891 359.133 16.8891C359.782 16.8891 360.328 16.9264 360.951 17.0399C361.536 17.1461 361.445 17.0327 361.04 16.7294" stroke="black" stroke-linecap="round"/>
<path d="M360.88 16.5697C361.223 15.0076 363.026 13.3761 364.713 13.3761C366.412 13.3761 364.676 16.41 366.558 16.41C367.787 16.41 368.976 16.889 370.222 16.889C371.073 16.889 371.925 16.889 372.777 16.889C373.522 16.889 374.267 16.889 375.012 16.889C375.537 16.889 377.292 17.1728 376.529 16.41" stroke="black" stroke-linecap="round"/>
<path d="M363.914 15.7712C362.881 17.1922 362.057 20.8869 364.872 20.7213C365.573 20.6801 365.802 18.0723 365.831 17.5277C365.904 16.1312 364.982 16.2869 363.914 15.9309" stroke="black" stroke-linecap="round"/>
<path d="M333.096 16.5696C332.073 16.5696 331.715 16.5115 331.056 17.2438C330.371 18.0049 330.235 19.3085 329.584 20.0825C329.103 20.6533 329.264 21.6532 329.264 22.3535C329.264 23.4227 329.961 23.4358 330.861 23.4358C333.746 23.4358 335.64 16.0906 333.096 16.0906" stroke="black" stroke-linecap="round"/>
<path d="M361.04 3.79543C360.259 3.79543 358.898 3.51898 358.246 4.02608C357.968 4.24184 357.66 4.37283 357.403 4.62931C357.195 4.83719 357.543 4.89144 357.687 5.14383C357.983 5.6611 358.411 6.13056 358.681 6.66965C358.918 7.14446 359.395 7.50196 359.568 7.98257C359.722 8.41194 360.113 8.73301 360.233 9.15354C360.452 9.91999 360.9 9.86323 361.617 9.86323C362.583 9.86323 364.442 9.8881 365.227 9.26C365.551 9.00075 366.528 8.90515 366.948 8.90515" stroke="black" stroke-linecap="round"/>
<path d="M321.652 15.6701C317.91 14.4227 315.156 12.7873 311.863 10.6626C309.392 9.06805 306.324 7.58908 304.238 5.504C303.391 4.6566 302.312 3.6406 301.269 3.08829C299.928 2.37819 300.848 2.12316 300.263 3.44058C297.921 8.70817 294.842 14.3596 293.594 19.9731C292.695 24.0216 291.776 21.8004 289.845 19.646C288.023 17.6141 286.921 14.9107 284.963 12.9525C283.068 11.0575 280.998 9.38507 279.075 7.5171C278.611 7.0664 273.186 1.84394 273.186 4.14516C273.186 6.6491 272 9.53233 271.123 11.8452C270.22 14.2254 268.226 17.0193 267.776 19.495C267.344 21.8725 267.56 23.8325 266.745 26.1886C266.304 27.4626 266.505 28.1729 265.235 27.4467C263.915 26.6925 262.216 25.3879 261.183 24.2761C258.964 21.8859 256.525 19.2669 254.163 17.029C251.811 14.8013 248.806 13.3539 246.463 11.1407C244.949 9.71094 242.869 8.35608 241.254 7.06415C239.991 6.05364 238.239 3.36365 236.297 3.91869C235.812 4.05709 236.105 5.80108 235.693 6.25891C234.497 7.58774 233.719 9.35146 232.421 10.6877C230.836 12.3199 228.8 13.779 227.439 15.5695C227.052 16.0791 225.839 17.4428 225.174 17.4819C221.947 17.6718 220.802 15.8271 218.606 13.6319C216.784 11.8093 216.473 8.75897 214.857 6.96349C213.419 5.36614 213.11 3.0611 210.906 2.08174C209.814 1.59616 208.93 1.62879 207.736 1.62879C206.022 1.62879 206.298 2.41896 205.018 2.98763C204.406 3.25969 203.335 4.96726 203.08 5.60466C202.594 6.82084 201.178 7.05382 200.262 7.97004C196.718 11.5146 193.773 15.5252 191.405 19.9983C190.058 22.5426 187.363 22.0114 184.862 22.0114C180.068 22.0114 176.436 21.7386 172.859 18.1613C169.532 14.8344 164.746 13.778 162.668 9.10241C161.596 6.69183 160.414 5.05716 158.138 3.79287C155.961 2.5834 155.464 0.7229 152.703 0.7229C147.493 0.7229 147.43 8.74917 145.204 12.2479C143.767 14.5061 134.288 22.7763 133.679 21.5584" stroke="black" stroke-linecap="round"/>
<path d="M134.585 21.5585C132.06 21.5585 128.317 22.1796 125.979 21.1055C123.802 20.1055 121.649 19.0016 119.638 17.7084C117.476 16.3186 115.196 15.376 113.85 12.9525C113.136 11.668 111.761 7.34094 111.007 9.9832C110.733 10.9404 108.588 11.8539 107.861 12.2983C105.07 14.0037 102.019 16.5295 99.708 18.8408C99.2795 19.2693 97.21 22.2631 96.5374 22.2631C96.0677 22.2631 96.5374 21.3236 96.5374 20.8539C96.5374 20.1074 96.5374 19.3609 96.5374 18.6143C96.5374 16.4508 94.9834 13.6031 92.8132 12.8519C88.4904 11.3555 84.581 13.6021 81.3637 16.3244C79.8355 17.6176 76.0564 22.4644 74.1166 22.4644C72.7641 22.4644 70.387 15.6292 69.9142 14.2107C69.0168 11.5183 67.5605 7.98181 65.5106 5.93184C63.3185 3.73973 63.3055 2.55154 60.7546 5.25242C57.7665 8.41633 55.4421 11.7273 53.0797 15.4186C51.622 17.6963 48.8639 19.0811 47.9715 21.6591C47.267 23.6944 47.4823 28.6688 44.675 25.8615C41.3044 22.4909 38.4118 18.6924 35.0373 15.3179C33.779 14.0595 32.7995 12.6271 31.5396 11.3672C31.2838 11.1114 29.9543 9.28461 29.9543 9.78189" stroke="black" stroke-linecap="round"/>
<path d="M29.9196 9.51255C29.2035 7.82742 28.3052 6.66961 26.4543 7.19845C25.7643 7.39558 24.7753 7.37725 24.0588 7.41939C23.3317 7.46216 22.9512 8.09615 22.4889 8.46597C21.8976 8.93906 21.5578 10.0779 21.1284 10.7219C20.1554 12.1814 19.2968 13.8037 18.5119 15.3734C17.7226 16.9522 17.0242 18.4716 16.57 20.1876C16.3337 21.0803 15.8353 22.5503 15.1629 23.2227C14.5187 23.8669 13.7635 24.4416 12.9535 24.8972C11.3717 25.787 9.10109 27.472 7.26705 27.5137C5.25591 27.5594 2.91542 26.5629 2.29 24.3739C1.97361 23.2666 1.03411 22.1939 1.03411 20.9784C1.03411 18.6632 0.502666 15.6355 1.40622 13.4895C2.09772 11.8472 2.49931 6.47471 2.49931 8.25665" stroke="black" stroke-linecap="round"/>
</svg>
