<svg width="42" height="30" viewBox="0 0 42 30" fill="none" xmlns="http://www.w3.org/2000/svg">
<path d="M1.16859 27.9052C1.16859 26.3649 1.09935 24.8566 1.59333 23.3747C2.01386 22.1131 2.26157 20.8138 2.66304 19.552C3.42144 17.1685 3.85029 14.675 5.21148 12.536C5.83374 11.5581 6.59118 10.5622 7.28798 9.64144C8.30305 8.30009 9.52389 6.83598 10.8039 5.74799C12.3489 4.43475 13.8107 2.95009 15.7199 2.1377C16.4655 1.82039 17.1248 1.41832 17.9379 1.28823C18.5696 1.18716 19.2504 1.22949 19.865 1.07586C21.115 0.763345 22.6743 1.00507 23.9629 1.00507C24.8488 1.00507 25.3886 1.07347 26.1574 1.50059C27.2428 2.10359 28.259 2.72695 29.3508 3.34113C30.4683 3.96971 31.4447 4.77918 32.4577 5.56708C33.5454 6.41303 34.8211 7.40989 35.6511 8.51666C36.5416 9.7039 37.4772 10.8544 38.3726 12.0483C39.2221 13.1809 39.4173 14.3944 39.7491 15.7215C40.422 18.4129 39.8199 21.4563 39.8199 24.1927C39.8199 24.7738 39.6783 25.2578 39.6783 25.8523C39.6783 26.1104 39.6935 26.3735 39.6783 26.631C39.6651 26.8559 38.5972 26.8505 38.4041 26.8827C36.3695 27.2218 34.3596 27.5506 32.3162 27.8344C30.6341 28.0681 28.8853 28.0082 27.1878 28.0468C25.7156 28.0803 24.2319 28.4716 22.7516 28.4716C20.7459 28.4716 18.7439 28.6131 16.7424 28.6131C15.1964 28.6131 13.7522 28.33 12.2433 28.33C10.6832 28.33 9.09813 28.4079 7.53968 28.33C5.41811 28.2239 -0.955636 28.1884 1.16859 28.1884" stroke="black" stroke-linecap="round"/>
<path d="M10.796 5.96037C12.3534 5.99151 13.9352 6.47033 15.4052 6.95143C16.8169 7.41342 18.2367 7.61496 19.6841 7.91102C21.7408 8.33172 23.7015 8.36722 25.8035 8.36722C26.7297 8.36722 27.9189 8.57539 28.7766 8.19418C29.276 7.97223 29.7086 7.72822 30.1924 7.48628C30.8415 7.16176 32.4285 6.44362 32.7409 5.81879" stroke="black" stroke-linecap="round"/>
<path d="M4.84966 12.3314C8.28051 12.3314 11.7219 13.2405 15.1221 13.6764C16.5272 13.8566 17.7805 13.9019 19.1492 14.2821C20.2269 14.5814 21.3792 14.8446 22.4842 15.0214C23.3983 15.1677 24.3208 15.3316 25.2372 15.4462C26.237 15.5712 27.2807 15.4762 28.2654 15.6585C30.5233 16.0767 32.8109 15.4767 34.9275 14.872C35.5162 14.7038 36.6386 14.1985 37.1299 13.8573C37.6784 13.4764 38.7986 13.2414 39.112 12.6146" stroke="black" stroke-linecap="round"/>
<path d="M2.72595 19.552C4.87839 19.552 6.77259 19.9296 8.87681 20.37C12.0675 21.0378 15.2736 21.6665 18.4492 22.3993C21.1049 23.0122 23.7141 23.5162 26.4406 23.5162C28.3673 23.5162 30.2446 23.7994 32.1746 23.7994C33.2929 23.7994 36.0055 24.2458 36.8782 23.5477C37.2713 23.2332 38.2093 23.686 38.6872 23.4848C39.1591 23.2861 40.3589 23.1733 40.5278 22.6668" stroke="black" stroke-linecap="round"/>
</svg>
