<svg width="31" height="26" viewBox="0 0 31 26" fill="none" xmlns="http://www.w3.org/2000/svg">
<path d="M23.1076 0.69635C23.1076 4.05615 23.0735 7.67551 24.0849 10.9123C24.363 11.8019 24.5576 12.7094 24.7616 13.6271C24.9136 14.3112 25.1058 15.0428 25.2043 15.7321C25.2326 15.9301 25.5196 16.4105 25.2795 16.3419C24.0821 15.9998 23.1026 15.8824 21.8296 15.8824C18.1069 15.8824 14.3841 15.8824 10.6614 15.8824C9.70958 15.8824 8.74851 16.1832 7.77118 16.1832C7.4972 16.1832 5.80288 16.354 6.0003 16.6008C6.38226 17.0783 6.26761 17.7472 6.26761 18.3633C6.26761 18.378 8.77771 18.7091 9.12439 18.7476C11.9944 19.0665 14.8565 19.0399 17.7699 19.0399C19.1713 19.0399 20.5589 18.8896 21.9382 18.8896C22.3005 18.8896 22.8629 18.9951 23.141 18.7726C23.3796 18.5818 23.8882 18.8967 24.1267 18.7058C24.6464 18.2901 25.5133 18.9936 25.5133 17.9874C25.5133 17.2858 25.5133 16.5841 25.5133 15.8824" stroke="black" stroke-linecap="round"/>
<path d="M18.8976 0.69635H26.8666" stroke="black" stroke-linecap="round"/>
<path d="M25.2126 19.04C23.763 19.04 23.0831 19.2306 21.838 19.9421C20.8361 20.5146 21.2257 21.437 21.4621 22.2643C21.9036 23.8096 24.5789 24.9928 26.0312 24.0686C26.8887 23.5229 31.338 22.1059 29.2389 20.4266C28.1277 19.5377 26.0194 18.7393 24.6112 18.7393" stroke="black" stroke-linecap="round"/>
<path d="M7.32011 18.8896C6.02671 18.8896 -0.0111105 18.2271 1.48959 21.2285C1.98636 22.222 2.32014 23.1053 3.11011 23.8514C4.15858 24.8416 6.43904 24.7535 7.76283 24.7535C8.8173 24.7535 9.76304 24.9995 10.0349 23.7762C10.2812 22.6677 10.8228 21.5841 11.0707 20.4683C11.2045 19.8663 10.2692 19.3752 9.80101 19.1151C9.03239 18.6881 8.34037 18.5889 7.47047 18.5889" stroke="black" stroke-linecap="round"/>
</svg>
