<svg width="377" height="58" viewBox="0 0 377 58" fill="none" xmlns="http://www.w3.org/2000/svg">
<path d="M0.907761 11.9246C0.907761 16.2051 0.907761 20.4856 0.907761 24.7661C0.907761 27.2946 0.600129 30.0605 1.0756 32.546C1.29172 33.6758 1.13584 36.4713 2.08261 37.2327C2.94829 37.9289 3.04993 39.0778 3.27611 40.1009C3.73879 42.194 4.26447 48.6002 4.26447 46.4561C4.26447 40.4664 4.93581 34.4731 4.93581 28.478C4.93581 23.845 4.55963 18.7067 6.09201 14.3054C6.52561 13.06 6.94984 10.713 6.94984 13.4243C6.94984 16.3515 6.82946 19.2153 7.63983 22.0666C9.24198 27.7037 10.5142 33.5571 12.4884 39.0699C12.7145 39.7013 12.8741 41.0726 13.4022 41.5444C13.4577 41.594 14.0595 37.7845 14.1481 37.3264C15.2643 31.5556 16.3486 26.2062 16.3486 20.3606C16.3486 19.8193 16.3486 14.7213 16.3486 16.9862C16.3486 19.9038 16.2132 22.8507 16.4232 25.7597C16.7824 30.7348 17.1043 35.9682 18.1016 40.8696C18.4387 42.5264 18.6309 42.7165 19.4442 41.6944C20.0384 40.9478 20.2587 39.9011 20.7496 39.0511C22.7281 35.6258 24.4165 32.2803 25.7474 28.5342C27.1719 24.5247 28.5608 20.4832 29.589 16.3488C29.9381 14.9448 30.7825 13.0278 30.7825 11.5872C30.7825 10.8283 30.1813 11.8601 30.1298 12.0933C29.931 12.9926 30.1111 14.1343 30.1111 15.0366C30.1111 21.7968 29.6329 28.7328 30.1857 35.4705C30.2083 35.7462 30.8367 42.3182 31.3792 41.8819C33.0528 40.5359 34.45 36.9833 35.4819 35.1331C37.0379 32.3428 38.4734 29.458 39.7896 26.5471C40.1841 25.6745 40.4344 24.3429 41.1137 23.6601C41.294 23.4788 41.1883 24.3609 41.1883 24.5974C41.1883 25.9143 40.7466 27.2287 40.5915 28.5342C40.0334 33.2335 40.8898 37.5846 42.1953 42.0319C42.3279 42.4835 44.0748 46.7406 44.2839 46.3436C45.1772 44.6473 44.8364 42.1062 45.0671 40.2509C45.4169 37.438 45.8902 34.6596 46.1487 31.8336C46.3119 30.0502 46.2233 28.2266 46.2233 26.4346C46.2233 24.3624 46.559 22.2398 46.559 20.2294C46.559 19.431 46.6975 21.8214 46.8201 22.6102C47.3326 25.9076 48.5727 28.9175 49.7665 32.0211C52.1835 38.3049 55.6938 43.3564 59.128 49.0056C59.5475 49.6957 59.9409 50.5548 59.9858 49.1556C60.083 46.1274 60.3215 43.1391 60.3215 40.1009C60.3215 36.3724 60.6572 32.6597 60.6572 28.9654C60.6572 27.7174 60.2293 25.6565 60.825 24.5786C61.1615 23.9698 60.8279 23.6824 61.0674 24.4849C61.6533 26.4481 62.1156 28.3598 62.8204 30.2964C63.9395 33.3716 65.1281 37.9779 67.5384 40.4009C68.5157 41.3833 71.0188 32.9313 71.1935 32.1898C71.7723 29.733 72.4056 27.3652 72.4056 24.8411C72.4056 22.0826 73.1498 18.1702 72.387 15.4865C71.4868 12.319 71.7343 22.0531 71.7343 25.3473C71.7343 29.3238 71.3619 33.5692 72.7413 37.3827C73.2004 38.6517 74.0244 39.8218 74.4197 41.1133C75.4996 44.6415 76.6871 40.7635 77.6085 39.1074C80.8799 33.2277 84.2626 27.3704 88.1822 21.8979C88.5419 21.3955 90.6742 18.9664 89.7859 18.0735C88.2138 16.4931 88.8535 21.7629 88.8535 22.3478C88.8535 26.972 88.8535 31.5962 88.8535 36.2204C88.8535 37.265 89.0877 39.1719 90.5319 39.2573C93.8048 39.4509 96.8336 33.5031 98.1777 31.2337C100.378 27.5196 101.224 23.3229 103.026 19.4983C103.465 18.5675 103.287 17.3707 103.287 16.3113C103.287 15.8087 103.364 14.9965 103.269 16.0489C103.046 18.5141 102.412 20.9126 102.206 23.3976C101.868 27.4681 101.945 31.5376 101.945 35.6205C101.945 36.7786 102.841 37.357 102.952 38.245C103.015 38.7572 103.882 39.9675 104.22 40.3446C104.582 40.7489 104.491 41.282 105.134 41.282C106.538 41.282 107.905 39.5736 108.658 38.5825C112.189 33.9363 114.311 28.8526 116.379 23.4726C116.569 22.9775 116.714 21.3859 116.714 21.9166C116.714 23.1601 116.714 24.4037 116.714 25.6472C116.714 30.8588 116.714 36.0704 116.714 41.282C116.714 42.4126 116.669 43.1151 117.721 43.6441" stroke="black" stroke-linecap="round"/>
<path d="M117.721 43.6441C118.038 45.1306 118.895 47.6559 120.91 47.6559C121.564 47.6559 122.39 42.6438 122.588 41.807C123.498 37.9678 123.857 34.0078 124.845 30.1465C125.175 28.8562 125.106 27.6013 125.106 26.2659C125.106 24.9163 126.493 24.3515 127.12 23.2477C127.383 22.7849 127.745 22.7921 127.81 23.2852C128.055 25.1303 128.475 26.9646 128.798 28.7967C130.108 36.208 133.057 43.2763 135.773 50.243C136.274 51.5284 136.989 52.7258 137.6 53.9548C138.382 55.5259 138.511 51.2391 138.514 51.1241C138.815 39.4799 138.184 28.2411 136.034 16.8176C135.984 16.5506 135.847 13.9868 135.344 13.9868C134.811 13.9868 135.452 16.5235 135.512 16.7238C136.452 19.8565 138.762 22.7464 140.566 25.4223C143.203 29.336 146.116 33.1151 149.125 36.7453C150.085 37.9038 154.038 43.3861 156.156 42.913C157.848 42.535 157.892 35.7848 158.002 34.6457C158.444 30.0471 158.673 25.5034 158.673 20.8856C158.673 19.0336 158.775 17.1491 158.673 15.2991C158.661 15.0855 158.337 17.8341 158.337 18.411C158.337 25.9057 157.566 33.8402 158.841 41.2446C158.864 41.3794 160.324 47.0479 160.948 45.8563C163.002 41.9339 164.08 37.0851 165.312 32.846C165.661 31.6455 166.543 25.4065 167.065 29.8653C167.794 36.0926 170.292 42.4338 173.405 47.8247C174.111 49.0456 174.595 50.2018 175.606 51.2178C176.78 52.3986 177.859 48.8607 178.142 48.1434C179.731 44.1191 180.408 39.7956 181.48 35.6205C182.06 33.3595 182.454 30.8792 182.506 28.5343C182.527 27.5701 182.506 27.3944 182.506 28.4593C182.506 30.2705 182.639 31.9289 183.009 33.7084C183.497 36.0533 184.339 40.3269 186.366 41.9569C186.786 42.2949 186.948 40.5933 187.037 40.176C187.811 36.5475 188.463 32.796 189.07 29.1342C189.356 27.4115 189.744 25.7429 190.375 24.1101C190.501 23.7851 190.642 22.5431 190.972 23.4727C192.361 27.381 193.652 31.1592 195.597 34.8519C196.158 35.9166 196.729 37.0708 197.611 37.9076C198.649 38.8933 198.937 36.6645 199.14 36.0142C200.707 31.0039 201.303 26.0115 201.303 20.7731C201.303 18.6854 201.649 19.4054 202.497 21.1106C204.371 24.8779 206.313 28.6062 208.427 32.2461C210.2 35.2991 211.742 38.4771 213.387 41.6008C213.881 42.5376 214.361 43.8036 215.401 44.244C216.881 44.8701 218.836 42.891 219.765 41.9569" stroke="black" stroke-linecap="round"/>
<path d="M217.416 42.6318C218.144 39.0533 218.758 35.9667 218.758 32.3211C218.758 30.5437 218.603 28.6935 218.926 26.9408C219.113 25.9266 219.371 24.2867 219.075 23.2477C219.049 23.1554 219.468 25.6304 219.84 26.4346C221.517 30.0668 222.879 33.9718 224.297 37.7201C225.438 40.737 226.929 43.6174 228.157 46.6061C228.239 46.8053 229.457 49.0698 229.5 47.9558C229.802 40.0593 231.662 32.2316 232.707 24.4287C233.001 22.2322 233.779 19.9397 233.863 17.7361C233.92 16.2578 233.863 18.6481 233.863 19.0296C233.863 25.6478 234.139 32.2007 237.146 38.245C237.648 39.2548 238.183 40.779 239.066 41.4695C240.546 42.6268 240.427 39.547 240.577 38.5075C241.579 31.5639 243.217 24.7168 244.083 17.7549C244.525 14.1946 245.155 10.6093 245.929 7.10672C246.232 5.73418 245.948 9.91871 245.948 11.3247C245.948 16.2022 245.973 21.0119 246.451 25.8722C246.892 30.351 248.03 35.0868 249.64 39.2949C250.283 40.9754 251.019 43.3429 252.325 44.6564C253.872 46.2114 256.416 37.2741 256.652 36.5766C258.767 30.3037 260.298 23.8516 261.724 17.3987C261.919 16.5159 262.237 13.5521 262.078 15.8614C261.765 20.425 261.813 25.3573 262.246 29.9027C262.531 32.8891 262.716 36.694 263.738 39.5198C263.788 39.6588 264.027 40.8015 264.148 40.8696C264.52 41.077 265.126 37.2454 265.155 37.0827C266.106 31.8625 266.516 26.5602 266.74 21.2605C266.775 20.4516 266.611 14.3091 266.778 17.9236C267.097 24.8144 268.107 31.5467 269.37 38.32C270.394 43.8121 271.523 49.2769 273.79 54.4047C273.918 54.6955 275.132 57.8849 275.897 56.8418C277.243 55.0058 277.886 52.3081 278.508 50.168C279.476 46.8331 280.335 43.4649 281.268 40.1197C282.097 37.1463 282.892 34.157 283.711 31.1963C284.07 29.896 283.878 31.8427 283.878 32.2461C283.878 33.6429 285.087 40.4675 285.706 35.8455C286.639 28.8771 286.564 21.7124 286.564 14.6991C286.564 10.5757 287.069 5.91299 286.06 1.85763C284.538 -4.26145 285.557 14.4657 285.557 20.7731C285.557 22.7102 285.557 24.6474 285.557 26.5846C285.557 27.3151 285.576 23.8132 285.538 23.2289C285.364 20.5156 281.293 17.3532 278.843 19.6858C277.004 21.4373 277.697 25.6336 278.097 27.8968C278.323 29.1702 278.548 30.4134 278.825 31.6649C279.27 33.681 277.585 30.3039 277.463 30.0152C275.494 25.3358 273.815 20.4598 272.466 15.5615C272.25 14.7806 271.268 9.33952 270.284 8.9439C270.072 8.85867 270.045 10.7599 270.041 10.7998C269.795 13.8292 269.78 16.8341 269.78 19.8732C269.78 26.7143 269.785 33.3531 272.13 39.8573C274.465 46.3349 278.952 50.6706 285.967 50.7304C291.537 50.7778 296.777 50.5122 301.296 46.831C305.049 43.7739 308.183 40.2643 309.203 35.433C309.769 32.7483 309.928 29.809 306.704 29.809C305.873 29.809 305.578 29.8042 305.343 30.6339C305.075 31.5743 303.038 31.8523 302.322 32.0024C298.502 32.8024 295.006 29.4666 292.606 26.8845C290.179 24.2746 288.501 20.928 286.433 18.0361C283.935 14.542 286.334 20.0259 286.825 21.298C288.953 26.8126 291.019 32.5601 294.396 37.4577C294.675 37.8628 296.426 40.4277 297.175 39.5011C298.105 38.35 298.763 36.9478 299.468 35.658C301.35 32.2191 303.564 28.9761 305.436 25.5348C307.35 22.0159 309.208 18.2817 310.546 14.4929C311.286 12.3952 311.513 11.991 311.385 14.5117C311.151 19.0921 311.068 23.6428 311.068 28.2343C311.068 29.7761 311.841 25.2416 312.41 23.8101C312.613 23.3004 313.542 20.3296 314.424 20.7731C314.949 21.0367 315.258 22.026 315.469 22.4978C316.464 24.7219 317.36 27.0235 318.117 29.3403C319.364 33.1599 320.186 37.158 321.735 40.8696C322.741 43.2821 322.981 43.2202 323.338 40.5509C323.82 36.9552 323.989 33.1712 324.998 29.6778C325.107 29.3005 325.837 27.2094 325.837 27.4469C325.837 29.3824 326.321 31.3835 326.509 33.3146C326.677 35.0491 326.763 37.1788 327.254 38.8449C327.769 40.5917 328.474 34.2866 328.523 33.8583C329.109 28.6508 329.739 23.4234 330.201 18.2048C330.239 17.776 330.519 13.4325 330.798 15.1116C332.363 24.5538 334.252 34.0498 338.425 42.763C340.288 46.6538 340.899 44.0805 341.446 41.1133C341.767 39.3684 341.919 37.6053 342.36 35.8829C342.568 35.0703 342.515 33.6415 342.882 35.2081C342.961 35.5468 343.084 37.4042 343.814 36.6703C345.008 35.4699 345.591 33.4575 346.164 31.9274C347.249 29.0311 348.348 26.1431 349.483 23.2664C350.454 20.8064 352.159 17.7028 352.355 15.0366C352.415 14.2271 352.685 15.1194 352.691 15.449C352.724 17.2169 352.58 18.9457 352.355 20.6981C351.86 24.5542 351.684 28.4549 351.684 32.3398C351.684 34.238 351.333 36.3815 352.691 37.9076C352.875 38.1146 353.432 39.2196 353.717 38.695C355.013 36.3055 355.375 33.528 355.861 30.8776C356.173 29.1773 355.953 27.4719 356.048 25.7597C356.121 24.4323 357.155 28.3506 357.241 28.703C358.02 31.9083 359.147 35.008 360.076 38.17C360.377 39.1972 361.178 41.7596 361.754 39.4448C362.827 35.1299 363.356 30.5942 363.936 26.1909C364.176 24.3706 364.938 18.9827 365.111 20.8106C365.934 29.5013 365.569 38.2619 366.435 46.9623C366.568 48.3003 366.999 48.4549 367.796 47.206C369.549 44.4593 370.297 40.8494 371.563 37.8326C372.862 34.7385 373.167 31.4949 374.006 28.2905C374.082 27.9993 374.174 26.2863 374.174 26.847C374.174 30.2339 374.174 33.6208 374.174 37.0078C374.174 39.5323 374.174 42.0569 374.174 44.5814C374.174 45.1695 373.838 46.5478 373.838 45.1813C373.838 39.9985 375.852 35.0616 375.852 29.884C375.852 28.1718 375.852 26.4596 375.852 24.7474C375.852 22.717 374.778 21.1891 373.838 19.5358C373.235 18.4746 370.579 19.0109 369.549 19.0109C369.033 19.0109 367.485 19.0109 368.001 19.0109C369.063 19.0109 370.268 18.4148 371.302 18.1673C372.808 17.8069 373.997 17.1832 374.509 15.6365" stroke="black" stroke-linecap="round"/>
</svg>
