<svg width="31" height="29" viewBox="0 0 31 29" fill="none" xmlns="http://www.w3.org/2000/svg">
<path d="M4.14355 1.8266C4.96753 2.91424 6.51765 4.16724 6.51765 5.64211C6.51765 5.87506 6.76851 7.22753 6.89449 7.385C7.06115 7.59332 7.19597 8.64371 7.19597 8.60974" stroke="black" stroke-linecap="round"/>
<path d="M20.2535 1.65704C21.6222 1.95749 22.7132 3.54773 23.5509 4.62467C23.8577 5.01914 25.0886 6.8705 24.3234 7.25313" stroke="black" stroke-linecap="round"/>
<path d="M24.493 15.0537C25.4281 13.8761 26.8161 13.0697 27.8845 12.0013" stroke="black" stroke-linecap="round"/>
<path d="M24.493 22.176C26.045 21.2521 27.5444 20.4694 28.657 19.0388C29.0466 18.5379 29.5399 17.5328 30.089 17.2582" stroke="black" stroke-linecap="round"/>
<path d="M3.80438 1.48743C3.80438 4.24665 4.14354 6.75138 4.14354 9.45761" stroke="black" stroke-linecap="round"/>
<path d="M20.5927 1.48743C20.5927 3.6211 21.4405 5.68529 21.4405 7.76183C21.4405 8.21061 21.6511 10.326 21.9493 10.4751" stroke="black" stroke-linecap="round"/>
<path d="M2.78691 27.7721C2.78691 25.916 2.27817 24.1116 2.27817 22.3456C2.27817 21.1372 1.93901 19.9567 1.93901 18.7844C1.93901 16.4607 1.09112 14.1048 1.09112 11.8317C1.09112 11.6386 0.840366 11.3377 1.09112 11.323C1.5239 11.2975 1.85634 11.2739 2.27817 11.1534C3.12564 10.9113 3.91397 10.3055 4.82185 10.3055C6.24568 10.3055 7.76551 9.79677 9.26857 9.79677C11.6989 9.79677 14.1115 9.45761 16.5604 9.45761C18.4132 9.45761 20.266 9.45761 22.1188 9.45761C22.9274 9.45761 23.1363 9.35517 23.1363 10.2207C23.1363 11.2915 23.468 12.3456 23.6827 13.3956C24.0586 15.2333 24.6625 17.2695 24.6625 19.1236C24.6625 20.4147 25.0017 21.7126 25.0017 23.0239C25.0017 23.5858 25.2097 24.2569 25.3314 24.8045C25.4049 25.135 25.5513 26.2447 24.8698 25.6995C24.4916 25.3969 23.349 25.5316 22.8725 25.577C21.5508 25.7029 20.1895 25.9691 18.8969 26.2836C17.1455 26.7096 15.0689 27.4329 13.2631 27.4329C9.98539 27.4329 6.5171 27.9417 3.29564 27.9417" stroke="black" stroke-linecap="round"/>
</svg>
