<svg width="40" height="30" viewBox="0 0 40 30" fill="none" xmlns="http://www.w3.org/2000/svg">
<path d="M8.17891 11.1349C6.79836 11.1349 5.1938 11.0356 3.94571 11.7672C3.29855 12.1466 1.94755 12.433 1.70616 13.2778C1.45924 14.1421 0.794048 15.1318 0.748858 16.0356C0.695123 17.1103 0.748858 18.2002 0.748858 19.2763C0.748858 21.0617 2.09271 22.6537 3.50658 23.5534C4.1004 23.9313 5.08773 24.4141 5.80761 24.4141C6.31408 24.4141 8.35003 24.714 8.65316 24.3351C8.9978 23.9043 9.62388 23.5613 10.0057 23.0704C10.5021 22.4322 10.9976 22.0088 11.3758 21.2524C11.8858 20.2323 12.1756 18.0723 11.6919 16.9841C11.4055 16.3395 11.3178 15.6681 11.0245 15.008C10.7727 14.4415 10.241 14.0503 9.95298 13.5062C9.40862 12.4779 8.21173 11.6256 7.23039 11.1349" stroke="black" stroke-linecap="round"/>
<path d="M35.0536 11.7672C33.3175 11.7672 31.5815 11.7672 29.8455 11.7672C29.3252 11.7672 28.3915 11.5854 27.9748 11.9604C27.3686 12.5061 27.0435 13.3488 26.675 14.0595C25.745 15.8529 24.8323 18.2584 24.6287 20.2951C24.4317 22.2648 24.3641 24.557 25.2873 26.3111C26.2265 28.0956 30.0542 29.1804 31.9006 28.6034C34.7165 27.7234 36.4043 25.4001 37.8113 22.842C38.5491 21.5006 39.4825 19.8722 38.3382 18.442C37.8061 17.7768 37.4875 17.2351 37.1087 16.4395C36.7793 15.7478 36.6241 14.9555 36.1602 14.3756C35.4388 13.4739 34.4611 12.9537 33.947 11.9253" stroke="black" stroke-linecap="round"/>
<path d="M10.234 12.8738C11.279 11.4527 12.3784 10.0864 13.3958 8.64065C13.9808 7.80925 14.3019 8.13127 15.2138 8.13127C16.7946 8.13127 18.3755 8.13127 19.9563 8.13127C20.9799 8.13127 22.0417 7.97318 23.1005 7.97318C23.4018 7.97318 23.7969 8.04395 24.0666 7.89414C24.6191 7.58718 24.459 8.00916 24.655 8.25422C25.7823 9.66337 28.7467 14.1717 27.9397 12.5577" stroke="black" stroke-linecap="round"/>
<path d="M23.8294 7.97314C24.6439 7.3561 25.483 6.81622 26.3237 6.23419C27.0475 5.73312 27.6934 4.74629 28.572 4.49524C29.2287 4.30761 30.9433 3.18626 30.9433 2.44012" stroke="black" stroke-linecap="round"/>
<path d="M30.9433 2.44015C29.3625 2.44015 27.7816 2.44015 26.2007 2.44015C25.2521 2.44015 26.7727 2.28207 27.0263 2.28207C27.8281 2.28207 28.5828 2.12398 29.3625 2.12398C30.4763 2.12398 31.5281 1.80781 32.6823 1.80781C33.3325 1.80781 35.52 2.13951 35.844 1.49164" stroke="black" stroke-linecap="round"/>
<path d="M18.7707 8.28932C18.7707 7.05098 18.7707 5.81264 18.7707 4.5743C18.7707 3.74415 19.0098 3.23056 18.0593 3.23056C17.7667 3.23056 16.2423 3.42459 16.4082 2.84413C16.4809 2.58975 18.548 2.75631 18.8409 2.75631C19.5026 2.75631 20.1642 2.75631 20.8258 2.75631C21.1771 2.75631 22.8557 2.69726 21.9324 3.10761C21.7361 3.19485 21.0849 3.34143 20.9839 3.46769C20.7568 3.75161 20.5648 3.24311 20.3515 3.23056C19.9425 3.2065 18.6886 2.76229 18.4545 3.23056" stroke="black" stroke-linecap="round"/>
<path d="M10.234 13.0319C14.476 13.0319 18.718 13.0319 22.96 13.0319C24.2763 13.0319 25.9114 12.9354 27.1493 13.3481" stroke="black" stroke-linecap="round"/>
<path d="M10.076 13.19C11.2831 14.0776 12.3452 15.2064 13.589 16.0356C14.2578 16.4814 15.0015 16.9116 15.609 17.4583C16.0537 17.8586 17.2194 18.8102 17.8222 18.8811C18.1797 18.9232 18.7913 18.2065 19.245 17.9677C19.7402 17.7071 20.2273 17.4479 20.7029 17.1422C21.1254 16.8705 21.7204 16.8388 22.0905 16.5098C22.4521 16.1884 23.5144 15.617 23.9875 15.5613C24.4335 15.5088 25.236 15.2241 25.5333 14.8938C26.023 14.3497 26.3592 13.506 26.9912 13.19" stroke="black" stroke-linecap="round"/>
<path d="M17.9803 16.3517C16.8178 16.3517 16.2543 16.598 15.2928 17.107C14.6818 17.4305 14.9766 19.002 14.9766 19.5924C14.9766 20.5103 15.0697 21.1434 15.3016 21.955C15.5215 22.7247 17.0838 22.6751 17.6641 22.6751C17.9071 22.6751 18.6127 22.7936 18.7707 22.5961C18.9493 22.3729 19.1767 21.991 19.403 21.8496C20.0055 21.473 20.5096 20.4451 20.5096 19.7505C20.5096 18.9842 20.5265 18.3537 19.7895 17.9325C19.177 17.5826 18.7402 17.1269 18.1384 16.8259" stroke="black" stroke-linecap="round"/>
<path d="M16.8737 20.9362C16.0271 20.9362 15.2788 21.2223 14.4672 21.2524C13.9699 21.2708 13.5548 21.5686 13.0796 21.5686C12.444 21.5686 14.3958 21.5036 14.9766 21.7618C16.3483 22.3714 14.6804 22.0703 14.1862 22.0428C13.5757 22.0089 12.3021 22.2268 11.973 21.5686" stroke="black" stroke-linecap="round"/>
<path d="M20.8258 20.1458C21.353 20.1326 21.8722 19.8296 22.3276 19.8296C23.0642 19.8296 22.0887 19.5745 21.8534 19.5222C21.1603 19.3682 22.0521 19.5615 22.2135 19.7067C22.4418 19.9122 22.7739 20.1713 23.039 20.3039" stroke="black" stroke-linecap="round"/>
</svg>
