<svg width="57" height="23" viewBox="0 0 57 23" fill="none" xmlns="http://www.w3.org/2000/svg">
<path d="M1.36854 15.6728C1.36854 14.4752 1.36854 13.2776 1.36854 12.08C1.36854 11.8368 1.02761 11.2944 1.24435 11.0776C1.48845 10.8335 3.0775 11.0421 3.30243 11.0421C6.50916 11.0421 9.68775 10.8825 12.9009 10.8825C13.7779 10.8825 14.6673 10.7228 15.5001 10.7228C16.202 10.7228 16.8547 9.92708 17.3364 9.44534C18.5872 8.19461 19.748 6.87414 21.0002 5.62192C22.0126 4.60948 22.857 3.14469 23.9631 2.25979C24.2816 2.00498 24.8413 2.29529 25.3204 2.22431C26.715 2.01769 28.1865 1.82623 29.5962 1.78076C30.706 1.74496 31.7902 1.4614 32.9051 1.4614C33.789 1.4614 34.8133 1.39131 35.6995 1.29285C36.5387 1.1996 37.3745 1.01364 38.2189 0.982362C39.1069 0.949472 38.7497 0.78833 39.4076 1.49688C40.2289 2.38133 40.9463 3.28907 41.8383 4.0961C42.3657 4.57325 42.9559 5.04521 43.4528 5.54208C43.908 5.99723 44.323 6.48321 44.7657 6.92597C44.9841 7.14434 45.0924 7.67414 45.4754 7.68888C46.8393 7.74133 48.1584 8.23279 49.5206 8.40743C50.7273 8.56214 52.0965 8.5621 53.2642 8.88647C53.8346 9.0449 54.4974 9.0176 55.0207 9.25018C55.623 9.5179 55.6594 9.012 55.6594 9.7647C55.6594 11.5744 55.6594 13.3841 55.6594 15.1938" stroke="black" stroke-linecap="round"/>
<path d="M1.20886 15.9922C2.75243 15.9922 4.29599 15.9922 5.83955 15.9922C6.13584 15.9922 7.99359 16.1575 8.06618 15.9035C8.12925 15.6827 7.91538 15.2275 7.91538 14.9543C7.91538 14.4388 8.02814 14.422 8.39441 14.076C9.28186 13.2379 10.7022 12.3558 11.9073 12.9938C13.165 13.6596 13.1107 14.5734 13.1848 15.8325C13.2073 16.215 24.384 15.9922 25.3559 15.9922C28.5233 15.9922 31.7746 15.8325 34.9011 15.8325C35.7025 15.8325 36.5038 15.8325 37.3052 15.8325C37.9543 15.8325 38.4998 15.8699 39.1237 15.9833C39.7078 16.0895 39.6169 15.9761 39.2124 15.6728" stroke="black" stroke-linecap="round"/>
<path d="M39.0528 15.5132C39.3957 13.9511 41.198 12.3196 42.8851 12.3196C44.5844 12.3196 42.8483 15.3535 44.7302 15.3535C45.9592 15.3535 47.1484 15.8325 48.394 15.8325C49.2456 15.8325 50.0972 15.8325 50.9488 15.8325C51.694 15.8325 52.4392 15.8325 53.1843 15.8325C53.7097 15.8325 55.4641 16.1163 54.7013 15.3535" stroke="black" stroke-linecap="round"/>
<path d="M42.0867 14.7148C41.0533 16.1357 40.229 19.8305 43.0447 19.6648C43.745 19.6236 43.9742 17.0158 44.0028 16.4713C44.0763 15.0748 43.1545 15.2304 42.0867 14.8745" stroke="black" stroke-linecap="round"/>
<path d="M11.2687 15.5132C10.245 15.5132 9.88737 15.4551 9.22832 16.1874C8.54333 16.9485 8.4076 18.252 7.75573 19.0261C7.27513 19.5968 7.43637 20.5967 7.43637 21.2971C7.43637 22.3663 8.13299 22.3793 9.03316 22.3793C11.9182 22.3793 13.8118 15.0341 11.2687 15.0341" stroke="black" stroke-linecap="round"/>
<path d="M39.2124 2.73885C38.4309 2.73885 37.07 2.4624 36.4181 2.9695C36.1407 3.18526 35.8318 3.31625 35.5753 3.57273C35.3674 3.78061 35.715 3.83486 35.8592 4.08725C36.1548 4.60452 36.5832 5.07398 36.8527 5.61307C37.0902 6.08788 37.5668 6.44538 37.7399 6.92599C37.8944 7.35536 38.285 7.67643 38.4052 8.09696C38.6242 8.86341 39.072 8.80665 39.7891 8.80665C40.7555 8.80665 42.6145 8.83152 43.3996 8.20342C43.7236 7.94417 44.6999 7.84857 45.1206 7.84857" stroke="black" stroke-linecap="round"/>
</svg>
