<svg width="100" height="47" viewBox="0 0 100 47" fill="none" xmlns="http://www.w3.org/2000/svg">
<path d="M18.4449 17.5979C18.4449 25.8123 18.8546 34.3038 18.8546 42.3871C18.8546 45.7407 20.4468 44.6407 22.952 44.6407C28.2979 44.6407 33.7732 44.4358 39.0229 43.5025C44.6101 42.5093 50.6759 43.0017 56.3458 43.0017C60.8606 43.0017 65.3753 43.0017 69.89 43.0017C72.5981 43.0017 74.989 43.4454 74.989 40.0425C74.989 35.7349 76.2182 31.3982 76.2182 27.0219C76.2182 24.2104 76.4289 21.3114 75.8312 18.6222C75.5803 17.4928 75.1536 12.6402 73.9419 12.294C73.085 12.0492 71.5415 12.5138 70.6867 12.7037C68.6485 13.1567 66.4633 13.4918 64.3358 13.8191C60.1179 14.468 55.5539 15.3978 51.3151 15.5492C45.1579 15.7691 38.9483 15.5492 32.7858 15.5492C29.8115 15.5492 26.8153 16.3686 23.7715 16.3686C22.6106 16.3686 21.4496 16.3686 20.2887 16.3686C18.7177 16.3686 18.9579 15.7558 19.6741 17.1881" stroke="black" stroke-linecap="round"/>
<path d="M33.6052 14.7297C33.685 10.7412 36.3126 3.8609 40.1611 1.93669C42.3598 0.837294 46.7087 1.54788 48.9705 2.0505C51.4136 2.59342 55.3214 4.1286 55.3214 7.14949C55.3214 9.54354 55.7312 16.714 55.7312 14.3199" stroke="black" stroke-linecap="round"/>
<path d="M43.8488 22.5148V36.8557" stroke="black" stroke-linecap="round"/>
<path d="M33.6052 29.4803H52.4533" stroke="black" stroke-linecap="round"/>
<path d="M1.64552 32.7583C1.64552 34.1069 1.15563 47.5731 4.42265 44.9595C6.21335 43.5269 15.9864 47.0499 15.9864 44.8457C15.9864 42.7058 16.8059 40.792 16.8059 38.6996C16.8059 37.6625 16.504 33.5208 15.349 33.1908C13.7421 32.7317 10.8119 32.7583 9.22571 32.7583C8.02315 32.7583 3.80197 31.7234 3.28448 32.7583" stroke="black" stroke-linecap="round"/>
<path d="M1.64554 31.1193C2.98502 31.1193 15.5267 31.5596 15.5767 30.7096C15.7003 28.6092 15.5767 26.4631 15.5767 24.3586C15.5767 23.5286 15.6545 22.2492 14.9621 21.6953C14.3561 21.2104 14.9074 19.7319 14.3475 19.032C14.0273 18.6318 9.53751 19.2368 8.61112 19.2368C6.49413 19.2368 4.37714 19.2368 2.26015 19.2368C0.952618 19.2368 0.826061 18.6898 0.826061 20.0563C0.826061 21.6649 0.826061 23.2735 0.826061 24.8821C0.826061 26.1417 0.826061 27.4013 0.826061 28.6609C0.826061 29.3495 0.545866 31.2699 1.2358 29.8901" stroke="black" stroke-linecap="round"/>
<path d="M1.23579 8.58357C1.23579 10.7688 1.23579 12.9541 1.23579 15.1394C1.23579 15.9541 1.18797 16.7848 1.23579 17.5978C1.29221 18.5569 2.50455 17.2099 2.87475 17.1881C4.90623 17.0686 6.98604 17.1881 9.02085 17.1881C9.93574 17.1881 13.3764 16.6913 13.9377 17.393C14.1726 17.6866 13.528 14.4289 13.528 13.6598C13.528 12.8129 14.0428 8.17383 12.9134 8.17383C9.35622 8.17383 5.70242 8.58357 2.05527 8.58357" stroke="black" stroke-linecap="round"/>
<path d="M81.5305 34.4085C80.2242 34.4085 79.9316 34.247 79.281 35.3041C78.8631 35.9832 78.5311 36.8928 78.5311 37.6891C78.5311 38.9402 78.174 40.9696 79.9371 40.9696C80.6105 40.9696 81.3396 39.9585 81.8221 39.5637C82.6602 38.8779 83.8011 38.2251 84.4882 37.3662C84.8571 36.9051 84.5021 35.9167 84.0612 35.7207C83.3624 35.4101 82.6745 35.1631 81.9054 34.9709" stroke="black" stroke-linecap="round"/>
<path d="M87.5293 34.2211C87.5293 35.4252 87.1039 39.47 89.0289 39.47C89.8099 39.47 90.3129 39.4326 90.9035 38.9076C91.2708 38.5812 92.3705 37.965 92.4032 37.4079C92.505 35.6777 92.568 34.3108 90.9035 33.4296C89.6605 32.7715 88.3227 33.9181 87.3418 34.4086" stroke="black" stroke-linecap="round"/>
<path d="M82.6552 31.4091C84.1985 31.4468 86.065 32.5874 86.394 30.2844C86.5369 29.2842 86.5919 28.3074 86.5919 27.285C86.5919 26.2785 86.3327 26.3639 85.4671 25.9311C84.5663 25.4807 83.7467 25.4104 82.7594 25.4104C81.735 25.4104 82.2071 26.0688 81.6242 26.5352C81.2485 26.8357 81.1556 28.4949 81.1556 28.9721C81.1556 29.7786 80.8839 30.6593 81.9054 30.6593" stroke="black" stroke-linecap="round"/>
<path d="M85.6547 24.0982C86.3108 24.0982 86.9669 24.0982 87.623 24.0982C87.9991 24.0982 88.0711 23.7023 88.3625 23.5358C89.0222 23.1589 89.0917 22.1163 89.3623 21.4738C89.5352 21.063 89.5701 19.2907 89.2998 18.9431C88.8594 18.3769 87.156 17.7519 86.4462 17.7246C85.8899 17.7032 84.2829 17.1088 83.9676 17.8183C83.6005 18.6442 83.0981 19.6623 83.0303 20.5781C82.9703 21.3881 82.4878 22.3218 83.6864 22.5881C84.4233 22.7519 85.067 22.9735 85.8422 22.9735" stroke="black" stroke-linecap="round"/>
<path d="M80.0309 20.5365C80.0309 18.9291 80.488 17.3784 78.6249 16.9644C77.6341 16.7442 75.9067 16.2855 75.9067 17.7246C75.9067 19.0143 76.372 20.5142 77.6876 21.0989C78.1144 21.2886 78.4134 21.5296 78.7603 21.8071C79.1784 22.1416 79.9024 21.3095 80.2183 21.0989" stroke="black" stroke-linecap="round"/>
<path d="M74.782 40.9696C76.6306 40.9696 77.6954 42.0857 79.3748 42.4589C80.4145 42.6899 81.4141 43.0317 82.5616 43.0317C83.9724 43.0317 85.433 43.2191 86.8732 43.2191C87.8023 43.2191 88.6608 42.7129 89.5497 42.5109C90.6403 42.2631 91.8808 42.0459 92.8719 41.532C94.2377 40.8238 95.6098 40.2166 96.9439 39.4283C97.4877 39.1069 98.2166 38.9058 98.6832 38.5326C99.3023 38.0373 96.7797 34.2072 96.6315 33.7628C96.2106 32.5001 95.8647 31.2126 95.4443 29.9511C95.2185 29.2738 94.8402 28.6813 94.8402 27.9307C94.8402 26.0728 94.6528 24.1956 94.6528 22.3173C94.6528 20.5707 95.1014 18.022 94.4236 16.4123C93.938 15.259 93.4658 14.7987 92.2158 14.7252C91.8618 14.7043 91.5018 14.2668 91.1743 14.1732C90.7617 14.0553 90.1667 14.1628 89.7371 14.1628C87.0575 14.1628 84.3411 13.9753 81.718 13.9753C81.1253 13.9753 80.3978 13.8639 79.8434 14.0795C79.0596 14.3843 78.03 15.1921 77.219 15.2875C76.7366 15.3443 75.1569 15.8011 75.1569 14.9126" stroke="black" stroke-linecap="round"/>
<path d="M80.5932 13.788C80.5932 13.1471 80.1779 9.27475 80.7806 8.95567C81.563 8.54149 83.5581 8.91401 84.4361 8.91401C87.7655 8.91401 87.3417 12.1105 87.3417 14.5378" stroke="black" stroke-linecap="round"/>
</svg>
