<svg width="73" height="71" viewBox="0 0 73 71" fill="none" xmlns="http://www.w3.org/2000/svg">
<path d="M67.6303 65.0413C68.5683 65.0413 68.8784 65.2539 68.8784 64.3281C68.8784 63.8861 68.9668 63.5442 69.3241 63.2583C69.5884 63.047 69.7484 62.6693 69.9085 62.3669C70.1736 61.8662 69.8285 62.0103 69.3241 62.0103C67.7605 62.0103 68.1724 60.9384 69.4133 60.5839C69.6788 60.508 70.4586 60.1037 70.2651 59.6924C70.1831 59.5181 69.847 59.4098 69.6807 59.3358C69.2662 59.1516 68.9739 58.6754 68.7991 58.276C68.2124 56.935 69.7076 56.8906 69.7699 55.7699C69.8344 54.6076 68.2939 55.008 68.3435 53.67C68.3882 52.4639 70.1697 51.2807 70.8297 50.3319C71.2951 49.6629 71.7947 48.6307 71.5132 47.7863C71.2261 46.9252 70.4065 46.3136 70.3146 45.3496C70.2777 44.9622 70.4929 44.0074 70.1264 43.8242" stroke="black" stroke-linecap="round"/>
<path d="M70.1264 43.8242C67.8851 43.8242 69.6853 42.4404 70.483 41.6846C71.5924 40.6336 70.4734 40.6087 69.958 39.7927C69.0064 38.2859 69.2965 35.7963 69.225 34.117C69.1826 33.1209 69.0437 31.0563 68.3435 30.2737C66.7202 28.4595 68.6412 26.1108 69.5717 24.5881C69.6664 24.4332 70.9359 22.7237 70.5622 22.6169C69.9103 22.4307 69.8492 22.6375 69.6807 21.7948C69.42 20.4915 69.8835 19.3228 70.2057 18.0803C70.4112 17.2874 70.3258 16.9274 70.3047 16.1884C70.2892 15.6453 70.6618 13.837 70.1264 13.5536C69.6523 13.3026 69.0482 13.3699 68.5119 13.0682C67.8573 12.7 67.2415 12.1077 66.8379 11.4735C66.6256 11.14 66.5589 10.8388 66.2039 10.6613" stroke="black" stroke-linecap="round"/>
<path d="M66.2039 10.6612C67.2733 9.89203 68.2909 9.33376 69.4132 8.7396C69.9746 8.44242 70.1265 7.12485 70.3146 6.56044C70.4125 6.26666 71.6654 4.42089 71.107 4.42089C70.2585 4.42089 69.4099 4.42089 68.5614 4.42089C66.6217 4.42089 68.0648 2.24506 67.452 1.47902C67.2338 1.20628 66.8056 1.2042 66.6001 0.854987C66.4005 0.515663 66.3094 0.973947 66.095 1.12243C65.2143 1.73213 64.1234 2.27633 63.1729 2.77661C62.9035 2.91838 62.2411 3.99519 61.9248 3.84639C61.3459 3.57393 61.4201 2.81304 60.5876 2.62803C60.084 2.51611 59.3128 2.26652 58.8047 2.54879C57.8884 3.05785 55.8642 2.63794 54.8326 2.63794C54.0421 2.63794 53.0288 2.81515 52.2969 2.45964C51.2457 1.94906 49.8419 1.03328 48.6517 1.03328C47.6147 1.03328 48.0178 2.32387 48.0178 3.15301C48.0178 4.06923 47.6007 4.03707 47.1263 3.3115C47.0072 3.12926 46.4132 1.56338 46.4132 2.45964C46.4132 3.27438 43.9075 1.62677 43.3821 1.47902C42.2724 1.1669 40.7336 0.707497 39.5587 1.04319C39.3024 1.11643 39.6047 1.59468 39.3804 1.70684C38.808 1.99302 37.6821 1.66506 37.1022 1.60779C35.764 1.47563 34.385 1.56817 33.041 1.56817C32.2317 1.56817 31.2379 1.41512 30.4458 1.60779C29.3643 1.87087 29.6738 2.7001 29.4652 3.43036C29.4403 3.5175 25.9531 2.10429 25.6418 2.01391C25.2715 1.90642 22.0648 1.1217 21.9867 1.74646C21.9487 2.05038 19.5336 1.47488 19.2727 1.42949C18.222 1.24677 17.8859 1.26646 17.8859 2.28135C17.8859 3.42216 17.4635 3.17283 16.3704 3.17283C15.7534 3.17283 12.7905 2.50629 12.3984 3.17283C12.3418 3.26904 12.4063 3.88175 12.2597 3.77705C12.0354 3.61684 11.6599 2.96902 11.6456 3.56904C11.6183 4.71401 12.0022 8.13166 12.0022 6.98636C12.0022 6.5526 11.7816 6.09074 11.6852 5.66896C11.627 5.41435 11.6456 4.62527 11.6456 4.88644C11.6456 5.54683 10.7798 4.8795 10.5758 4.77748" stroke="black" stroke-linecap="round"/>
<path d="M10.5758 4.77748C9.15172 3.65145 7.78169 2.4864 6.11843 1.78608C5.75488 1.63301 5.40525 1.699 5.40525 2.10305C5.40525 2.96625 5.11278 3.6291 4.69207 4.38127C4.37603 4.94631 3.76733 7.32059 3.30533 5.98593C3.17686 5.61479 3.18286 5.06779 2.8695 4.8171C2.47655 4.50274 2.37423 5.75135 2.37423 5.92649C2.37423 7.16188 3.73671 6.50397 4.59302 6.74863C5.19749 6.92134 4.83925 8.99092 4.7515 9.33391C4.35837 10.8707 3.29468 12.3283 2.47329 13.6724C1.46298 15.3257 3.444 13.6693 3.444 14.6729C3.444 15.6433 5.1927 15.589 5.22696 16.8223C5.27973 18.7221 3.52781 20.004 3.6223 21.8938C3.68125 23.0729 6.11843 22.6236 6.11843 24.073C6.11843 25.026 5.73337 25.9996 5.54393 26.9257C5.26209 28.3036 4.56003 29.6559 4.01851 30.9473C3.88386 31.2683 3.20504 32.6894 3.54306 33.0274C3.79409 33.2784 4.33548 33.1768 4.33548 33.5722C4.33548 34.2071 4.59897 33.7678 4.87037 34.107C5.70654 35.1523 4.87037 36.4131 4.87037 37.5838C4.87037 38.8832 6.41846 38.3487 6.47502 39.3668C6.5133 40.0557 5.546 41.1065 5.13781 41.6054C4.48455 42.4038 4.08537 42.9327 2.99827 42.9327C1.11743 42.9327 3.77399 44.2044 4.23643 44.5373C4.9144 45.0255 6.65332 45.7889 6.65332 46.766C6.65332 47.6674 5.65999 47.3363 5.04866 47.608C4.49463 47.8542 3.96245 48.9886 3.66192 49.5296C3.31084 50.1615 2.69869 50.3597 2.10679 50.6885C1.80826 50.8544 1.51625 50.9303 1.22522 51.1243C0.843314 51.3789 2.10447 51.3913 2.55253 51.4908C3.34617 51.6672 4.33548 52.0092 4.33548 52.9172C4.33548 53.4018 3.87836 53.4734 3.58268 53.7691C3.38491 53.9668 3.3913 54.2757 3.22609 54.4822C2.97316 54.7984 2.54372 56.443 3.26571 56.4831C3.60141 56.5018 5.14653 56.4945 4.47415 57.335C4.17145 57.7133 4.20005 57.9898 3.97889 58.4444C3.65843 59.1031 3.17559 59.6763 2.81997 60.3165C2.60099 60.7106 2.5059 60.7217 2.99827 60.9405C3.28412 61.0675 3.62717 61.3876 3.89965 61.4655C4.3539 61.5953 5.0208 62.3089 5.36563 62.5848C5.91544 63.0246 4.80835 63.6933 4.51378 63.9715C3.88447 64.5658 3.42797 65.39 4.05813 66.2002C4.72035 67.0516 5.445 67.3591 6.55427 67.3591C7.20113 67.3591 5.52314 68.085 5.3161 68.2506C5.22154 68.3262 6.82102 68.3282 7.27735 67.9732C8.15122 67.2936 8.4962 67.7794 8.61457 68.7855C8.69681 69.4845 9.74583 69.3204 10.2192 69.3204C11.0696 69.3204 11.0567 68.8836 11.606 68.3893C11.9188 68.1077 12.984 67.8693 13.4285 67.894C14.2777 67.9412 14.3826 69.7412 15.3006 69.2312C16.3896 68.6262 16.7777 68.0723 18.0642 68.0723C19.8175 68.0723 21.5707 68.0723 23.3239 68.0723C23.6583 68.0723 23.8417 68.5142 24.2154 68.5973C24.6244 68.6882 25.0482 68.7855 25.4734 68.7855C26.6327 68.7855 26.8125 68.8035 27.2959 67.7157C27.4949 67.2681 27.2614 67.1808 27.8705 67.1808C28.7915 67.1808 29.4882 67.6855 30.3666 67.8544C30.9958 67.9754 31.5781 68.2145 32.1495 68.4685C32.5827 68.661 32.6844 69.151 32.6844 68.419C32.6844 68.0111 32.7639 67.494 32.6745 67.0917C32.5207 66.3995 32.9702 66.6459 33.6849 66.6459C35.1659 66.6459 36.6239 66.8242 38.1026 66.8242C38.4716 66.8242 39.6557 66.743 39.9549 67.0421C40.1135 67.2007 39.9817 67.855 39.9945 68.0723C40.0073 68.2891 40.3432 68.5003 40.4898 68.6468C41.0528 69.2098 41.5978 68.3326 41.8171 67.894C42.1143 67.2997 41.9855 66.4082 42.5303 65.9724C42.7574 65.7907 44.3127 66.389 44.5411 66.5667C45.4826 67.299 47.2324 68.0051 48.3744 68.0723C49.1094 68.1155 49.7277 68.4465 50.514 68.0327C51.2052 67.6688 51.5772 66.8177 52.2078 67.4483C53.8061 69.0466 55.7229 69.2205 57.8142 69.9444C58.9621 70.3418 59.4106 70.9403 60.0428 69.7661C60.286 69.3145 60.3977 68.671 60.4886 68.1713C60.5388 67.8951 60.3626 67.0723 60.8551 67.5374C61.7358 68.3692 62.9993 68.8952 64.0644 69.459C64.997 69.9528 66.4822 69.0022 67.3629 68.5279C68.4355 67.9504 68.4502 67.7948 68.1751 66.5568C68.0078 65.804 67.9869 65.1194 67.9869 64.3281" stroke="black" stroke-linecap="round"/>
</svg>
