<svg width="29" height="48" viewBox="0 0 29 48" fill="none" xmlns="http://www.w3.org/2000/svg">
<path d="M27.9634 3.53572C27.9634 16.9968 28.1053 30.4863 27.732 43.9257C27.7054 44.8839 27.732 45.8467 27.732 46.8052C27.732 48.233 26.5458 47.0719 25.9837 46.5609C24.6016 45.3044 23.0878 44.2991 21.4845 43.2829C18.9183 41.6564 16.63 39.4795 14.2987 37.5368C12.6436 36.1576 10.9402 34.9446 9.22101 33.6675C8.32739 33.0037 7.24835 32.5243 6.44436 31.765C5.07106 30.468 3.62797 28.3031 1.58522 28.0628C0.449037 27.9291 2.72219 25.6437 2.81929 25.5304C8.74442 18.6177 13.8585 10.6721 20.9832 4.85977C22.4327 3.67726 24.8093 1.55835 26.8064 1.45324C27.8275 1.3995 27.2097 1.71936 27.0507 2.27595C26.8678 2.91618 26.7925 6.07402 27.2692 6.31237" stroke="black" stroke-linecap="round"/>
<path d="M25.4181 43.5657C23.8054 43.2117 23.0926 42.3645 21.8702 41.3547C20.4293 40.1644 18.4599 39.1337 17.2039 37.7811C16.85 37.4 14.0524 35.2358 14.4272 35.2358C16.4857 35.2358 18.8035 35.5525 20.7904 35.0558C21.8417 34.793 22.7866 34.3245 23.7984 33.9632C24.2365 33.8067 25.1828 33.7228 25.4695 33.4361C25.9195 32.9861 23.8989 33.1533 23.567 33.1533C21.8571 33.1533 20.4413 32.8487 18.8236 32.3563C17.3845 31.9183 15.8743 31.7186 14.4144 31.3536C13.3775 31.0944 12.3622 30.5235 11.2906 30.3895C10.3907 30.277 9.43101 30.1453 8.52684 30.1453C8.29272 30.1453 6.97864 29.8651 7.74269 29.6954C11.1816 28.9312 14.3988 27.427 17.7823 26.3274C19.585 25.7415 21.3556 25.0172 23.0914 24.2578C23.5716 24.0477 24.2876 23.9229 24.6725 23.615C25.4671 22.9794 22.5139 23.2037 22.1658 23.2037C19.9505 23.2037 17.7352 23.2037 15.5199 23.2037C13.7826 23.2037 11.2724 23.6741 9.58094 23.1908C8.62346 22.9172 10.6523 22.2438 10.7122 22.2267C12.6775 21.6652 14.7182 20.0817 16.3683 18.9358C18.515 17.4451 20.5955 15.3696 22.8729 14.231C23.8213 13.7568 23.0879 13.9482 22.4101 13.9482C21.8907 13.9482 20.3266 14.225 19.9162 13.8967C19.0901 13.2358 19.7274 11.2337 20.1476 10.4773C20.703 9.47771 22.3379 9.69624 22.8729 8.62625" stroke="black" stroke-linecap="round"/>
</svg>
