<svg width="29" height="44" viewBox="0 0 29 44" fill="none" xmlns="http://www.w3.org/2000/svg">
<path d="M3.30727 1.30435C8.19204 3.98829 12.4 7.43202 17.062 10.4313C20.5844 12.6975 24.1794 15.4405 27.1402 18.4013C27.8432 19.1044 28.9068 19.3995 27.8343 19.9953C26.2302 20.8865 24.7084 22.591 23.2966 23.7618C19.1377 27.2106 14.9113 30.9004 11.2259 34.8555C9.73654 36.4538 7.91128 37.795 6.66239 39.599C6.02287 40.5227 5.04848 41.3008 4.51562 42.2599C4.30157 42.6452 3.30727 43.9405 3.30727 43.1855C3.30727 42.4969 3.13514 41.5585 2.96019 40.8587C2.20534 37.8393 2.17598 34.5721 1.86753 31.4875C1.19459 24.7582 1.45617 17.9641 1.45617 11.2026C1.45617 8.13885 1.45617 5.07511 1.45617 2.01137C1.45617 1.58287 1.45617 1.15438 1.45617 0.725884C1.45617 0.291969 1.44706 0.70392 1.63614 0.892997C2.42624 1.6831 5.58158 2.69268 4.46421 2.69268" stroke="black" stroke-linecap="round"/>
<path d="M3.07585 3.15546C3.74031 4.89967 3.74985 6.90933 3.19154 8.6959C3.09763 8.99643 2.8639 9.32327 2.84446 9.6343C2.82416 9.95919 2.83056 9.3046 2.89588 9.22295C3.32139 8.69106 3.48816 8.2483 4.11709 7.8989C4.70709 7.57112 5.39781 7.52161 5.96819 7.20473C6.41698 6.95541 7.43541 6.62627 7.93498 6.62627C8.63285 6.62627 7.69896 7.94842 7.57505 8.14314C6.8876 9.22342 6.33879 10.5795 5.8525 11.7682C5.4754 12.69 4.51977 13.9555 4.46417 14.9562C4.43942 15.4019 4.25955 16.2769 3.88571 16.5759C3.61802 16.7901 3.16373 17.5421 3.71859 16.9873C5.24152 15.4643 7.59751 14.7066 9.439 13.6836C10.2299 13.2442 11.7842 12.6423 12.6913 12.6423C13.4262 12.6423 14.2181 12.3572 14.1824 13.2851C14.1595 13.8821 13.3351 14.516 13.0255 15.0076C10.4769 19.0554 3.09578 31.3019 6.08389 27.5668C6.65852 26.8485 7.73223 26.6063 8.29492 25.8828C9.14868 24.7851 10.4146 24.046 11.3929 23.0676C12.8316 21.6289 14.8548 20.6723 16.5477 19.584C17.6944 18.8468 19.3389 18.042 20.6613 17.9642C21.0617 17.9407 21.7457 17.6321 21.2398 18.5427C20.8981 19.1578 20.3767 19.7442 19.9414 20.3038C18.1857 22.5611 16.6517 24.9696 14.8766 27.2197C12.8905 29.7374 10.8794 32.1748 8.83482 34.6498C8.39416 35.1833 7.96535 35.7507 7.47221 36.2438C7.1512 36.5649 6.08389 37.6048 6.08389 36.938" stroke="black" stroke-linecap="round"/>
</svg>
